<svg width="63" height="47" viewBox="0 0 63 47" fill="none" xmlns="http://www.w3.org/2000/svg">
<path d="M61.2546 13.4376C61.246 13.4367 61.2381 13.4358 61.2295 13.4358C60.2295 13.4055 59.3198 13.5364 58.4448 13.7123C55.9684 14.2514 53.662 15.2108 51.4226 16.3436C51.3227 16.3938 51.2785 16.5117 51.3184 16.6157C51.3227 16.6279 51.3279 16.64 51.3323 16.6521C51.3705 16.7509 51.4746 16.8073 51.5779 16.7856C54.1117 16.2552 56.8216 15.762 59.3953 16.0636C59.5056 16.0766 59.588 16.1711 59.5872 16.282C59.5629 18.7772 59.2452 21.3184 58.7382 23.7529C57.2435 31.0825 53.2983 38.1729 46.8594 42.2394C45.6519 43.0549 44.3378 43.7006 43.0079 44.3125C42.9038 44.3601 42.8552 44.4806 42.8968 44.5872C42.9402 44.6981 43.0644 44.7536 43.1763 44.7111C44.5617 44.1842 45.9445 43.6157 47.2369 42.8651C55.7366 38.2561 60.5116 28.9296 62.0029 19.6561C62.3284 17.7311 62.4985 15.7802 62.5081 13.7981C62.5081 13.6889 62.4273 13.5962 62.3197 13.5814L61.2555 13.4376H61.2546Z" fill="white" stroke="white" stroke-width="0.5"/>
<path d="M4.76982 23.752C4.26289 21.3175 3.9452 18.7764 3.92176 16.2812C3.92089 16.1703 4.00336 16.0758 4.11359 16.0628C6.68641 15.7612 9.39811 16.2543 11.931 16.7847C12.0343 16.8064 12.1385 16.7501 12.1766 16.6513L12.1914 16.614C12.2313 16.5109 12.1871 16.393 12.089 16.3427C11.3954 15.9848 10.6915 15.658 9.97361 15.346C7.5119 14.3181 5.0337 13.3986 2.28207 13.4367C2.27252 13.4367 2.26384 13.4367 2.25429 13.4385C2.1536 13.4523 1.51387 13.5381 1.18923 13.5823C1.07986 13.5953 1 13.6881 1 13.7973C1.00868 15.7776 1.18055 17.7312 1.50519 19.6552C2.99645 28.9296 7.77057 38.2535 16.2711 42.8643C17.5636 43.6148 18.9464 44.1834 20.3317 44.7103C20.4428 44.7528 20.5678 44.6973 20.6112 44.5864C20.6529 44.4798 20.6034 44.3602 20.5001 44.3116C19.1694 43.6997 17.8561 43.0541 16.6487 42.2385C10.2097 38.1729 6.26455 31.0808 4.76982 23.752Z" fill="white" stroke="white" stroke-width="0.5"/>
<path d="M45.9792 8.94554C46.0234 8.95334 46.0651 8.97327 46.0972 9.00534C46.2543 9.16135 46.4175 9.35115 46.5651 9.54616C47.5347 10.8393 48.2638 12.3508 48.9131 13.8597C48.9539 13.955 49.0572 14.0079 49.1587 13.9853L49.3948 13.9333C49.4999 13.9099 49.5728 13.8129 49.565 13.7063C49.4816 12.5744 49.3445 11.4537 49.1214 10.3123C48.8003 8.92387 48.6084 7.77291 47.6059 6.51361C47.6059 6.51361 47.4522 6.31861 47.3611 6.20247C47.3185 6.14874 47.2534 6.11754 47.1849 6.11927C45.0191 6.17214 42.9203 6.97122 41.12 8.11959C40.6356 8.42553 40.1886 8.77914 39.7615 9.14228C39.6782 9.21248 39.6617 9.33382 39.7216 9.42482C39.7633 9.48895 39.811 9.56176 39.8527 9.62502C39.91 9.71169 40.0202 9.74463 40.1157 9.70563C41.9542 8.95161 44.0209 8.61967 45.9792 8.94467V8.94554Z" fill="white" stroke="white" stroke-width="0.5"/>
<path d="M16.9429 9.54616C17.0905 9.35116 17.2537 9.16135 17.4108 9.00535C17.4429 8.97328 17.4837 8.95335 17.5289 8.94555C19.4871 8.62054 21.5539 8.95248 23.3923 9.7065C23.4887 9.74637 23.5989 9.71257 23.6554 9.6259C23.6961 9.5635 23.7448 9.48983 23.7864 9.42656C23.8463 9.33556 23.8298 9.21335 23.7465 9.14315C21.6919 7.39418 19.0548 6.20421 16.324 6.12101C16.2546 6.11928 16.1886 6.15048 16.1461 6.20421L15.9022 6.51449C15.3015 7.22517 15.0828 7.86045 14.8597 8.4836C14.3033 10.1953 14.0837 11.9486 13.9448 13.7054C13.9361 13.8129 14.009 13.9108 14.1141 13.9342L14.3493 13.9862C14.4508 14.0087 14.5533 13.9559 14.5949 13.8605C15.2451 12.3516 15.9742 10.8401 16.9429 9.54703V9.54616Z" fill="white" stroke="white" stroke-width="0.5"/>
<path d="M19.1234 19.6638C14.7529 18.161 11.9509 21.5446 13.3345 25.7367C13.9508 27.8445 15.4308 30.234 17.902 30.2366C19.9332 30.2851 20.9176 28.3671 20.3264 26.5792C20.1797 26.047 19.9567 25.5452 19.6989 25.0659L19.5617 25.1361C20.0087 26.0903 20.3499 27.1746 20.1207 28.1756C19.7648 29.8353 17.7727 30.0962 16.4985 29.3049C15.1678 28.5275 14.5324 26.9588 14.1513 25.5166C13.2425 22.2015 15.1582 19.5312 18.659 20.9422C21.4965 22.0914 23.4348 24.7678 24.6796 27.4866C27.1057 33.1703 27.2697 39.6739 26.6665 45.7607C26.6543 45.8803 26.742 45.986 26.8618 45.9964L29.327 46.2157C29.4493 46.227 29.5561 46.1342 29.5631 46.012C29.8096 41.6526 29.5292 37.2715 28.5822 33.0074C27.4052 27.6616 24.637 21.691 19.1251 19.663L19.1234 19.6638Z" fill="white" stroke="white" stroke-width="0.5"/>
<path d="M47.5954 20.6857C51.0528 21.7786 49.4825 27.8844 47.0225 29.33C45.7335 30.1326 43.7171 29.8605 43.3577 28.1826C43.126 27.1685 43.4697 26.08 43.9176 25.1223L43.8386 25.0815C43.5808 25.5582 43.3586 26.0583 43.2128 26.587C42.3595 29.3439 44.8047 31.0452 47.2717 29.7981C49.9556 28.3836 51.6586 23.1133 49.5216 20.6614C47.2795 18.1896 43.5478 19.5963 41.3569 21.3539C34.5499 27.0697 33.6046 37.665 33.9493 46.0103C33.9545 46.1334 34.0621 46.227 34.1854 46.2166L36.6445 45.9973C36.7651 45.9869 36.8528 45.8786 36.8398 45.759C36.3867 41.6726 36.4275 37.5003 37.1036 33.4364C37.7573 29.3899 39.2503 25.3147 42.3152 22.5101C43.7249 21.3037 45.7379 20.1432 47.5963 20.6857H47.5954Z" fill="white" stroke="white" stroke-width="0.5"/>
<path d="M38.9542 15.047C39.6121 16.4666 40.139 17.9443 40.6425 19.4394L40.7258 19.4194C40.7735 19.4082 40.2987 17.2016 40.2536 16.9996C40.073 16.1884 39.8691 15.3824 39.6425 14.5824C39.1894 12.9834 38.6434 11.4104 37.9967 9.87893C37.3509 8.34835 36.6053 6.85938 35.7546 5.43195C35.3284 4.71693 34.8762 4.01751 34.3979 3.3363C33.9309 2.67068 33.4674 1.99293 32.8615 1.44258C32.7114 1.30651 32.5377 1.12017 32.3555 1.02831C32.2461 0.972837 32.227 1.0049 32.1194 1.07251C32.0317 1.12711 31.9449 1.18344 31.859 1.24064C31.5334 1.45732 31.2201 1.69132 30.9198 1.94093C30.3312 2.43061 29.7939 2.97922 29.3035 3.56684C28.4502 4.58953 27.7437 5.72489 27.1091 6.89318C26.064 8.80857 25.2099 10.7985 24.4929 12.8456L24.5702 12.8811C25.1309 11.9685 25.7368 11.0854 26.3635 10.2256C27.9138 8.18542 29.6898 5.89389 31.9128 4.56959C34.8831 7.5484 37.2225 11.211 38.9533 15.0461L38.9542 15.047Z" fill="white" stroke="white" stroke-width="0.5"/>
</svg>
