<svg width="307" height="123" viewBox="0 0 307 123" fill="none" xmlns="http://www.w3.org/2000/svg">
<g clip-path="url(#clip0_277_114)">
<path d="M159.743 122.279V85.3125H167.173V90.2804L168.602 90.6071C170.287 87.0411 173.335 85.3125 177.933 85.3125C180.158 85.3125 182.086 85.7208 183.839 86.5647L181.021 93.5198C179.82 92.8664 178.324 92.3492 175.991 92.3492C170.099 92.3492 167.227 95.6703 167.227 102.516V122.279H159.743Z" fill="white"/>
<path d="M45.7507 123C41.8943 123 38.5503 122.238 35.7996 120.741C33.0759 119.257 30.9724 117.106 29.5431 114.357C28.0869 111.58 27.3588 108.232 27.3588 104.394V84.7266H35.0715V104.707C35.0715 108.069 36.0019 110.777 37.8222 112.751C39.656 114.738 42.3258 115.745 45.7507 115.745C49.1621 115.745 51.8319 114.738 53.6657 112.751C55.486 110.777 56.4164 108.069 56.4164 104.707V84.7266H64.1292V104.408C64.1292 108.232 63.4011 111.58 61.9448 114.371C60.5155 117.12 58.3986 119.271 55.6883 120.754C52.9511 122.238 49.6071 123 45.7507 123Z" fill="white"/>
<path d="M0 121.911V84.7266H8.23863V115.364H21.709V121.911H0Z" fill="white"/>
<path d="M82.8852 121.911L71.1407 84.7266H79.9052L88.7911 116.249H91.3261L100.212 84.7266H108.963L97.232 121.911H82.8852Z" fill="white"/>
<path d="M132.249 90.8513C129.067 90.8513 126.397 91.9129 124.294 93.9953C122.191 96.0914 121.125 99.0857 121.125 102.924V103.7C121.125 107.538 122.191 110.546 124.294 112.628C126.384 114.711 129.067 115.772 132.249 115.772C135.432 115.772 138.101 114.711 140.205 112.628C142.308 110.532 143.36 107.538 143.36 103.7V102.924C143.36 99.0857 142.308 96.0914 140.232 93.9953C138.169 91.9129 135.486 90.8513 132.249 90.8513ZM132.249 123C128.568 123 125.224 122.238 122.312 120.74C119.413 119.257 117.094 117.065 115.435 114.234C113.763 111.403 112.914 107.946 112.914 103.931V102.679C112.914 98.6774 113.763 95.2067 115.435 92.3757C117.107 89.5446 119.413 87.3669 122.312 85.8697C125.238 84.3726 128.582 83.6104 132.249 83.6104C135.917 83.6104 139.261 84.3726 142.187 85.8697C145.086 87.3533 147.405 89.5446 149.064 92.3757C150.736 95.2067 151.585 98.6774 151.585 102.679V103.931C151.585 107.933 150.736 111.403 149.064 114.234C147.392 117.065 145.073 119.243 142.187 120.74C139.275 122.238 135.931 123 132.249 123Z" fill="white"/>
<path d="M200.316 105.837C198.347 105.837 196.77 106.286 195.61 107.157C194.383 108.083 193.763 109.389 193.763 111.036C193.763 112.669 194.41 114.031 195.664 115.065C196.877 116.059 198.617 116.562 200.855 116.562C203.768 116.562 206.181 115.718 208.042 114.071C209.93 112.397 210.887 110.138 210.887 107.375V105.837H200.316ZM199.156 123C196.54 123 194.181 122.537 192.118 121.625C190.095 120.727 188.464 119.393 187.29 117.678C186.117 115.977 185.538 113.854 185.538 111.363C185.538 108.886 186.131 106.79 187.29 105.129C188.464 103.469 190.122 102.189 192.212 101.332C194.356 100.461 196.851 100.025 199.628 100.025H210.901V97.0852C210.901 95.0708 210.253 93.3831 208.986 92.0765C207.705 90.7562 205.709 90.0893 203.04 90.0893C200.437 90.0893 198.442 90.7154 197.12 91.9676C196.015 93.0156 195.232 94.3222 194.788 95.8738L187.317 93.3423C187.911 91.7362 188.787 90.239 189.906 88.8915C191.187 87.3535 192.94 86.0741 195.125 85.1214C197.309 84.155 200.033 83.665 203.215 83.665C208.056 83.665 211.925 84.89 214.703 87.2991C217.454 89.681 218.843 93.2198 218.843 97.793V121.925H210.914V117.787L209.471 117.488C209.229 118.059 208.851 118.713 208.312 119.461C207.665 120.373 206.613 121.19 205.184 121.911C203.714 122.632 201.705 123 199.156 123Z" fill="white"/>
<path d="M265.861 0L286.437 10.385V51.8977L265.861 62.269V0Z" fill="white"/>
<path d="M286.437 93.4111V51.8984L307 62.2698V83.0397L286.437 93.4111Z" fill="white"/>
<path d="M245.298 51.8984L265.861 62.2698V83.0397L245.298 93.4111V51.8984Z" fill="white"/>
<path d="M224.735 20.7559L245.298 31.1408V51.8972L224.735 62.2685V20.7559Z" fill="white"/>
</g>
<defs>
<clipPath id="clip0_277_114">
<rect width="307" height="123" fill="white"/>
</clipPath>
</defs>
</svg>
