<svg width="237" height="95" viewBox="0 0 237 95" fill="none" xmlns="http://www.w3.org/2000/svg">
<g clip-path="url(#clip0_277_114)">
<path d="M123.32 94.4431V65.8916H129.055V69.7286L130.158 69.9809C131.46 67.2267 133.812 65.8916 137.362 65.8916C139.079 65.8916 140.568 66.207 141.921 66.8587L139.745 72.2305C138.819 71.7259 137.664 71.3265 135.863 71.3265C131.314 71.3265 129.097 73.8915 129.097 79.1792V94.4431H123.32Z" fill="white"/>
<path d="M35.319 95.0002C32.3419 95.0002 29.7604 94.4115 27.6369 93.2551C25.5342 92.1093 23.9103 90.4483 22.8069 88.3248C21.6827 86.1803 21.1206 83.5943 21.1206 80.6298V65.4395H27.0748V80.8716C27.0748 83.4681 27.793 85.5601 29.1983 87.0844C30.6139 88.6192 32.675 89.3971 35.319 89.3971C37.9525 89.3971 40.0136 88.6192 41.4292 87.0844C42.8345 85.5601 43.5527 83.4681 43.5527 80.8716V65.4395H49.5069V80.6403C49.5069 83.5943 48.9448 86.1803 47.8206 88.3353C46.7172 90.4588 45.0829 92.1198 42.9906 93.2656C40.8775 94.4115 38.296 95.0002 35.319 95.0002Z" fill="white"/>
<path d="M0 94.1592V65.4395H6.36011V89.1027H16.759V94.1592H0Z" fill="white"/>
<path d="M63.9862 94.1592L54.9197 65.4395H61.6858L68.5455 89.786H70.5025L77.3622 65.4395H84.1179L75.0618 94.1592H63.9862Z" fill="white"/>
<path d="M102.095 70.1697C99.6382 70.1697 97.5772 70.9897 95.9533 72.5981C94.3295 74.217 93.5071 76.5297 93.5071 79.4942V80.0934C93.5071 83.0578 94.3295 85.3811 95.9533 86.9895C97.5668 88.5978 99.6382 89.4178 102.095 89.4178C104.551 89.4178 106.613 88.5978 108.236 86.9895C109.86 85.3706 110.672 83.0578 110.672 80.0934V79.4942C110.672 76.5297 109.86 74.217 108.257 72.5981C106.665 70.9897 104.593 70.1697 102.095 70.1697ZM102.095 94.9999C99.2531 94.9999 96.6716 94.4112 94.4232 93.2548C92.1852 92.109 90.3947 90.4165 89.1144 88.2299C87.8236 86.0433 87.1678 83.3732 87.1678 80.2721V79.3049C87.1678 76.2143 87.8236 73.5337 89.1144 71.3471C90.4052 69.1605 92.1852 67.4786 94.4232 66.3222C96.682 65.1658 99.2635 64.5771 102.095 64.5771C104.926 64.5771 107.508 65.1658 109.767 66.3222C112.005 67.468 113.795 69.1605 115.075 71.3471C116.366 73.5337 117.022 76.2143 117.022 79.3049V80.2721C117.022 83.3627 116.366 86.0433 115.075 88.2299C113.785 90.4165 111.994 92.0984 109.767 93.2548C107.518 94.4112 104.937 94.9999 102.095 94.9999Z" fill="white"/>
<path d="M154.641 81.7437C153.122 81.7437 151.904 82.0906 151.008 82.7634C150.061 83.4783 149.582 84.4875 149.582 85.7594C149.582 87.0209 150.082 88.0722 151.05 88.8711C151.987 89.6385 153.33 90.0275 155.058 90.0275C157.306 90.0275 159.169 89.3757 160.606 88.1037C162.063 86.8107 162.802 85.0656 162.802 82.9316V81.7437H154.641ZM153.746 94.9998C151.727 94.9998 149.905 94.6424 148.312 93.938C146.751 93.2442 145.491 92.214 144.586 90.8895C143.68 89.5754 143.233 87.9355 143.233 86.0117C143.233 84.0985 143.691 82.4796 144.586 81.1971C145.491 79.9146 146.772 78.9264 148.385 78.2641C150.04 77.5914 151.966 77.255 154.11 77.255H162.813V74.9843C162.813 73.4285 162.313 72.1249 161.335 71.1158C160.346 70.0961 158.805 69.581 156.744 69.581C154.735 69.581 153.194 70.0645 152.174 71.0317C151.321 71.8411 150.717 72.8503 150.373 74.0487L144.607 72.0934C145.065 70.853 145.741 69.6966 146.605 68.6559C147.594 67.468 148.947 66.4798 150.634 65.744C152.32 64.9976 154.423 64.6191 156.879 64.6191C160.616 64.6191 163.604 65.5652 165.748 67.4259C167.872 69.2656 168.944 71.9988 168.944 75.5309V94.1693H162.823V90.9736L161.709 90.7423C161.522 91.1838 161.23 91.6884 160.814 92.2666C160.314 92.9709 159.502 93.6017 158.399 94.1588C157.264 94.716 155.713 94.9998 153.746 94.9998Z" fill="white"/>
<path d="M205.241 0L221.126 8.02092V40.0835L205.241 48.094V0Z" fill="white"/>
<path d="M221.126 72.1466V40.084L237 48.0944V64.1362L221.126 72.1466Z" fill="white"/>
<path d="M189.367 40.084L205.241 48.0944V64.1362L189.367 72.1466V40.084Z" fill="white"/>
<path d="M173.493 16.0312L189.367 24.0522V40.0835L173.493 48.0939V16.0312Z" fill="white"/>
</g>
<defs>
<clipPath id="clip0_277_114">
<rect width="237" height="95" fill="white"/>
</clipPath>
</defs>
</svg>
