<svg width="328" height="339" viewBox="0 0 328 339" fill="none" xmlns="http://www.w3.org/2000/svg">
<path d="M24.2928 242.273C29.9033 242.273 34.4815 243.303 38.69 246.574C43.2709 250.031 45.9817 255.451 45.9817 262.555C45.9817 269.658 42.9916 275.453 38.1287 279.004C33.6408 282.182 28.3124 282.836 22.8909 282.836H4.48782V305.266C4.48782 305.641 4.20579 305.921 3.8334 305.921H0.654417C0.279291 305.921 0 305.639 0 305.266V242.928C0 242.553 0.282029 242.273 0.654417 242.273H24.2928ZM35.3248 249.563C31.9596 247.132 28.2193 246.199 23.4522 246.199H4.48782V278.911H22.1406C26.7216 278.911 31.3025 278.443 34.8538 276.015C38.9693 273.211 41.4911 268.35 41.4911 262.555C41.4911 256.76 39.1527 252.273 35.3221 249.563H35.3248Z" fill="#443C36"/>
<path d="M96.7715 279.671L116.242 304.798C116.615 305.359 116.615 305.92 115.867 305.92H112.316C111.568 305.92 111.382 305.827 111.007 305.266L91.4458 279.764H74.9923V305.266C74.9923 305.641 74.713 305.92 74.3379 305.92H71.1616C70.7865 305.92 70.5072 305.641 70.5072 305.266V242.963C70.5072 242.588 70.7865 242.309 71.1616 242.309H93.6911C99.7643 242.309 104.529 242.87 108.921 245.673C113.499 248.476 116.489 253.425 116.489 261.087C116.489 268.749 113.406 273.23 108.921 276.219C105.276 278.65 101.725 279.491 96.7742 279.677L96.7715 279.671ZM74.9923 246.138V275.937H92.4753C97.7079 275.937 101.911 275.658 105.462 273.602C109.2 271.361 111.908 267.531 111.908 261.087C111.908 254.643 109.293 250.718 105.649 248.569C102.004 246.513 97.8941 246.141 92.8477 246.141H74.9923V246.138Z" fill="#443C36"/>
<path d="M186.991 305.921C186.991 305.642 186.648 305.899 186.391 305.899H183.395C183.138 305.899 182.881 305.642 182.881 305.3V280.773H145.119V305.3C145.119 305.642 144.861 305.899 144.607 305.899H141.609C141.351 305.899 141.009 305.642 141.009 305.921V268.703C141.009 261.406 143.063 254.557 147.602 249.506C151.285 245.312 156.764 242.572 163.957 242.572C171.15 242.572 176.714 245.312 180.397 249.506C184.934 254.557 186.991 261.406 186.991 268.703V305.921ZM150.343 252.334C146.833 256.443 145.122 262.177 145.122 268.085V277.094H182.883V268.085C182.883 262.177 181.172 256.443 177.662 252.334C174.494 248.824 169.869 246.342 163.963 246.342C158.057 246.342 153.517 248.737 150.349 252.334H150.343Z" fill="#443C36"/>
<path d="M328 305.921C328 305.642 327.657 305.899 327.4 305.899H324.404C324.147 305.899 323.89 305.642 323.89 305.3V280.773H286.128V305.3C286.128 305.642 285.87 305.899 285.616 305.899H282.618C282.36 305.899 282.018 305.642 282.018 305.921V268.703C282.018 261.406 284.071 254.557 288.611 249.506C292.294 245.312 297.773 242.572 304.966 242.572C312.159 242.572 317.723 245.312 321.406 249.506C325.943 254.557 328 261.406 328 268.703V305.921ZM291.352 252.334C287.842 256.443 286.131 262.177 286.131 268.085V277.094H323.892V268.085C323.892 262.177 322.181 256.443 318.671 252.334C315.503 248.824 310.878 246.342 304.972 246.342C299.066 246.342 294.526 248.737 291.358 252.334H291.352Z" fill="#443C36"/>
<path d="M253.125 298.042V242.922C253.125 242.582 253.399 242.309 253.738 242.309H256.884C257.224 242.309 257.498 242.582 257.498 242.922V305.31C257.498 305.649 257.224 305.923 256.884 305.923H253.226L253.125 305.772L215.886 249.982V305.288C215.886 305.627 215.612 305.901 215.273 305.901H212.127C211.787 305.901 211.513 305.627 211.513 305.288V242.922C211.513 242.582 211.787 242.309 212.127 242.309H215.558C215.763 242.309 215.955 242.41 216.067 242.582L253.122 298.045L253.125 298.042Z" fill="#443C36"/>
<path d="M297.59 56.3879C297.551 56.3824 297.513 56.3797 297.478 56.3797C292.949 56.2401 288.83 56.8369 284.866 57.6307C273.653 60.0725 263.207 64.4249 253.065 69.563C252.613 69.7902 252.41 70.3267 252.594 70.7976C252.616 70.8523 252.638 70.9071 252.657 70.9618C252.829 71.408 253.3 71.6653 253.771 71.5668C265.247 69.1633 277.519 66.9269 289.173 68.2956C289.671 68.3531 290.046 68.7856 290.041 69.2865C289.931 80.6002 288.491 92.1219 286.199 103.162C279.43 136.396 261.567 168.544 232.408 186.984C226.937 190.682 220.99 193.608 214.966 196.384C214.495 196.6 214.274 197.145 214.462 197.629C214.657 198.133 215.224 198.385 215.727 198.193C222.003 195.803 228.263 193.228 234.117 189.822C272.604 168.922 294.23 126.638 300.982 84.5886C302.455 75.859 303.228 67.0172 303.269 58.0276C303.269 57.5349 302.904 57.1133 302.414 57.0476L297.592 56.3961L297.59 56.3879Z" fill="#443C36"/>
<path d="M41.8033 103.157C39.5087 92.1168 38.0712 80.5979 37.9617 69.2815C37.9562 68.7806 38.3313 68.3508 38.8297 68.2906C50.4805 66.9219 62.7583 69.1583 74.2284 71.5645C74.6993 71.663 75.1676 71.4085 75.3428 70.9595L75.4085 70.7898C75.5892 70.3217 75.3894 69.7879 74.943 69.558C71.8024 67.9347 68.6152 66.4538 65.365 65.0385C54.218 60.3768 42.9971 56.2077 30.5331 56.3802C30.4893 56.3802 30.4482 56.3829 30.4044 56.3884C29.9499 56.4513 27.0529 56.8401 25.5825 57.0399C25.0924 57.1056 24.7282 57.5271 24.7282 58.0199C24.7665 66.9985 25.5469 75.8567 27.0173 84.5808C33.7696 126.633 55.3899 168.909 93.8828 189.814C99.7369 193.22 105.999 195.793 112.272 198.185C112.776 198.377 113.34 198.125 113.537 197.621C113.723 197.14 113.504 196.595 113.033 196.376C107.009 193.6 101.062 190.677 95.5914 186.976C66.4329 168.539 48.5692 136.386 41.8005 103.154L41.8033 103.157Z" fill="#443C36"/>
<path d="M228.416 36.0219C228.619 36.0548 228.805 36.1478 228.95 36.2929C229.662 36.9992 230.401 37.8614 231.069 38.7456C235.458 44.6091 238.761 51.4635 241.704 58.3043C241.89 58.7368 242.356 58.975 242.816 58.8737L243.884 58.6383C244.36 58.5342 244.689 58.0935 244.653 57.6063C244.275 52.4736 243.656 47.393 242.646 42.2194C241.192 35.9234 240.324 30.7059 235.782 24.9957C235.782 24.9957 235.086 24.1142 234.673 23.5859C234.481 23.3423 234.185 23.2027 233.876 23.2082C224.071 23.4463 214.566 27.0706 206.412 32.2799C204.219 33.665 202.196 35.2719 200.26 36.9198C199.885 37.24 199.808 37.7875 200.076 38.2009C200.265 38.491 200.481 38.8223 200.67 39.1069C200.928 39.5011 201.426 39.6517 201.864 39.471C210.191 36.052 219.547 34.5465 228.416 36.0192V36.0219Z" fill="#443C36"/>
<path d="M96.9303 38.7454C97.5984 37.8612 98.3377 36.9989 99.0496 36.2927C99.1948 36.1476 99.3809 36.0573 99.5836 36.0217C108.452 34.549 117.811 36.0545 126.135 39.4735C126.571 39.6515 127.069 39.5037 127.329 39.1095C127.515 38.8248 127.732 38.4936 127.921 38.2034C128.192 37.79 128.115 37.2398 127.74 36.9196C118.436 28.9921 106.492 23.5939 94.1292 23.2162C93.817 23.208 93.5186 23.3476 93.3242 23.5939L92.218 24.9982C89.4962 28.2174 88.505 31.0999 87.4947 33.9276C84.9756 41.6908 83.9789 49.6375 83.3519 57.606C83.3135 58.0933 83.6421 58.5368 84.1213 58.6408L85.1864 58.8762C85.6464 58.9775 86.1119 58.7393 86.2981 58.3068C89.2416 51.4661 92.5438 44.6144 96.933 38.7481L96.9303 38.7454Z" fill="#443C36"/>
<path d="M106.807 84.6219C87.0156 77.8085 74.3243 93.1488 80.5946 112.155C83.3848 121.714 90.0878 132.543 101.279 132.559C110.479 132.781 114.934 124.084 112.256 115.979C111.59 113.567 110.583 111.29 109.414 109.119L108.792 109.436C110.816 113.764 112.36 118.678 111.322 123.216C109.709 130.741 100.69 131.924 94.9178 128.338C88.8912 124.812 86.0134 117.701 84.2884 111.164C80.1729 96.1326 88.8474 84.0224 104.698 90.4224C117.549 95.6317 126.327 107.767 131.962 120.093C142.95 145.863 143.692 175.35 140.96 202.948C140.905 203.49 141.302 203.969 141.847 204.019L153.008 205.015C153.561 205.064 154.048 204.646 154.078 204.093C155.195 184.326 153.925 164.461 149.634 145.129C144.306 120.892 131.771 93.8195 106.807 84.6246V84.6219Z" fill="#443C36"/>
<path d="M235.738 89.2504C251.395 94.2051 244.281 121.891 233.142 128.444C227.304 132.082 218.175 130.851 216.546 123.243C215.497 118.647 217.053 113.712 219.082 109.367L218.723 109.184C217.557 111.347 216.552 113.613 215.889 116.011C212.023 128.51 223.099 136.224 234.267 130.571C246.422 124.158 254.133 100.26 244.456 89.1436C234.303 77.934 217.406 84.3121 207.483 92.2834C176.657 118.198 172.377 166.24 173.941 204.079C173.963 204.637 174.453 205.061 175.009 205.012L186.145 204.018C186.692 203.969 187.089 203.482 187.029 202.937C184.975 184.408 185.162 165.49 188.223 147.064C191.183 128.718 197.943 110.241 211.823 97.5228C218.208 92.0535 227.324 86.7895 235.735 89.2504H235.738Z" fill="#443C36"/>
<path d="M196.604 63.689C199.583 70.1246 201.968 76.8285 204.249 83.6062L204.627 83.5159C204.841 83.4639 202.694 73.4587 202.491 72.5444C201.673 68.8654 200.75 65.211 199.726 61.5839C197.675 54.3353 195.2 47.2016 192.272 40.2569C189.348 33.3176 185.969 26.5672 182.117 20.096C180.186 16.8549 178.138 13.6823 175.972 10.5917C173.856 7.57513 171.758 4.50103 169.015 2.00727C168.336 1.38862 167.547 0.542762 166.723 0.126678C166.227 -0.122425 166.142 0.022657 165.652 0.329245C165.255 0.578348 164.864 0.830188 164.475 1.09024C163.002 2.07297 161.583 3.13507 160.223 4.26835C157.558 6.48838 155.124 8.97667 152.903 11.6402C149.04 16.2773 145.839 21.4236 142.967 26.7205C138.235 35.4035 134.366 44.4287 131.119 53.7084L131.469 53.8699C134.008 49.7337 136.754 45.7289 139.591 41.8309C146.611 32.5812 154.653 22.1928 164.721 16.187C178.171 29.6933 188.768 46.301 196.604 63.6862V63.689Z" fill="#443C36"/>
<path d="M1.13911 325.246C1.8976 323.872 2.93538 322.802 4.25247 322.033C5.56955 321.266 7.0345 320.883 8.65553 320.883C10.6298 320.883 12.3193 321.351 13.7294 322.287C15.1369 323.223 16.1637 324.543 16.8045 326.246H14.7289C14.2223 325.049 13.4502 324.113 12.4124 323.437C11.3746 322.763 10.1232 322.424 8.65553 322.424C7.35761 322.424 6.18839 322.728 5.1506 323.336C4.11282 323.943 3.29956 324.817 2.70811 325.953C2.11665 327.091 1.82366 328.411 1.82366 329.911C1.82366 331.411 2.11939 332.728 2.70811 333.858C3.29956 334.989 4.11282 335.857 5.1506 336.465C6.18839 337.072 7.35487 337.376 8.65553 337.376C10.1232 337.376 11.3746 337.042 12.4124 336.377C13.4502 335.712 14.2223 334.786 14.7289 333.607H16.8045C16.1637 335.293 15.1342 336.601 13.7185 337.527C12.3028 338.455 10.6134 338.917 8.65826 338.917C7.03997 338.917 5.57229 338.534 4.2552 337.768C2.93812 337.001 1.90307 335.933 1.14185 334.567C0.383359 333.201 0.00274658 331.649 0.00274658 329.914C0.00274658 328.178 0.383359 326.621 1.14185 325.246H1.13911Z" fill="#443C36"/>
<path d="M26.6559 338.096C25.6181 337.513 24.7994 336.689 24.2025 335.616C23.6028 334.546 23.3043 333.292 23.3043 331.86C23.3043 330.429 23.6083 329.175 24.2161 328.104C24.824 327.034 25.651 326.207 26.697 325.624C27.743 325.041 28.9149 324.751 30.2156 324.751C31.5162 324.751 32.6909 325.041 33.7452 325.624C34.7994 326.205 35.6263 327.031 36.226 328.104C36.8257 329.175 37.1241 330.429 37.1241 331.86C37.1241 333.292 36.8202 334.524 36.2123 335.605C35.6044 336.684 34.7693 337.516 33.7068 338.096C32.6444 338.676 31.4642 338.969 30.1636 338.969C28.8629 338.969 27.6964 338.679 26.6586 338.096H26.6559ZM32.6909 336.807C33.4659 336.393 34.0956 335.769 34.5748 334.934C35.0568 334.099 35.295 333.076 35.295 331.86C35.295 330.645 35.0595 329.621 34.5858 328.786C34.1121 327.951 33.4878 327.327 32.7128 326.914C31.9379 326.5 31.0946 326.295 30.1827 326.295C29.2709 326.295 28.4275 326.503 27.6526 326.914C26.8777 327.327 26.2561 327.951 25.7934 328.786C25.3279 329.621 25.0979 330.645 25.0979 331.86C25.0979 333.076 25.3306 334.099 25.7934 334.934C26.2561 335.769 26.8722 336.393 27.6417 336.807C28.4084 337.22 29.249 337.425 30.1581 337.425C31.0672 337.425 31.9133 337.22 32.6882 336.807H32.6909Z" fill="#443C36"/>
<path d="M64.5606 326.232C65.582 327.253 66.0913 328.731 66.0913 330.672V338.767H64.3443V330.875C64.3443 329.375 63.9801 328.228 63.2572 327.434C62.5316 326.643 61.5458 326.246 60.2972 326.246C59.0486 326.246 57.9615 326.676 57.1838 327.535C56.4089 328.395 56.0201 329.643 56.0201 331.28V338.767H54.2731V330.875C54.2731 329.375 53.9089 328.228 53.186 327.434C52.4604 326.643 51.4664 326.246 50.2014 326.246C48.9363 326.246 47.8657 326.676 47.088 327.535C46.3131 328.395 45.9243 329.643 45.9243 331.28V338.767H44.1526V324.954H45.9243V327.333C46.3624 326.473 46.9867 325.819 47.7972 325.373C48.6077 324.926 49.5086 324.702 50.5053 324.702C51.7019 324.702 52.7534 324.989 53.6543 325.562C54.5551 326.134 55.2096 326.98 55.6148 328.091C55.9845 326.996 56.6225 326.156 57.5261 325.572C58.4297 324.992 59.4538 324.699 60.6011 324.699C62.2194 324.699 63.5393 325.208 64.5606 326.229V326.232Z" fill="#443C36"/>
<path d="M85.7782 324.956V338.769H84.0066V336.341C83.6013 337.201 82.977 337.861 82.1336 338.315C81.2902 338.769 80.3456 338.999 79.2996 338.999C77.6457 338.999 76.2957 338.49 75.2497 337.469C74.2037 336.448 73.6807 334.97 73.6807 333.029V324.959H75.4277V332.826C75.4277 334.326 75.8028 335.473 76.5531 336.267C77.3034 337.061 78.3275 337.455 79.6281 337.455C80.9288 337.455 82.0241 337.034 82.8154 336.191C83.6068 335.348 84.0038 334.107 84.0038 332.473V324.959H85.7754L85.7782 324.956Z" fill="#443C36"/>
<path d="M104.148 326.232C105.194 327.253 105.717 328.731 105.717 330.672V338.767H103.97V330.875C103.97 329.375 103.595 328.228 102.845 327.434C102.095 326.643 101.071 326.246 99.77 326.246C98.4693 326.246 97.374 326.667 96.5827 327.511C95.7886 328.354 95.3943 329.594 95.3943 331.228V338.767H93.6227V324.954H95.3943V327.305C95.8324 326.462 96.465 325.816 97.2919 325.37C98.1188 324.924 99.0553 324.699 100.101 324.699C101.755 324.699 103.102 325.208 104.151 326.229L104.148 326.232Z" fill="#443C36"/>
<path d="M113.409 321.97C113.157 321.718 113.028 321.406 113.028 321.033C113.028 320.661 113.154 320.355 113.409 320.111C113.66 319.867 113.964 319.744 114.32 319.744C114.676 319.744 114.978 319.867 115.232 320.111C115.484 320.355 115.613 320.664 115.613 321.033C115.613 321.403 115.487 321.718 115.232 321.97C114.978 322.222 114.676 322.35 114.32 322.35C113.964 322.35 113.663 322.224 113.409 321.97ZM115.205 324.954V338.767H113.433V324.954H115.205Z" fill="#443C36"/>
<path d="M123.074 328.105C123.646 327.035 124.435 326.208 125.44 325.625C126.442 325.042 127.579 324.752 128.844 324.752C130.109 324.752 131.155 325.047 132.132 325.636C133.11 326.227 133.827 326.994 134.282 327.938V320.046H136.053V338.765H134.282V335.68C133.86 336.64 133.167 337.429 132.206 338.045C131.245 338.661 130.114 338.967 128.816 338.967C127.518 338.967 126.418 338.672 125.413 338.083C124.408 337.492 123.625 336.657 123.06 335.578C122.496 334.5 122.212 333.251 122.212 331.833C122.212 330.415 122.499 329.173 123.071 328.102L123.074 328.105ZM133.6 328.926C133.145 328.083 132.524 327.434 131.741 326.977C130.957 326.523 130.092 326.293 129.148 326.293C128.203 326.293 127.291 326.512 126.516 326.95C125.741 327.388 125.128 328.026 124.681 328.861C124.235 329.695 124.011 330.686 124.011 331.833C124.011 332.98 124.235 333.955 124.681 334.806C125.128 335.658 125.741 336.306 126.516 336.755C127.291 337.202 128.17 337.426 129.148 337.426C130.125 337.426 130.957 337.199 131.741 336.742C132.524 336.287 133.145 335.639 133.6 334.793C134.054 333.95 134.282 332.972 134.282 331.858C134.282 330.744 134.054 329.767 133.6 328.923V328.926Z" fill="#443C36"/>
<path d="M143.936 328.104C144.5 327.034 145.286 326.207 146.288 325.624C147.29 325.041 148.427 324.751 149.692 324.751C150.957 324.751 152.143 325.055 153.095 325.663C154.048 326.27 154.736 327.045 155.157 327.989V324.954H156.929V338.767H155.157V335.706C154.719 336.651 154.024 337.431 153.071 338.047C152.118 338.663 150.984 338.969 149.667 338.969C148.35 338.969 147.293 338.674 146.288 338.085C145.283 337.494 144.5 336.659 143.936 335.58C143.372 334.502 143.087 333.254 143.087 331.836C143.087 330.418 143.369 329.175 143.936 328.104ZM154.476 328.926C154.021 328.082 153.399 327.434 152.616 326.977C151.833 326.522 150.968 326.292 150.023 326.292C149.079 326.292 148.167 326.511 147.392 326.949C146.617 327.387 146.003 328.025 145.557 328.86C145.111 329.695 144.886 330.686 144.886 331.833C144.886 332.98 145.111 333.954 145.557 334.806C146.003 335.657 146.617 336.306 147.392 336.755C148.167 337.201 149.046 337.425 150.023 337.425C151.001 337.425 151.833 337.198 152.616 336.741C153.399 336.287 154.021 335.638 154.476 334.792C154.93 333.949 155.157 332.972 155.157 331.857C155.157 330.743 154.93 329.766 154.476 328.923V328.926Z" fill="#443C36"/>
<path d="M164.823 328.105C165.395 327.035 166.184 326.208 167.188 325.625C168.191 325.042 169.327 324.752 170.592 324.752C171.857 324.752 172.903 325.047 173.881 325.636C174.858 326.227 175.576 326.994 176.03 327.938V320.046H177.802V338.765H176.03V335.68C175.608 336.64 174.916 337.429 173.955 338.045C172.993 338.661 171.863 338.967 170.565 338.967C169.267 338.967 168.166 338.672 167.161 338.083C166.156 337.492 165.373 336.657 164.809 335.578C164.245 334.5 163.96 333.251 163.96 331.833C163.96 330.415 164.248 329.173 164.82 328.102L164.823 328.105ZM175.348 328.926C174.894 328.083 174.272 327.434 173.489 326.977C172.706 326.523 171.841 326.293 170.896 326.293C169.951 326.293 169.039 326.512 168.265 326.95C167.49 327.388 166.876 328.026 166.43 328.861C165.984 329.695 165.759 330.686 165.759 331.833C165.759 332.98 165.984 333.955 166.43 334.806C166.876 335.658 167.49 336.306 168.265 336.755C169.039 337.202 169.918 337.426 170.896 337.426C171.874 337.426 172.706 337.199 173.489 336.742C174.272 336.287 174.894 335.639 175.348 334.793C175.803 333.95 176.03 332.972 176.03 331.858C176.03 330.744 175.803 329.767 175.348 328.923V328.926Z" fill="#443C36"/>
<path d="M209.507 321.086V338.767H207.735V330.495H198.146V338.767H196.374V321.086H198.146V329.03H207.735V321.086H209.507Z" fill="#443C36"/>
<path d="M219.895 338.096C218.857 337.513 218.039 336.689 217.442 335.616C216.842 334.546 216.543 333.292 216.543 331.86C216.543 330.429 216.847 329.175 217.455 328.104C218.063 327.034 218.89 326.207 219.936 325.624C220.982 325.041 222.154 324.751 223.455 324.751C224.755 324.751 225.93 325.041 226.984 325.624C228.038 326.205 228.865 327.031 229.465 328.104C230.065 329.175 230.363 330.429 230.363 331.86C230.363 333.292 230.059 334.524 229.451 335.605C228.844 336.684 228.008 337.516 226.946 338.096C225.884 338.676 224.703 338.969 223.403 338.969C222.102 338.969 220.936 338.679 219.898 338.096H219.895ZM225.93 336.807C226.705 336.393 227.335 335.769 227.814 334.934C228.296 334.099 228.534 333.076 228.534 331.86C228.534 330.645 228.299 329.621 227.825 328.786C227.351 327.951 226.727 327.327 225.952 326.914C225.177 326.5 224.334 326.295 223.422 326.295C222.51 326.295 221.667 326.503 220.892 326.914C220.117 327.327 219.495 327.951 219.032 328.786C218.567 329.621 218.337 330.645 218.337 331.86C218.337 333.076 218.57 334.099 219.032 334.934C219.495 335.769 220.111 336.393 220.881 336.807C221.647 337.22 222.488 337.425 223.397 337.425C224.306 337.425 225.152 337.22 225.927 336.807H225.93Z" fill="#443C36"/>
<path d="M239.163 320.048V338.767H237.392V320.048H239.163Z" fill="#443C36"/>
<path d="M250.195 320.883L245.009 323.894V322.528L250.195 319.29V320.883ZM248.752 324.957V338.77H246.981V324.957H248.752Z" fill="#443C36"/>
<path d="M257.443 337.869C256.438 337.135 255.877 336.136 255.759 334.871H257.58C257.665 335.646 258.032 336.276 258.681 336.755C259.33 337.237 260.203 337.475 261.299 337.475C262.26 337.475 263.015 337.248 263.563 336.793C264.111 336.339 264.384 335.772 264.384 335.099C264.384 334.628 264.234 334.239 263.93 333.935C263.626 333.631 263.243 333.39 262.78 333.215C262.314 333.037 261.687 332.848 260.896 332.646C259.866 332.378 259.031 332.107 258.391 331.836C257.75 331.567 257.205 331.165 256.759 330.634C256.312 330.103 256.088 329.391 256.088 328.496C256.088 327.822 256.29 327.198 256.696 326.623C257.101 326.051 257.673 325.594 258.415 325.257C259.157 324.921 260.001 324.751 260.945 324.751C262.429 324.751 263.629 325.126 264.538 325.876C265.45 326.626 265.937 327.661 266.006 328.975H264.234C264.185 328.165 263.867 327.513 263.284 327.015C262.7 326.517 261.904 326.268 260.893 326.268C259.998 326.268 259.275 326.478 258.716 326.9C258.161 327.321 257.881 327.844 257.881 328.468C257.881 329.008 258.046 329.451 258.374 329.796C258.703 330.141 259.111 330.412 259.601 330.606C260.091 330.801 260.748 331.014 261.575 331.252C262.569 331.523 263.363 331.784 263.955 332.038C264.546 332.29 265.05 332.662 265.472 333.152C265.893 333.642 266.112 334.291 266.129 335.101C266.129 335.843 265.926 336.506 265.521 337.086C265.116 337.666 264.552 338.126 263.826 338.466C263.1 338.802 262.265 338.972 261.32 338.972C259.735 338.972 258.44 338.605 257.438 337.872L257.443 337.869Z" fill="#443C36"/>
<path d="M275.573 326.449V335.025C275.573 335.868 275.731 336.451 276.054 336.772C276.375 337.092 276.939 337.254 277.749 337.254H279.368V338.77H277.47C276.221 338.77 275.293 338.48 274.688 337.897C274.08 337.317 273.776 336.358 273.776 335.025V326.449H271.854V324.957H273.776V321.491H275.573V324.957H279.368V326.449H275.573Z" fill="#443C36"/>
<path d="M286.048 321.97C285.797 321.718 285.668 321.406 285.668 321.033C285.668 320.661 285.794 320.355 286.048 320.111C286.3 319.867 286.604 319.744 286.96 319.744C287.316 319.744 287.617 319.867 287.872 320.111C288.124 320.355 288.253 320.664 288.253 321.033C288.253 321.403 288.127 321.718 287.872 321.97C287.617 322.222 287.316 322.35 286.96 322.35C286.604 322.35 286.303 322.224 286.048 321.97ZM287.845 324.954V338.767H286.073V324.954H287.845Z" fill="#443C36"/>
<path d="M295.714 328.104C296.286 327.034 297.081 326.207 298.094 325.624C299.107 325.041 300.262 324.751 301.56 324.751C303.263 324.751 304.668 325.173 305.774 326.016C306.878 326.859 307.593 328.006 307.913 329.457H306.015C305.78 328.463 305.268 327.683 304.485 327.116C303.702 326.552 302.727 326.268 301.563 326.268C300.635 326.268 299.8 326.478 299.058 326.9C298.315 327.321 297.729 327.948 297.3 328.783C296.87 329.618 296.653 330.642 296.653 331.857C296.653 333.073 296.87 334.099 297.3 334.943C297.729 335.786 298.315 336.418 299.058 336.84C299.8 337.261 300.635 337.472 301.563 337.472C302.727 337.472 303.702 337.19 304.485 336.626C305.268 336.062 305.78 335.274 306.015 334.261H307.913C307.593 335.679 306.875 336.815 305.763 337.675C304.649 338.534 303.25 338.964 301.563 338.964C300.265 338.964 299.11 338.674 298.096 338.091C297.083 337.508 296.292 336.684 295.717 335.611C295.142 334.54 294.857 333.286 294.857 331.855C294.857 330.423 295.145 329.169 295.717 328.099L295.714 328.104Z" fill="#443C36"/>
<path d="M315.007 328.104C315.571 327.034 316.357 326.207 317.359 325.624C318.361 325.041 319.498 324.751 320.763 324.751C322.028 324.751 323.214 325.055 324.166 325.663C325.119 326.27 325.807 327.045 326.228 327.989V324.954H328V338.767H326.228V335.706C325.79 336.651 325.095 337.431 324.142 338.047C323.189 338.663 322.055 338.969 320.738 338.969C319.421 338.969 318.364 338.674 317.359 338.085C316.354 337.494 315.571 336.659 315.007 335.58C314.443 334.502 314.158 333.254 314.158 331.836C314.158 330.418 314.44 329.175 315.007 328.104ZM325.547 328.926C325.092 328.082 324.47 327.434 323.687 326.977C322.904 326.522 322.039 326.292 321.094 326.292C320.15 326.292 319.238 326.511 318.463 326.949C317.688 327.387 317.074 328.025 316.628 328.86C316.182 329.695 315.957 330.686 315.957 331.833C315.957 332.98 316.182 333.954 316.628 334.806C317.074 335.657 317.688 336.306 318.463 336.755C319.238 337.201 320.117 337.425 321.094 337.425C322.072 337.425 322.904 337.198 323.687 336.741C324.47 336.287 325.092 335.638 325.547 334.792C326.001 333.949 326.228 332.972 326.228 331.857C326.228 330.743 326.001 329.766 325.547 328.923V328.926Z" fill="#443C36"/>
</svg>
