<svg width="120" height="103" viewBox="0 0 120 103" fill="none" xmlns="http://www.w3.org/2000/svg">
<path fill-rule="evenodd" clip-rule="evenodd" d="M75.8835 17.2829L82.7585 0.176392L85.5421 1.2951L78.6671 18.4017L75.8835 17.2829ZM58.2528 3.09619V14.2645H61.2528V3.09619H58.2528ZM59.6039 27.2931C55.3964 27.2931 51.9827 30.7081 51.9827 34.924C51.9827 39.14 55.3964 42.555 59.6039 42.555C63.8114 42.555 67.225 39.14 67.225 34.924C67.225 30.7081 63.8114 27.2931 59.6039 27.2931ZM48.9827 34.924C48.9827 29.0542 53.7365 24.2931 59.6039 24.2931C65.4713 24.2931 70.225 29.0542 70.225 34.924C70.225 40.7938 65.4713 45.555 59.6039 45.555C53.7365 45.555 48.9827 40.7938 48.9827 34.924ZM59.6087 46.5552H60.6663C69.1819 46.3632 74.1262 52.3196 76.8514 57.8612C78.2267 60.6578 79.0947 63.4494 79.6189 65.5309C79.8413 66.4139 80.0033 67.1748 80.1165 67.7613H91.1246C93.9796 67.7613 95.8511 70.4217 95.8511 73.1125C95.8511 75.8073 93.9639 78.4636 91.1246 78.4636H84.2644C85.6114 79.0691 86.7226 80.1969 87.2708 81.6889L88.012 83.7062H87.6065C87.5791 85.9945 86.1552 88.1329 83.8868 88.9682L77.1108 91.4492C78.3651 92.9123 78.8449 94.9805 78.1901 96.9404C77.2098 99.912 73.9898 101.534 71.0163 100.536L71.0152 100.536L61.2225 97.2683L49.1148 101.702L49.1133 101.702C46.17 102.785 42.9173 101.259 41.8399 98.327C40.8981 95.7638 41.9301 92.9632 44.1486 91.5696L36.4986 89.0224L36.4964 89.0217C33.5257 88.0403 31.9084 84.8182 32.9017 81.8454C33.4168 80.2842 34.5502 79.0956 35.9412 78.4636H29.1504C26.2954 78.4636 24.4239 75.8033 24.4239 73.1125C24.4239 70.4176 26.3111 67.7613 29.1504 67.7613H40.1585C40.2717 67.1748 40.4336 66.4139 40.6561 65.5309C41.1803 63.4494 42.0483 60.6578 43.4236 57.8612C46.1488 52.3196 51.0931 46.3632 59.6087 46.5552ZM78.6923 78.4636H79.5867L71.3047 81.492V73.6237C72.046 74.5831 72.8595 75.3662 73.6695 75.9993C74.8873 76.9513 76.0786 77.5518 76.9696 77.9161C77.4164 78.0988 77.7916 78.2237 78.0626 78.3046C78.1983 78.345 78.3082 78.3746 78.3885 78.395L78.4296 78.4053C78.4516 78.4107 78.4705 78.4152 78.4863 78.4189L78.5176 78.4261L78.5287 78.4285L78.5331 78.4295L78.535 78.4299C78.5359 78.4301 78.5367 78.4303 78.8513 76.9636L78.5367 78.4303L78.6923 78.4636ZM68.3047 65.1617V82.5889L61.0575 85.2389L51.9703 82.2119V65.1617L48.9741 65.056C48.6535 69.5942 46.6337 72.1694 44.7579 73.6358C43.8025 74.3827 42.8647 74.8552 42.1701 75.1392C41.8239 75.2807 41.5422 75.3738 41.3544 75.4299C41.3097 75.4432 41.2705 75.4544 41.2371 75.4636H29.1504C28.4315 75.4636 27.4239 74.6703 27.4239 73.1125C27.4239 71.5587 28.4406 70.7613 29.1504 70.7613H42.7375L42.9104 69.46L42.9106 69.459L42.9116 69.4516L42.9169 69.4139C42.922 69.3788 42.9301 69.3242 42.9415 69.2514C42.9643 69.1057 43.0004 68.8872 43.052 68.6066C43.1552 68.0448 43.3203 67.2359 43.5652 66.2636C44.0566 64.3126 44.8616 61.7351 46.1157 59.1851C48.6471 54.0375 52.7816 49.3953 59.5562 49.5548L59.5738 49.5552H60.7012L60.7188 49.5548C67.4934 49.3953 71.6279 54.0375 74.1593 59.1851C75.4134 61.7351 76.2184 64.3126 76.7098 66.2636C76.9547 67.2359 77.1198 68.0448 77.223 68.6066C77.2746 68.8872 77.3107 69.1057 77.3335 69.2514C77.3449 69.3242 77.353 69.3788 77.3581 69.4139L77.3634 69.4516L77.3644 69.459L77.3646 69.46L77.5375 70.7613H91.1246C91.8435 70.7613 92.8511 71.5546 92.8511 73.1125C92.8511 74.6663 91.8344 75.4636 91.1246 75.4636H79.0379C79.0045 75.4544 78.9653 75.4432 78.9206 75.4299C78.7328 75.3738 78.4511 75.2807 78.1049 75.1392C77.4103 74.8552 76.4725 74.3827 75.5171 73.6358C73.6413 72.1694 71.6215 69.5942 71.3009 65.056L68.3047 65.1617ZM59.6038 87.9167L60.6066 88.2508L73.3613 92.4986L73.3554 92.5171L73.6588 92.6143C75.0502 93.0767 75.8118 94.595 75.3441 95.9915L75.3417 95.9988C74.8813 97.3975 73.3628 98.1594 71.9696 97.6919L65.7414 95.6136L65.7628 95.6058L48.9711 90.0134L48.4755 89.8484L37.4424 86.1747L37.4385 86.1734C36.0436 85.7132 35.2794 84.1928 35.7477 82.7944L35.7501 82.7871C36.2105 81.3884 37.729 80.6265 39.1222 81.094L39.1254 81.0951L56.5323 86.8936L56.532 86.8937L59.6038 87.9167ZM40.7182 78.4636L48.9703 81.2125V73.6237C48.229 74.5831 47.4155 75.3662 46.6055 75.9993C45.3877 76.9513 44.1964 77.5518 43.3054 77.9161C42.8586 78.0988 42.4834 78.2237 42.2124 78.3046C42.0767 78.345 41.9668 78.3746 41.8865 78.395C41.8464 78.4052 41.8136 78.4131 41.7887 78.4189L41.7574 78.4261L41.7463 78.4285L41.7419 78.4295L41.74 78.4299C41.7391 78.4301 41.7383 78.4303 41.4236 76.9636L41.7383 78.4303L41.5827 78.4636H40.7182ZM47.2298 93.4935L48.5188 93.0248L56.6715 95.74L48.0782 98.8866C46.7033 99.3929 45.1667 98.6826 44.6558 97.2923C44.1488 95.9124 44.8613 94.3735 46.2481 93.8629L47.2298 93.5014V93.4935ZM84.357 82.491C83.7682 81.2557 82.3285 80.652 81.0325 81.1292L81.0294 81.1304L65.6293 86.7615L73.7771 89.475L82.8502 86.1529L82.8513 86.1525C84.2373 85.6415 84.9493 84.103 84.4425 82.7235L84.357 82.491ZM98.8644 18.6063L91.1331 26.6813L93.3001 28.756L101.031 20.681L98.8644 18.6063ZM101.773 41.0313L116.912 34.3229L118.128 37.0657L102.988 43.7741L101.773 41.0313ZM117.52 60.1584H106.351V63.1584H117.52V60.1584ZM103.476 77.7224L119.137 84.0582L118.012 86.8392L102.351 80.5035L103.476 77.7224ZM101.871 100.772L93.4945 93.3804L91.5096 95.6298L99.8861 103.022L101.871 100.772ZM40.8261 18.4017L33.9511 1.2951L36.7347 0.176392L43.6097 17.2829L40.8261 18.4017ZM18.4618 20.681L26.1931 28.756L28.36 26.6813L20.6288 18.6063L18.4618 20.681ZM15.2662 44.4582L0.635117 37.9982L1.84684 35.2538L16.4779 41.7138L15.2662 44.4582ZM1.97314 63.1584H13.1419V60.1584H1.97314V63.1584ZM17.1401 80.509L1.00749 86.8448L-0.0891571 84.0524L16.0435 77.7167L17.1401 80.509ZM19.6071 103.022L27.9836 95.6298L25.9987 93.3804L17.6221 100.772L19.6071 103.022Z" fill="#443C36"/>
</svg>
