<svg width="97" height="112" viewBox="0 0 97 112" fill="none" xmlns="http://www.w3.org/2000/svg">
<g clip-path="url(#clip0_194_1697)">
<path fill-rule="evenodd" clip-rule="evenodd" d="M5.22763 2.95435C3.97646 2.95435 2.94409 3.97872 2.94409 5.26476V106.735C2.94409 108.021 3.97646 109.046 5.22763 109.046H40.969C42.2202 109.046 43.2526 108.021 43.2526 106.735V5.26476C43.2526 3.97872 42.2202 2.95435 40.969 2.95435H5.22763ZM-0.0559082 5.26476C-0.0559082 2.34193 2.29962 -0.0456543 5.22763 -0.0456543H40.969C43.897 -0.0456543 46.2526 2.34193 46.2526 5.26476V106.735C46.2526 109.658 43.897 112.046 40.969 112.046H5.22763C2.29961 112.046 -0.0559082 109.658 -0.0559082 106.735V5.26476Z" fill="white"/>
<path fill-rule="evenodd" clip-rule="evenodd" d="M56.6086 28.8953C55.334 28.8953 54.2861 29.9368 54.2861 31.2397V107.688C54.2861 108.991 55.334 110.033 56.6086 110.033H92.7185C93.9931 110.033 95.041 108.991 95.041 107.688V31.2397C95.041 29.9368 93.9931 28.8953 92.7185 28.8953H56.6086ZM51.2861 31.2397C51.2861 28.2961 53.661 25.8953 56.6086 25.8953H92.7185C95.6661 25.8953 98.041 28.2961 98.041 31.2397V107.688C98.041 110.632 95.6661 113.033 92.7185 113.033H56.6086C53.661 113.033 51.2861 110.632 51.2861 107.688V31.2397Z" fill="white"/>
<path fill-rule="evenodd" clip-rule="evenodd" d="M11.5843 24.8601C10.3097 24.8601 9.26178 25.9017 9.26178 27.2045V36.2287C9.26178 37.5316 10.3097 38.5731 11.5843 38.5731H15.3923C16.6669 38.5731 17.7148 37.5316 17.7148 36.2287V27.2045C17.7148 25.9017 16.6669 24.8601 15.3923 24.8601H11.5843ZM6.26178 27.2045C6.26178 24.261 8.6367 21.8601 11.5843 21.8601H15.3923C18.3399 21.8601 20.7148 24.261 20.7148 27.2045V36.2287C20.7148 39.1723 18.3399 41.5731 15.3923 41.5731H11.5843C8.6367 41.5731 6.26178 39.1723 6.26178 36.2287V27.2045Z" fill="white"/>
<path fill-rule="evenodd" clip-rule="evenodd" d="M63.7284 46.1952C62.4538 46.1952 61.4059 47.2367 61.4059 48.5396V57.5638C61.4059 58.8667 62.4538 59.9082 63.7284 59.9082H67.5364C68.811 59.9082 69.8589 58.8667 69.8589 57.5638V48.5396C69.8589 47.2367 68.811 46.1952 67.5364 46.1952H63.7284ZM58.4059 48.5396C58.4059 45.5961 60.7808 43.1952 63.7284 43.1952H67.5364C70.484 43.1952 72.8589 45.5961 72.8589 48.5396V57.5638C72.8589 60.5073 70.484 62.9082 67.5364 62.9082H63.7284C60.7808 62.9082 58.4059 60.5073 58.4059 57.5638V48.5396Z" fill="white"/>
<path fill-rule="evenodd" clip-rule="evenodd" d="M81.4843 46.1952C80.2096 46.1952 79.1617 47.2367 79.1617 48.5396V57.5638C79.1617 58.8667 80.2096 59.9082 81.4843 59.9082H85.2922C86.5669 59.9082 87.6148 58.8667 87.6148 57.5638V48.5396C87.6148 47.2367 86.5669 46.1952 85.2922 46.1952H81.4843ZM76.1617 48.5396C76.1617 45.5961 78.5367 43.1952 81.4843 43.1952H85.2922C88.2399 43.1952 90.6148 45.5961 90.6148 48.5396V57.5638C90.6148 60.5073 88.2399 62.9082 85.2922 62.9082H81.4843C78.5367 62.9082 76.1617 60.5073 76.1617 57.5638V48.5396Z" fill="white"/>
<path fill-rule="evenodd" clip-rule="evenodd" d="M26.8747 49.2174C25.6235 49.2174 24.5911 50.2418 24.5911 51.5278V60.4721C24.5911 61.7581 25.6235 62.7825 26.8747 62.7825H30.6438C31.8949 62.7825 32.9273 61.7581 32.9273 60.4721V51.5278C32.9273 50.2418 31.8949 49.2174 30.6438 49.2174H26.8747ZM21.5911 51.5278C21.5911 48.605 23.9467 46.2174 26.8747 46.2174H30.6438C33.5718 46.2174 35.9273 48.605 35.9273 51.5278V60.4721C35.9273 63.3949 33.5718 65.7825 30.6438 65.7825H26.8747C23.9467 65.7825 21.5911 63.3949 21.5911 60.4721V51.5278Z" fill="white"/>
</g>
<defs>
<clipPath id="clip0_194_1697">
<rect width="97" height="112" fill="white"/>
</clipPath>
</defs>
</svg>
