<?xml version="1.0" encoding="utf-8"?>
<!-- Generator: Adobe Illustrator 27.4.1, SVG Export Plug-In . SVG Version: 6.00 Build 0)  -->
<svg version="1.1" id="Capa_1" xmlns="http://www.w3.org/2000/svg" xmlns:xlink="http://www.w3.org/1999/xlink" x="0px" y="0px"
	 viewBox="0 0 127 128" style="enable-background:new 0 0 127 128;" xml:space="preserve">
<style type="text/css">
	.st0{clip-path:url(#SVGID_00000150083129320019864140000007023644450248182186_);}
	.st1{fill:#443C36;}
</style>
<g>
	<defs>
		<rect id="SVGID_1_" x="0.6" y="0.5" width="125.4" height="127.3"/>
	</defs>
	<clipPath id="SVGID_00000046308468097367227570000005771998246168565123_">
		<use xlink:href="#SVGID_1_"  style="overflow:visible;"/>
	</clipPath>
	<g style="clip-path:url(#SVGID_00000046308468097367227570000005771998246168565123_);">
		<path class="st1" d="M123.9,68c-1.2-1.5-2.8-2.6-4.3-3.6c-0.8-0.5-1.5-1-2.2-1.6c-3.5-2.9-6.1-7.6-7.4-13.6
			c-0.8-3.4-1.1-7-1.5-10.4c-0.2-2-0.4-4-0.7-6.1c-1.9-13.6-9.1-23-21.5-27.9c-9.5-3.7-20.9-5-34.1-3.9c-16.3,1.4-28,9.1-37.2,16.4
			c-9,7.1-14.4,19.2-14.4,32.3C0.8,63,5.4,75,13.5,82.8c11.4,11,15.7,28.4,10.8,43.5l2.8,0.9c5.3-16.1,0.7-34.8-11.5-46.6
			C8.1,73.4,3.8,62.2,3.8,49.7C3.7,37.5,8.7,26.3,17,19.7c8.9-7,20.1-14.4,35.6-15.7c12.7-1.1,23.7,0.1,32.7,3.7
			c11.3,4.4,17.9,13,19.6,25.5c0.3,2,0.5,4,0.7,5.9c0.3,3.5,0.7,7.2,1.5,10.8c1.5,6.7,4.4,11.9,8.5,15.3c0.8,0.6,1.6,1.2,2.4,1.7
			c1.4,1,2.7,1.9,3.7,3.1c0.8,1,1.5,2.6,1.2,3.9c-0.2,0.8-0.7,1.3-1.6,2.1c-0.6,0.5-1.3,1.2-1.9,2c-1.2,1.8-0.9,3.9-0.6,5.7
			c0.1,0.8,0.2,1.6,0.2,2.3c-0.1,1.6-0.2,3.4-5.6,3.3l-0.2,3c2.3,0.3,3.8,1.1,4.3,2.2c0.5,1.3-0.2,3.4-2.2,5.9
			c-1.4,1.8-1.1,3.9-0.8,6c0.4,2.9,0.7,5.4-2.8,7.4c-4.6,2.6-9.5,2.6-15,2.4c-10.3-0.4-21.2-1.2-32-5.5l-1.1,2.8
			c7.8,3.1,15.5,4.4,23,5.1c-2.2,3.1-3.4,7.6-3.6,8.2l2.9,0.8c0.7-2.8,2.6-7.4,4.5-8.7c2.1,0.1,4.2,0.2,6.2,0.3
			c6,0.3,11.3,0.2,16.6-2.8c5.3-3,4.7-7.3,4.3-10.4c-0.2-1.6-0.4-3,0.2-3.8c2.7-3.5,3.6-6.5,2.6-8.9c-0.3-0.6-0.7-1.3-1.4-2
			c2.5-1.2,3.1-3.3,3.1-5.2c0-0.9-0.1-1.9-0.2-2.9c-0.2-1.5-0.4-2.9,0.2-3.7c0.3-0.5,0.8-1,1.4-1.4c1-0.9,2.2-1.9,2.5-3.7
			C126.3,72,125.2,69.5,123.9,68z"/>
		<path class="st1" d="M77,52.1c-0.6-0.7-1.4-1.3-2-1.7c-0.3-0.2-0.6-0.4-0.9-0.6c-1.4-1.1-2.4-2.9-2.9-5.4
			c-0.3-1.4-0.5-2.9-0.6-4.4c-0.1-0.9-0.2-1.8-0.3-2.7c-0.8-6.1-4.2-10.5-9.8-12.7c-4.2-1.6-9.3-2.2-15-1.7
			c-7.3,0.6-12.4,4-16.5,7.2c-4.1,3.2-6.5,8.7-6.5,14.6c0,5.9,2.1,11.4,5.7,14.8c4.7,4.5,6.5,11.7,4.4,17.8l2.8,0.9
			c2.4-7.2,0.3-15.6-5.2-20.9c-3-2.9-4.8-7.5-4.8-12.7c0-5,2-9.5,5.4-12.2c3.7-2.9,8.4-6,14.9-6.6c5.3-0.5,9.9,0.1,13.7,1.5
			c4.6,1.8,7.2,5.2,7.9,10.3c0.1,0.8,0.2,1.7,0.3,2.5c0.2,1.5,0.3,3.1,0.7,4.7c0.7,3.1,2,5.5,3.9,7c0.3,0.3,0.7,0.5,1.1,0.8
			c0.6,0.4,1.1,0.8,1.4,1.2c0.2,0.3,0.4,0.7,0.3,1c0,0.1-0.2,0.3-0.4,0.5c-0.3,0.3-0.6,0.6-0.9,1c-0.7,1-0.5,2.2-0.4,3.1
			c0,0.3,0.1,0.6,0.1,0.8c0,0.3,0,0.4,0,0.4c0,0-0.3,0.2-1.4,0.2c0,0-0.1,0-0.1,0l-0.2,3c0.9,0.1,1.1,0.4,1.2,0.4
			c0,0.1,0,0.7-0.8,1.7c-0.8,1-0.7,2.3-0.5,3.2c0.2,1.3,0.2,1.8-0.8,2.4c-1.8,1-3.8,1-6,0.9c-4.4-0.2-9-0.5-13.5-2.3L50,73
			c3,1.2,5.9,1.8,8.8,2.1c-0.5,1.1-0.8,2.1-1,2.6l2.9,0.8c0.3-1.2,1-2.6,1.4-3.1c0.8,0,1.6,0.1,2.4,0.1c2.6,0.1,5.1,0.1,7.6-1.3
			c2.8-1.6,2.5-4,2.3-5.4c0-0.3-0.1-0.9-0.1-1c1.7-2.2,1.6-3.7,1.2-4.7c0-0.1-0.1-0.2-0.2-0.4c0.6-0.6,0.9-1.4,1-2.4
			c0-0.5,0-1-0.1-1.4c0-0.3-0.1-0.9-0.1-1c0.1-0.1,0.3-0.3,0.4-0.4c0.5-0.4,1.1-1,1.4-2.1C78.2,54.4,77.9,53.1,77,52.1z"/>
	</g>
</g>
</svg>
