<svg width="328" height="339" viewBox="0 0 328 339" fill="none" xmlns="http://www.w3.org/2000/svg">
<path d="M24.2653 242.274C29.8694 242.274 34.4424 243.303 38.6462 246.575C43.2219 250.032 45.9296 255.452 45.9296 262.555C45.9296 269.659 42.9429 275.454 38.0855 279.004C33.6028 282.183 28.2804 282.837 22.865 282.837H4.48274V305.267C4.48274 305.642 4.20103 305.921 3.82906 305.921H0.653676C0.278975 305.921 0 305.639 0 305.267V242.928C0 242.553 0.28171 242.274 0.653676 242.274H24.2653ZM35.2848 249.564C31.9234 247.133 28.1874 246.2 23.4257 246.2H4.48274V278.911H22.1156C26.6913 278.911 31.267 278.443 34.8144 276.015C38.9251 273.212 41.4441 268.351 41.4441 262.555C41.4441 256.76 39.1084 252.274 35.2821 249.564H35.2848Z" fill="black"/>
<path d="M96.6619 279.672L116.111 304.799C116.483 305.36 116.483 305.921 115.736 305.921H112.189C111.442 305.921 111.256 305.828 110.881 305.267L91.3423 279.765H74.9074V305.267C74.9074 305.642 74.6284 305.921 74.2537 305.921H71.081C70.7063 305.921 70.4274 305.642 70.4274 305.267V242.964C70.4274 242.589 70.7063 242.31 71.081 242.31H93.585C99.6513 242.31 104.41 242.871 108.797 245.674C113.37 248.477 116.357 253.426 116.357 261.088C116.357 268.75 113.277 273.231 108.797 276.221C105.157 278.651 101.61 279.492 96.6646 279.678L96.6619 279.672ZM74.9074 246.139V275.939H92.3706C97.5973 275.939 101.796 275.659 105.343 273.604C109.076 271.362 111.781 267.532 111.781 261.088C111.781 254.644 109.169 250.719 105.529 248.57C101.889 246.514 97.7833 246.142 92.7426 246.142H74.9074V246.139Z" fill="black"/>
<path d="M186.779 305.921C186.779 305.642 186.437 305.899 186.18 305.899H183.188C182.931 305.899 182.674 305.642 182.674 305.3V280.773H144.955V305.3C144.955 305.642 144.697 305.899 144.443 305.899H141.448C141.191 305.899 140.849 305.642 140.849 305.921V268.704C140.849 261.406 142.901 254.557 147.435 249.506C151.114 245.313 156.587 242.572 163.772 242.572C170.957 242.572 176.514 245.313 180.193 249.506C184.725 254.557 186.779 261.406 186.779 268.704V305.921ZM150.173 252.334C146.667 256.443 144.957 262.178 144.957 268.085V277.094H182.676V268.085C182.676 262.178 180.967 256.443 177.461 252.334C174.296 248.825 169.677 246.342 163.777 246.342C157.878 246.342 153.343 248.737 150.178 252.334H150.173Z" fill="black"/>
<path d="M327.628 305.921C327.628 305.642 327.286 305.899 327.029 305.899H324.037C323.78 305.899 323.523 305.642 323.523 305.3V280.773H285.804V305.3C285.804 305.642 285.547 305.899 285.292 305.899H282.297C282.04 305.899 281.698 305.642 281.698 305.921V268.704C281.698 261.406 283.75 254.557 288.284 249.506C291.963 245.313 297.436 242.572 304.621 242.572C311.806 242.572 317.363 245.313 321.042 249.506C325.574 254.557 327.628 261.406 327.628 268.704V305.921ZM291.022 252.334C287.516 256.443 285.807 262.178 285.807 268.085V277.094H323.526V268.085C323.526 262.178 321.816 256.443 318.31 252.334C315.145 248.825 310.526 246.342 304.626 246.342C298.727 246.342 294.192 248.737 291.028 252.334H291.022Z" fill="black"/>
<path d="M252.838 298.043V242.923C252.838 242.583 253.112 242.31 253.451 242.31H256.594C256.933 242.31 257.206 242.583 257.206 242.923V305.311C257.206 305.65 256.933 305.924 256.594 305.924H252.94L252.838 305.773L215.642 249.983V305.289C215.642 305.628 215.368 305.902 215.029 305.902H211.887C211.547 305.902 211.274 305.628 211.274 305.289V242.923C211.274 242.583 211.547 242.31 211.887 242.31H215.314C215.519 242.31 215.71 242.411 215.822 242.583L252.836 298.046L252.838 298.043Z" fill="black"/>
<path d="M297.253 56.3884C297.214 56.3829 297.176 56.3802 297.141 56.3802C292.617 56.2406 288.503 56.8373 284.543 57.6312C273.343 60.0729 262.909 64.4254 252.778 69.5635C252.327 69.7907 252.125 70.3272 252.308 70.7981C252.33 70.8528 252.352 70.9076 252.371 70.9623C252.543 71.4085 253.013 71.6658 253.484 71.5673C264.946 69.1638 277.205 66.9274 288.845 68.2961C289.343 68.3536 289.718 68.7861 289.712 69.287C289.603 80.6007 288.164 92.1224 285.875 103.162C279.114 136.397 261.271 168.545 232.145 186.984C226.68 190.682 220.74 193.609 214.723 196.384C214.252 196.601 214.031 197.145 214.22 197.63C214.414 198.134 214.98 198.385 215.483 198.194C221.752 195.804 228.004 193.228 233.852 189.823C272.295 168.923 293.897 126.638 300.641 84.5891C302.113 75.8595 302.884 67.0177 302.925 58.0281C302.925 57.5354 302.561 57.1138 302.072 57.0481L297.255 56.3966L297.253 56.3884Z" fill="black"/>
<path d="M41.7558 103.157C39.4638 92.1169 38.0279 80.5979 37.9185 69.2815C37.9131 68.7806 38.2878 68.3508 38.7856 68.2906C50.4232 66.9219 62.6871 69.1584 74.1442 71.5645C74.6146 71.6631 75.0823 71.4085 75.2574 70.9596L75.323 70.7899C75.5035 70.3218 75.3039 69.788 74.8581 69.558C71.721 67.9347 68.5374 66.4538 65.2909 65.0386C54.1565 60.3768 42.9483 56.2077 30.4984 56.3802C30.4546 56.3802 30.4136 56.3829 30.3698 56.3884C29.9158 56.4514 27.0221 56.8401 25.5534 57.0399C25.0638 57.1056 24.7001 57.5272 24.7001 58.0199C24.7384 66.9986 25.5179 75.8568 26.9866 84.5809C33.7312 126.633 55.3271 168.909 93.7763 189.815C99.6239 193.22 105.879 195.793 112.145 198.186C112.648 198.377 113.212 198.125 113.408 197.622C113.594 197.14 113.376 196.595 112.905 196.376C106.888 193.6 100.948 190.677 95.483 186.976C66.3575 168.54 48.5141 136.386 41.7531 103.154L41.7558 103.157Z" fill="black"/>
<path d="M228.157 36.0222C228.36 36.055 228.546 36.1481 228.691 36.2932C229.402 36.9994 230.14 37.8617 230.808 38.7459C235.192 44.6094 238.49 51.4638 241.431 58.3046C241.616 58.7371 242.081 58.9752 242.541 58.874L243.608 58.6385C244.084 58.5345 244.412 58.0938 244.376 57.6065C243.999 52.4739 243.381 47.3933 242.371 42.2196C240.919 35.9236 240.052 30.7061 235.515 24.9959C235.515 24.9959 234.82 24.1145 234.407 23.5862C234.215 23.3425 233.92 23.2029 233.611 23.2084C223.817 23.4466 214.323 27.0709 206.179 32.2801C203.988 33.6653 201.967 35.2721 200.033 36.92C199.658 37.2403 199.582 37.7878 199.85 38.2011C200.038 38.4913 200.254 38.8225 200.443 39.1072C200.7 39.5014 201.198 39.652 201.636 39.4713C209.953 36.0523 219.299 34.5467 228.157 36.0194V36.0222Z" fill="black"/>
<path d="M96.8205 38.7459C97.4879 37.8617 98.2263 36.9994 98.9374 36.2932C99.0824 36.1481 99.2684 36.0578 99.4708 36.0222C108.33 34.5494 117.678 36.055 125.992 39.474C126.427 39.652 126.925 39.5041 127.185 39.1099C127.371 38.8253 127.587 38.494 127.776 38.2039C128.047 37.7905 127.97 37.2403 127.595 36.92C118.302 28.9925 106.371 23.5944 94.0226 23.2166C93.7108 23.2084 93.4126 23.348 93.2185 23.5944L92.1135 24.9987C89.3949 28.2178 88.4048 31.1003 87.3955 33.9281C84.8793 41.6913 83.8838 49.638 83.2574 57.6065C83.2191 58.0938 83.5473 58.5373 84.026 58.6413L85.0899 58.8767C85.5494 58.978 86.0144 58.7398 86.2003 58.3073C89.1405 51.4666 92.439 44.6149 96.8232 38.7486L96.8205 38.7459Z" fill="black"/>
<path d="M106.686 84.6219C86.917 77.8085 74.24 93.1489 80.5033 112.155C83.2903 121.714 89.9857 132.543 101.164 132.559C110.354 132.781 114.803 124.084 112.129 115.979C111.464 113.567 110.458 111.29 109.29 109.119L108.669 109.436C110.69 113.764 112.233 118.678 111.196 123.216C109.585 130.742 100.576 131.924 94.8103 128.338C88.7905 124.812 85.9159 117.701 84.1929 111.164C80.0821 96.1327 88.7467 84.0224 104.58 90.4224C117.415 95.6317 126.184 107.767 131.813 120.093C142.788 145.863 143.53 175.35 140.8 202.949C140.745 203.491 141.142 203.97 141.686 204.019L152.834 205.015C153.387 205.065 153.874 204.646 153.904 204.093C155.02 184.326 153.751 164.461 149.465 145.129C144.142 120.892 131.621 93.8196 106.686 84.6246V84.6219Z" fill="black"/>
<path d="M235.471 89.2509C251.11 94.2055 244.004 121.892 232.878 128.445C227.047 132.083 217.928 130.851 216.301 123.244C215.253 118.648 216.807 113.712 218.834 109.368L218.475 109.185C217.31 111.347 216.306 113.614 215.645 116.012C211.783 128.511 222.846 136.225 234.002 130.572C246.143 124.158 253.845 100.261 244.179 89.1441C234.038 77.9345 217.16 84.3126 207.248 92.2839C176.457 118.199 172.182 166.24 173.744 204.079C173.766 204.638 174.255 205.062 174.81 205.013L185.934 204.019C186.481 203.97 186.877 203.482 186.817 202.938C184.766 184.408 184.952 165.49 188.01 147.065C190.966 128.719 197.719 110.241 211.583 97.5233C217.961 92.0539 227.066 86.7899 235.468 89.2509H235.471Z" fill="black"/>
<path d="M196.382 63.689C199.357 70.1247 201.739 76.8285 204.018 83.6063L204.395 83.516C204.609 83.464 202.464 73.4588 202.262 72.5445C201.444 68.8655 200.522 65.211 199.499 61.584C197.451 54.3354 194.978 47.2017 192.055 40.2569C189.134 33.3176 185.759 26.5672 181.91 20.096C179.982 16.8549 177.936 13.6823 175.773 10.5917C173.659 7.57514 171.564 4.50104 168.823 2.00727C168.145 1.38862 167.357 0.542762 166.534 0.126678C166.039 -0.122425 165.954 0.022657 165.465 0.329246C165.068 0.578349 164.677 0.830189 164.289 1.09024C162.817 2.07297 161.4 3.13508 160.041 4.26836C157.38 6.48839 154.948 8.97668 152.73 11.6402C148.871 16.2773 145.674 21.4236 142.805 26.7205C138.079 35.4035 134.214 44.4287 130.97 53.7085L131.32 53.87C133.856 49.7338 136.599 45.729 139.432 41.8309C146.445 32.5813 154.478 22.1928 164.535 16.187C177.969 29.6933 188.554 46.3011 196.382 63.6863V63.689Z" fill="black"/>
<path d="M1.13776 325.247C1.89539 323.873 2.932 322.803 4.24759 322.034C5.56319 321.267 7.02647 320.884 8.64567 320.884C10.6177 320.884 12.3053 321.352 13.7138 322.288C15.1197 323.224 16.1454 324.544 16.7854 326.247H14.7122C14.2062 325.05 13.4349 324.114 12.3983 323.438C11.3616 322.765 10.1117 322.425 8.64567 322.425C7.34922 322.425 6.18132 322.729 5.14471 323.337C4.1081 323.944 3.29577 324.818 2.70498 325.954C2.1142 327.093 1.82154 328.412 1.82154 329.912C1.82154 331.412 2.11693 332.729 2.70498 333.86C3.29577 334.99 4.1081 335.858 5.14471 336.466C6.18132 337.073 7.34648 337.377 8.64567 337.377C10.1117 337.377 11.3616 337.043 12.3983 336.378C13.4349 335.713 14.2062 334.788 14.7122 333.608H16.7854C16.1454 335.294 15.117 336.603 13.7029 337.528C12.2888 338.456 10.6013 338.918 8.6484 338.918C7.03195 338.918 5.56592 338.535 4.25033 337.769C2.93473 337.002 1.90086 335.935 1.1405 334.569C0.382867 333.203 0.00268555 331.65 0.00268555 329.915C0.00268555 328.179 0.382867 326.622 1.1405 325.247H1.13776Z" fill="black"/>
<path d="M26.6257 338.097C25.5891 337.514 24.7713 336.69 24.1751 335.617C23.5761 334.547 23.278 333.293 23.278 331.861C23.278 330.429 23.5816 329.176 24.1887 328.105C24.7959 327.035 25.622 326.208 26.6668 325.625C27.7116 325.042 28.8822 324.752 30.1814 324.752C31.4806 324.752 32.6539 325.042 33.707 325.625C34.76 326.205 35.586 327.032 36.185 328.105C36.784 329.176 37.0821 330.429 37.0821 331.861C37.0821 333.293 36.7785 334.525 36.1713 335.606C35.5641 336.684 34.7299 337.517 33.6687 338.097C32.6074 338.677 31.4286 338.97 30.1294 338.97C28.8302 338.97 27.6651 338.68 26.6285 338.097H26.6257ZM32.6539 336.808C33.428 336.394 34.0571 335.77 34.5357 334.935C35.0171 334.1 35.255 333.077 35.255 331.861C35.255 330.646 35.0198 329.622 34.5466 328.787C34.0735 327.952 33.4499 327.328 32.6758 326.914C31.9018 326.501 31.0594 326.296 30.1486 326.296C29.2378 326.296 28.3954 326.504 27.6213 326.914C26.8473 327.328 26.2264 327.952 25.7642 328.787C25.2992 329.622 25.0695 330.646 25.0695 331.861C25.0695 333.077 25.3019 334.1 25.7642 334.935C26.2264 335.77 26.8418 336.394 27.6104 336.808C28.3762 337.221 29.2159 337.426 30.124 337.426C31.032 337.426 31.8772 337.221 32.6512 336.808H32.6539Z" fill="black"/>
<path d="M64.4874 326.233C65.5076 327.254 66.0163 328.732 66.0163 330.673V338.768H64.2713V330.876C64.2713 329.375 63.9075 328.228 63.1855 327.435C62.4607 326.643 61.476 326.247 60.2288 326.247C58.9816 326.247 57.8958 326.676 57.119 327.536C56.3449 328.395 55.9565 329.644 55.9565 331.281V338.768H54.2115V330.876C54.2115 329.375 53.8478 328.228 53.1257 327.435C52.4009 326.643 51.408 326.247 50.1444 326.247C48.8808 326.247 47.8114 326.676 47.0346 327.536C46.2605 328.395 45.8722 329.644 45.8722 331.281V338.768H44.1025V324.954H45.8722V327.333C46.3098 326.474 46.9334 325.819 47.743 325.373C48.5526 324.927 49.4524 324.703 50.448 324.703C51.6433 324.703 52.6936 324.99 53.5934 325.562C54.4933 326.134 55.147 326.98 55.5518 328.092C55.921 326.997 56.5583 326.156 57.4609 325.573C58.3635 324.993 59.3864 324.7 60.5324 324.7C62.1489 324.7 63.4672 325.209 64.4874 326.23V326.233Z" fill="black"/>
<path d="M85.681 324.957V338.77H83.9114V336.342C83.5066 337.202 82.883 337.862 82.0406 338.316C81.1982 338.77 80.2546 339 79.2098 339C77.5577 339 76.2093 338.491 75.1645 337.47C74.1197 336.449 73.5973 334.971 73.5973 333.03V324.96H75.3423V332.827C75.3423 334.328 75.717 335.475 76.4664 336.268C77.2159 337.062 78.2388 337.456 79.538 337.456C80.8372 337.456 81.9312 337.035 82.7217 336.192C83.5121 335.349 83.9087 334.109 83.9087 332.474V324.96H85.6783L85.681 324.957Z" fill="black"/>
<path d="M104.03 326.233C105.075 327.254 105.598 328.732 105.598 330.673V338.768H103.853V330.876C103.853 329.375 103.478 328.228 102.728 327.435C101.979 326.643 100.956 326.247 99.6569 326.247C98.3578 326.247 97.2637 326.668 96.4733 327.511C95.6801 328.354 95.2862 329.594 95.2862 331.229V338.768H93.5166V324.954H95.2862V327.306C95.7238 326.463 96.3557 325.817 97.1817 325.371C98.0077 324.924 98.9431 324.7 99.9879 324.7C101.64 324.7 102.986 325.209 104.033 326.23L104.03 326.233Z" fill="black"/>
<path d="M113.28 321.971C113.028 321.719 112.9 321.407 112.9 321.035C112.9 320.662 113.026 320.356 113.28 320.112C113.532 319.868 113.835 319.745 114.191 319.745C114.546 319.745 114.847 319.868 115.102 320.112C115.353 320.356 115.482 320.665 115.482 321.035C115.482 321.404 115.356 321.719 115.102 321.971C114.847 322.223 114.546 322.351 114.191 322.351C113.835 322.351 113.534 322.225 113.28 321.971ZM115.074 324.955V338.768H113.305V324.955H115.074Z" fill="black"/>
<path d="M122.935 328.105C123.506 327.035 124.294 326.208 125.298 325.625C126.299 325.042 127.434 324.752 128.698 324.752C129.961 324.752 131.006 325.048 131.983 325.636C132.959 326.227 133.676 326.994 134.13 327.938V320.046H135.899V338.765H134.13V335.68C133.708 336.641 133.016 337.429 132.056 338.045C131.096 338.661 129.967 338.968 128.67 338.968C127.374 338.968 126.274 338.672 125.271 338.084C124.267 337.492 123.485 336.657 122.921 335.579C122.358 334.5 122.073 333.252 122.073 331.834C122.073 330.416 122.36 329.173 122.932 328.103L122.935 328.105ZM133.449 328.927C132.995 328.084 132.374 327.435 131.591 326.978C130.809 326.523 129.945 326.293 129.001 326.293C128.058 326.293 127.147 326.512 126.373 326.95C125.599 327.388 124.986 328.026 124.54 328.861C124.095 329.696 123.87 330.687 123.87 331.834C123.87 332.981 124.095 333.955 124.54 334.807C124.986 335.658 125.599 336.307 126.373 336.756C127.147 337.202 128.025 337.427 129.001 337.427C129.978 337.427 130.809 337.199 131.591 336.742C132.374 336.288 132.995 335.639 133.449 334.793C133.903 333.95 134.13 332.973 134.13 331.859C134.13 330.744 133.903 329.767 133.449 328.924V328.927Z" fill="black"/>
<path d="M143.773 328.105C144.336 327.035 145.121 326.208 146.123 325.625C147.124 325.042 148.259 324.752 149.522 324.752C150.786 324.752 151.97 325.056 152.922 325.663C153.874 326.271 154.56 327.046 154.982 327.99V324.954H156.751V338.768H154.982V335.707C154.544 336.652 153.849 337.432 152.897 338.048C151.946 338.664 150.813 338.97 149.498 338.97C148.182 338.97 147.126 338.675 146.123 338.086C145.119 337.495 144.336 336.66 143.773 335.581C143.21 334.503 142.925 333.254 142.925 331.836C142.925 330.418 143.207 329.176 143.773 328.105ZM154.301 328.926C153.846 328.083 153.226 327.435 152.443 326.977C151.661 326.523 150.797 326.293 149.853 326.293C148.91 326.293 147.999 326.512 147.225 326.95C146.451 327.388 145.838 328.026 145.392 328.861C144.946 329.696 144.722 330.687 144.722 331.834C144.722 332.981 144.946 333.955 145.392 334.807C145.838 335.658 146.451 336.307 147.225 336.756C147.999 337.202 148.877 337.426 149.853 337.426C150.83 337.426 151.661 337.199 152.443 336.742C153.226 336.288 153.846 335.639 154.301 334.793C154.755 333.95 154.982 332.973 154.982 331.858C154.982 330.744 154.755 329.767 154.301 328.924V328.926Z" fill="black"/>
<path d="M164.636 328.105C165.208 327.035 165.995 326.208 166.999 325.625C168 325.042 169.135 324.752 170.399 324.752C171.663 324.752 172.707 325.048 173.684 325.636C174.66 326.227 175.377 326.994 175.831 327.938V320.046H177.6V338.765H175.831V335.68C175.41 336.641 174.718 337.429 173.758 338.045C172.798 338.661 171.668 338.968 170.372 338.968C169.075 338.968 167.976 338.672 166.972 338.084C165.968 337.492 165.186 336.657 164.622 335.579C164.059 334.5 163.774 333.252 163.774 331.834C163.774 330.416 164.062 329.173 164.633 328.103L164.636 328.105ZM175.15 328.927C174.696 328.084 174.075 327.435 173.293 326.978C172.51 326.523 171.646 326.293 170.702 326.293C169.759 326.293 168.848 326.512 168.074 326.95C167.3 327.388 166.687 328.026 166.241 328.861C165.796 329.696 165.571 330.687 165.571 331.834C165.571 332.981 165.796 333.955 166.241 334.807C166.687 335.658 167.3 336.307 168.074 336.756C168.848 337.202 169.726 337.427 170.702 337.427C171.679 337.427 172.51 337.199 173.293 336.742C174.075 336.288 174.696 335.639 175.15 334.793C175.604 333.95 175.831 332.973 175.831 331.859C175.831 330.744 175.604 329.767 175.15 328.924V328.927Z" fill="black"/>
<path d="M209.269 321.086V338.768H207.5V330.495H197.921V338.768H196.152V321.086H197.921V329.031H207.5V321.086H209.269Z" fill="black"/>
<path d="M219.646 338.097C218.609 337.514 217.792 336.69 217.195 335.617C216.596 334.547 216.298 333.293 216.298 331.861C216.298 330.429 216.602 329.176 217.209 328.105C217.816 327.035 218.642 326.208 219.687 325.625C220.732 325.042 221.902 324.752 223.202 324.752C224.501 324.752 225.674 325.042 226.727 325.625C227.78 326.205 228.606 327.032 229.205 328.105C229.804 329.176 230.102 330.429 230.102 331.861C230.102 333.293 229.799 334.525 229.192 335.606C228.584 336.684 227.75 337.517 226.689 338.097C225.628 338.677 224.449 338.97 223.15 338.97C221.851 338.97 220.685 338.68 219.649 338.097H219.646ZM225.674 336.808C226.448 336.394 227.077 335.77 227.556 334.935C228.037 334.1 228.275 333.077 228.275 331.861C228.275 330.646 228.04 329.622 227.567 328.787C227.094 327.952 226.47 327.328 225.696 326.914C224.922 326.501 224.08 326.296 223.169 326.296C222.258 326.296 221.416 326.504 220.642 326.914C219.868 327.328 219.247 327.952 218.784 328.787C218.319 329.622 218.09 330.646 218.09 331.861C218.09 333.077 218.322 334.1 218.784 334.935C219.247 335.77 219.862 336.394 220.631 336.808C221.396 337.221 222.236 337.426 223.144 337.426C224.052 337.426 224.897 337.221 225.671 336.808H225.674Z" fill="black"/>
<path d="M238.892 320.049V338.768H237.123V320.049H238.892Z" fill="black"/>
<path d="M249.912 320.884L244.732 323.895V322.529L249.912 319.291V320.884ZM248.471 324.957V338.771H246.701V324.957H248.471Z" fill="black"/>
<path d="M257.152 337.87C256.148 337.136 255.587 336.137 255.469 334.872H257.288C257.373 335.647 257.74 336.277 258.388 336.756C259.036 337.237 259.909 337.476 261.003 337.476C261.963 337.476 262.718 337.248 263.265 336.794C263.812 336.34 264.085 335.773 264.085 335.1C264.085 334.629 263.935 334.24 263.631 333.936C263.327 333.632 262.945 333.391 262.482 333.216C262.017 333.038 261.391 332.849 260.601 332.647C259.572 332.378 258.738 332.107 258.098 331.836C257.458 331.568 256.914 331.166 256.468 330.635C256.022 330.104 255.798 329.392 255.798 328.497C255.798 327.823 256 327.199 256.405 326.624C256.81 326.052 257.381 325.595 258.123 325.258C258.864 324.922 259.706 324.752 260.65 324.752C262.132 324.752 263.33 325.127 264.238 325.877C265.149 326.627 265.636 327.662 265.704 328.976H263.935C263.885 328.165 263.568 327.514 262.986 327.016C262.403 326.518 261.607 326.268 260.598 326.268C259.703 326.268 258.981 326.479 258.423 326.901C257.868 327.322 257.589 327.845 257.589 328.469C257.589 329.009 257.753 329.452 258.082 329.797C258.41 330.142 258.817 330.413 259.307 330.607C259.796 330.802 260.453 331.015 261.279 331.253C262.272 331.524 263.065 331.784 263.656 332.039C264.246 332.291 264.75 332.663 265.171 333.153C265.592 333.643 265.811 334.292 265.827 335.102C265.827 335.844 265.625 336.507 265.22 337.087C264.815 337.667 264.252 338.127 263.527 338.467C262.802 338.803 261.968 338.973 261.025 338.973C259.441 338.973 258.147 338.606 257.146 337.873L257.152 337.87Z" fill="black"/>
<path d="M275.26 326.449V335.026C275.26 335.869 275.419 336.452 275.742 336.772C276.062 337.092 276.625 337.254 277.435 337.254H279.051V338.771H277.156C275.909 338.771 274.981 338.48 274.377 337.897C273.77 337.317 273.466 336.359 273.466 335.026V326.449H271.546V324.957H273.466V321.492H275.26V324.957H279.051V326.449H275.26Z" fill="black"/>
<path d="M285.725 321.971C285.473 321.719 285.344 321.407 285.344 321.035C285.344 320.662 285.47 320.356 285.725 320.112C285.976 319.868 286.28 319.745 286.635 319.745C286.991 319.745 287.292 319.868 287.546 320.112C287.798 320.356 287.926 320.665 287.926 321.035C287.926 321.404 287.8 321.719 287.546 321.971C287.292 322.223 286.991 322.351 286.635 322.351C286.28 322.351 285.979 322.225 285.725 321.971ZM287.519 324.955V338.768H285.749V324.955H287.519Z" fill="black"/>
<path d="M295.379 328.105C295.951 327.035 296.744 326.208 297.756 325.625C298.768 325.042 299.922 324.752 301.219 324.752C302.92 324.752 304.323 325.173 305.428 326.017C306.53 326.86 307.244 328.007 307.564 329.458H305.669C305.434 328.464 304.922 327.684 304.14 327.117C303.358 326.553 302.384 326.268 301.222 326.268C300.294 326.268 299.46 326.479 298.719 326.901C297.978 327.322 297.392 327.949 296.963 328.784C296.534 329.619 296.317 330.643 296.317 331.858C296.317 333.074 296.534 334.1 296.963 334.943C297.392 335.787 297.978 336.419 298.719 336.841C299.46 337.262 300.294 337.473 301.222 337.473C302.384 337.473 303.358 337.191 304.14 336.627C304.922 336.063 305.434 335.275 305.669 334.262H307.564C307.244 335.68 306.528 336.816 305.417 337.675C304.304 338.535 302.906 338.965 301.222 338.965C299.925 338.965 298.771 338.675 297.759 338.092C296.747 337.508 295.956 336.685 295.382 335.611C294.808 334.541 294.523 333.287 294.523 331.856C294.523 330.424 294.81 329.17 295.382 328.1L295.379 328.105Z" fill="black"/>
<path d="M314.65 328.105C315.214 327.035 315.999 326.208 317 325.625C318.001 325.042 319.136 324.752 320.4 324.752C321.663 324.752 322.848 325.056 323.799 325.663C324.751 326.271 325.438 327.046 325.859 327.99V324.954H327.629V338.768H325.859V335.707C325.421 336.652 324.727 337.432 323.775 338.048C322.823 338.664 321.691 338.97 320.375 338.97C319.059 338.97 318.004 338.675 317 338.086C315.996 337.495 315.214 336.66 314.65 335.581C314.087 334.503 313.802 333.254 313.802 331.836C313.802 330.418 314.084 329.176 314.65 328.105ZM325.178 328.926C324.724 328.083 324.103 327.435 323.321 326.977C322.538 326.523 321.674 326.293 320.731 326.293C319.787 326.293 318.876 326.512 318.102 326.95C317.328 327.388 316.715 328.026 316.27 328.861C315.824 329.696 315.599 330.687 315.599 331.834C315.599 332.981 315.824 333.955 316.27 334.807C316.715 335.658 317.328 336.307 318.102 336.756C318.876 337.202 319.754 337.426 320.731 337.426C321.707 337.426 322.538 337.199 323.321 336.742C324.103 336.288 324.724 335.639 325.178 334.793C325.632 333.95 325.859 332.973 325.859 331.858C325.859 330.744 325.632 329.767 325.178 328.924V328.926Z" fill="black"/>
</svg>
