<svg width="97" height="97" viewBox="0 0 97 97" fill="none" xmlns="http://www.w3.org/2000/svg">
<path d="M48.6078 30.0051C42.817 30.0051 38.1069 25.2943 38.1069 19.5026C38.1069 13.7108 42.817 9 48.6078 9C54.3986 9 59.1086 13.7108 59.1086 19.5026C59.1086 25.2943 54.3986 30.0051 48.6078 30.0051ZM48.6078 11.4038C44.1558 11.4038 40.5265 15.0337 40.5265 19.4864C40.5265 23.9391 44.1558 27.569 48.6078 27.569C53.0598 27.569 56.6891 23.9391 56.6891 19.4864C56.6891 15.0337 53.0598 11.4038 48.6078 11.4038Z" fill="#443C36"/>
<path d="M22.6218 88.2619C22.6218 88.2619 22.4928 88.2619 22.4444 88.2619C21.0734 88.2135 19.799 87.6327 18.8474 86.6325C16.9117 84.5513 17.0246 81.2925 19.1054 79.3565L38.4941 61.2553C38.9135 60.8681 39.1393 60.3196 39.1393 59.755V39.2984H19.5409C16.8956 39.2984 14.7341 37.1365 14.7341 34.4907C14.7341 31.8449 16.8956 29.6831 19.5409 29.6831H77.6585C80.3039 29.6831 82.4654 31.8449 82.4654 34.4907C82.4654 37.1365 80.3039 39.2984 77.6585 39.2984H58.4473V57.3189C58.4473 58.1578 58.9796 58.9322 59.77 59.2226L71.4806 63.6591C73.2227 64.3206 74.3841 66.0145 74.368 67.886L74.1905 82.7767C74.1744 84.148 73.626 85.4386 72.6259 86.4066C71.6419 87.3746 70.3999 87.8747 68.9643 87.8586C67.5932 87.8424 66.3028 87.2778 65.3511 86.2937C64.3994 85.3096 63.8832 84.0028 63.8994 82.6315L64.0445 72.9517C64.0445 72.0483 63.4961 71.2578 62.6251 70.9835L49.253 66.6437C48.5433 66.4179 47.769 66.5953 47.2206 67.0954L26.1382 86.8583C25.1704 87.7618 23.9284 88.2458 22.6218 88.2458V88.2619ZM19.5409 32.1031C18.2182 32.1031 17.1537 33.1678 17.1537 34.4907C17.1537 35.8136 18.2182 36.8784 19.5409 36.8784H39.4297C40.6072 36.8784 41.575 37.8303 41.575 39.008V59.7388C41.575 60.9649 41.0588 62.1588 40.1555 62.9977L20.7669 81.0989C19.67 82.1314 19.6055 83.8576 20.6378 84.9546C21.1378 85.487 21.8153 85.7936 22.5412 85.8258C23.3155 85.8581 23.9607 85.5838 24.493 85.0837L45.5753 65.3208C46.7528 64.2077 48.4626 63.8366 49.995 64.3367L63.3671 68.6765C65.2382 69.2895 66.4803 71.0158 66.448 72.984L66.3028 82.6638C66.3028 83.3897 66.5609 84.0835 67.077 84.5997C67.5771 85.116 68.2707 85.4225 68.9966 85.4225C69.6579 85.4225 70.4161 85.1644 70.9322 84.6481C71.4484 84.1319 71.7548 83.4543 71.7548 82.7283L71.9323 67.8376C71.9323 66.9825 71.4161 66.2081 70.6096 65.9016L58.899 61.465C57.173 60.8036 56.0117 59.1419 56.0117 57.2866V38.9757C56.0117 37.798 56.9633 36.8461 58.1408 36.8461H77.6424C78.9651 36.8461 80.0297 35.7814 80.0297 34.4585C80.0297 33.1356 78.9651 32.0708 77.6424 32.0708H19.5248L19.5409 32.1031Z" fill="#443C36"/>
</svg>
