<svg width="97" height="97" viewBox="0 0 97 97" fill="none" xmlns="http://www.w3.org/2000/svg">
<path d="M2.81251 36.1187H8.59205V40.8943C9.58424 41.1883 10.5393 41.3964 11.4446 41.7393C16.0583 43.4413 19.3449 46.5517 21.2549 51.0334C21.4409 51.4743 21.6642 51.6212 22.1603 51.6212C26.9476 51.5968 31.7226 51.609 36.5099 51.6212C36.9812 51.6212 37.1796 51.4988 37.2789 51.0212C37.5517 49.6253 37.8866 48.2293 38.2215 46.7598C32.938 45.621 27.7166 44.4823 22.4084 43.3312C22.7928 41.5801 23.1649 39.8535 23.5494 38.1024C23.0905 37.9923 22.6936 37.9188 22.3092 37.7963C21.1929 37.4657 20.5852 36.4493 20.8332 35.2983C21.4781 32.3349 22.1355 29.3716 22.8052 26.4204C23.1029 25.0735 24.0703 24.4612 25.4469 24.7061C25.757 24.7673 26.0795 24.8286 26.4763 24.9143C26.8733 23.1632 27.2578 21.4489 27.6546 19.6855C49.6937 24.4612 71.6832 29.2123 93.7349 33.988C93.3752 35.6044 93.0398 37.184 92.6928 38.7637C92.4201 40.0127 92.1224 41.2618 91.8622 42.5108C91.7878 42.8536 91.6515 43.0005 91.2793 43.0495C89.6793 43.2944 88.0794 43.5761 86.4794 43.821C86.0579 43.8822 85.8714 44.0414 85.7852 44.4823C85.388 46.4293 84.9414 48.364 84.5074 50.2988C84.0113 52.5518 82.4362 53.5438 80.1417 53.0539C79.7697 52.9682 79.3852 52.907 78.9139 52.809C78.7155 53.6417 78.5294 54.4621 78.3061 55.3928C68.7314 53.3233 59.1816 51.2661 49.5573 49.1844C49.4333 49.6864 49.3092 50.1518 49.21 50.6171C48.6396 53.1763 48.069 55.7478 47.4985 58.3072C46.8536 61.2215 44.5963 63.0216 41.5577 63.0216C35.0837 63.0216 28.6096 63.0216 22.1355 63.0216C21.6518 63.0216 21.4286 63.1808 21.2425 63.6093C18.9233 68.887 14.9297 72.2055 9.24937 73.528C8.75328 73.6382 8.57965 73.8097 8.59205 74.3117C8.62925 75.6954 8.60444 77.0792 8.60444 78.5363H2.80011V36.1187H2.81251ZM91.5645 35.3473C70.6663 30.8288 49.8673 26.3225 29.0189 21.8162C27.9523 26.6409 26.898 31.3675 25.8439 36.1554C27.3074 36.4738 28.6964 36.7677 30.0855 37.0616C41.9918 39.6453 53.8981 42.2291 65.8045 44.8006C66.5735 44.972 67.4044 45.1679 68.1486 45.0455C72.0802 44.4578 75.9993 43.772 79.9185 43.1108C83.1555 42.5719 86.405 42.0332 89.6417 41.4821C89.8776 41.4454 90.2246 41.2618 90.2623 41.0903C90.7206 39.2045 91.1304 37.3065 91.5645 35.335V35.3473ZM8.65407 71.8014C15.4506 70.6871 20.7836 64.8216 20.5976 56.9602C20.4115 49.013 14.7313 43.7843 8.65407 42.8781V71.8014ZM78.7154 45.1679C78.4302 45.1924 78.2318 45.2047 78.0457 45.2292C75.2924 45.67 72.5514 46.1353 69.7981 46.5639C68.8059 46.7108 67.7393 47.017 66.7967 46.8211C54.4563 44.2128 42.1407 41.5188 29.8251 38.8494C28.374 38.531 26.9353 38.2372 25.4469 37.9188C25.1493 39.2903 24.8641 40.6005 24.554 41.9597C42.0414 45.7435 59.4544 49.5028 76.9171 53.2866C77.5248 50.5558 78.1077 47.8987 78.7154 45.1679ZM22.0735 61.2093C22.2471 61.2215 22.3711 61.246 22.4952 61.246C28.9692 61.246 35.4433 61.246 41.905 61.246C43.5421 61.246 45.0056 60.1439 45.5513 58.6133C46.4443 56.0785 44.5343 53.4213 41.7561 53.4213C35.3441 53.3968 28.9445 53.4213 22.5324 53.4213C22.396 53.4213 22.2471 53.458 22.0735 53.4825C22.6812 56.0785 22.6812 58.6378 22.0735 61.2215V61.2093ZM4.67287 37.8943V76.7485H6.73168V37.9065H4.67287V37.8943ZM46.5807 54.0825C46.99 52.2335 47.3621 50.5437 47.7466 48.8048C45.1421 48.2415 42.5871 47.6905 39.9826 47.1149C39.6602 48.6088 39.3377 50.0661 39.0153 51.511C40.4663 51.5968 41.843 51.5723 43.1701 51.7804C44.5591 52.0008 45.6257 52.858 46.5807 54.0703V54.0825ZM79.2612 51.0334C79.8317 51.1559 80.303 51.2783 80.7866 51.3641C81.7788 51.5233 82.4238 51.0947 82.647 50.1395C82.7834 49.5763 82.8951 49.013 83.0191 48.4497C83.3167 47.0904 83.6144 45.719 83.9245 44.2618C82.8454 44.4333 81.8657 44.5924 80.8983 44.7638C80.7742 44.7883 80.613 44.9598 80.5882 45.0945C80.1417 47.0415 79.7076 49.0008 79.2487 51.0334H79.2612ZM26.005 26.7266C25.1121 26.4164 24.5705 26.6858 24.3803 27.5348C24.3431 27.6817 24.3184 27.8287 24.2935 27.9756C23.7354 30.4737 23.2021 32.9839 22.6316 35.4819C22.5324 35.8983 22.6316 36.0942 23.0533 36.1432C23.3262 36.1799 23.5866 36.2412 23.8843 36.2902C24.6036 33.0452 25.3105 29.8858 26.005 26.7388V26.7266Z" fill="#443C36"/>
<path d="M45.0428 57.2299C45.0428 59.0055 43.6041 60.4259 41.7809 60.4381C40.0198 60.4504 38.5191 58.9565 38.5315 57.2054C38.544 55.4298 40.0323 53.9849 41.8058 53.9971C43.6165 54.0094 45.0428 55.4298 45.0428 57.2299ZM43.2197 57.2299C43.2197 56.4339 42.612 55.7971 41.8058 55.7971C41.0368 55.7971 40.3547 56.4584 40.3671 57.2299C40.3671 57.9768 41.0245 58.6258 41.7686 58.6381C42.5624 58.6503 43.2197 58.0258 43.2197 57.2299Z" fill="#443C36"/>
</svg>
