<svg width="97" height="97" viewBox="0 0 97 97" fill="none" xmlns="http://www.w3.org/2000/svg">
<path d="M86.301 39.897C85.9182 39.1299 85.1357 38.6239 84.2535 38.575L45.702 36.7144C45.702 36.7144 45.6354 36.7144 45.6021 36.7144C44.6866 36.7144 43.8876 37.1878 43.4715 37.9711L25.2111 72.1301L26.1765 21.1772L62.3644 25.9592V35.3761H64.7614V25.9592C64.7614 24.7841 63.8625 23.7885 62.6807 23.6253L26.4928 18.8434C25.8269 18.7455 25.1279 18.9414 24.6119 19.3819C24.0958 19.8226 23.7796 20.4591 23.7796 21.1283L22.7309 75.6716C22.7309 76.3571 23.0139 77.0263 23.5465 77.4832C23.9793 77.8586 24.5453 78.0708 25.1445 78.0708C25.261 78.0708 25.3776 78.0708 25.4774 78.0545L63.7294 72.7503H63.8125V72.6524C64.2287 72.4728 64.5949 72.1953 64.8446 71.8363L67.0252 68.8007L66.9419 75.4432L16.2557 85.0397L18.4529 12.1356L67.5579 20.9651L67.3914 35.6863V35.7679L69.7052 35.8004H69.7884L69.9548 20.9977C69.9548 19.8553 69.1392 18.8598 67.9907 18.6639L18.9023 9.83442C18.2032 9.70386 17.5041 9.88339 16.9548 10.324C16.4055 10.7647 16.0892 11.4012 16.0726 12.0867L13.8754 84.9908C13.8587 85.7088 14.1583 86.3943 14.7243 86.8513C15.1571 87.2104 15.7064 87.4061 16.2723 87.4061C16.4222 87.4061 16.572 87.4061 16.7384 87.3572L67.4247 77.7607C68.5399 77.5486 69.3556 76.5856 69.3722 75.4758L69.4721 65.5529V65.4713H69.4554L86.1012 42.3124C86.6005 41.6106 86.6838 40.6966 86.301 39.9295V39.897ZM84.137 40.9578L65.7434 66.5485L62.8638 70.5144L26.0933 75.5574L45.652 39.0646L84.1204 40.9251V40.9578H84.137Z" fill="#443C36"/>
<path d="M66.9253 54.4546H55.0236V56.8047H66.9253V54.4546Z" fill="#443C36"/>
</svg>
