<svg width="97" height="97" viewBox="0 0 97 97" fill="none" xmlns="http://www.w3.org/2000/svg">
<path d="M7.70245 87.4061H68.3513V9.79272H7.70245V87.4061ZM36.7791 85.0503H15.1563V17.169H36.7791V85.0503ZM60.9138 85.0503H39.291V17.169H60.9138V85.0503ZM10.0995 12.1161H66.0034V85.0341H63.3929V14.7807H12.7264V85.0503H10.0995V12.1161Z" fill="#443C36"/>
<path d="M88.1481 38.8616H75.7524V57.416H88.1481V38.8616ZM85.7839 55.0926H78.133V41.2337H85.7839V55.0926Z" fill="#443C36"/>
<path d="M82.0429 43.0898C81.2713 44.6333 80.5981 45.9981 79.8921 47.3792L79.6786 47.7853H84.4072L82.0265 43.0898H82.0429Z" fill="#443C36"/>
<path d="M84.4235 49.4319H79.6786C80.3518 50.7804 80.9921 52.0477 81.6817 53.3962L82.0593 54.1274C82.8966 52.4538 83.6354 50.9917 84.4235 49.4319Z" fill="#443C36"/>
</svg>
