<svg width="70" height="80" viewBox="0 0 70 80" fill="none" xmlns="http://www.w3.org/2000/svg">
<path d="M67.6642 68.2588L46.6035 48.1449L46.9948 47.8461C48.2367 46.95 49.2404 46.0372 50.091 45.0581C52.5577 42.2866 54.0717 38.7351 54.48 34.7522C55.875 21.011 45.6169 9.12849 24.8114 0.365984C24.267 0.133644 23.6375 0.299601 23.2973 0.764279C22.9401 1.22896 22.9571 1.87619 23.3143 2.32427C27.8054 7.68467 30.2041 13.5429 30.2381 19.2518V20.231L29.5236 19.5672C27.2951 17.5093 25.0155 15.9991 23.0932 15.3187C22.7189 15.1859 22.3106 15.2357 21.9874 15.4348C21.6642 15.634 21.443 15.9659 21.409 16.3476C21.0007 19.9986 18.3639 24.3467 14.179 28.3131C12.4438 29.956 11.406 32.0471 11.2359 34.2211C10.7085 41.49 13.9408 47.1823 20.3202 50.2691L20.8646 50.5346L2.44079 68.1094V68.3584H2.1686C-0.383181 70.5822 -0.740425 74.3162 1.40307 76.9217C2.47481 78.2162 4.00587 79.046 5.69005 79.2285C5.92821 79.2617 6.18339 79.2617 6.40454 79.2617C7.85055 79.2617 9.26254 78.7804 10.3853 77.8843C10.3853 77.8843 10.4364 77.8345 10.4874 77.8013L10.6065 77.7017L28.1117 60.9899L27.8905 72.8226V72.9554C27.8905 74.6149 28.5199 76.1749 29.6767 77.3532C30.8506 78.5481 32.4497 79.2285 34.1679 79.2617H34.304C35.9541 79.2617 37.5192 78.6477 38.727 77.5192C39.9519 76.3741 40.6494 74.8141 40.6834 73.1379L40.9386 60.0605L59.5155 77.8013C59.5155 77.8013 59.6176 77.9009 59.6516 77.9175C60.7404 78.7804 62.1183 79.2617 63.5984 79.2617C63.8365 79.2617 64.0747 79.2617 64.2959 79.2285C66.0141 79.046 67.5281 78.2162 68.5999 76.9217C70.7604 74.2664 70.3861 70.4494 67.7152 68.2754L67.6642 68.2588ZM13.7537 34.4037C13.8557 32.8437 14.6383 31.3169 15.9312 30.1054C19.7418 26.5041 22.4297 22.488 23.4844 18.8203L23.6376 18.2893L24.1139 18.5714C26.5466 20.0318 28.8432 22.2888 30.1701 23.9152C30.4763 24.2969 30.9867 24.4629 31.48 24.3301C31.9734 24.1973 32.3476 23.8156 32.4327 23.3344C33.4704 17.6752 32.2625 11.6178 28.8942 5.82595L28.1967 4.61447L29.4556 5.24511C45.2936 13.1944 53.068 23.3178 51.9282 34.5032C51.571 37.9717 50.2781 41.0585 48.1686 43.4317C45.4808 46.4521 41.6191 48.51 36.7197 49.5721C34.8994 49.9538 33.0791 50.1529 31.2759 50.1529C30.3912 50.1529 29.5066 50.1032 28.639 50.0036C18.534 48.8585 13.1072 43.1662 13.7367 34.3705L13.7537 34.4037ZM10.1982 73.42C10.1301 74.1171 9.84094 74.7643 9.36461 75.3617L8.7862 75.926C8.0717 76.4736 7.25513 76.7558 6.40454 76.7558C6.25144 76.7558 6.11535 76.7558 5.96224 76.7392C4.94153 76.623 4.02289 76.1251 3.39345 75.3617C2.08354 73.752 2.33871 71.3954 3.98886 70.1009C5.63901 68.8065 8.05469 69.072 9.38161 70.6818C10.0281 71.4784 10.3173 72.4575 10.1982 73.4366V73.42ZM28.554 57.0401L12.75 72.1256L12.5628 71.4286C12.3247 70.5324 11.9334 69.7524 11.389 69.1052C10.5724 68.0928 9.44967 67.3792 8.13976 67.0141L7.44226 66.815L23.4844 51.4806L23.7226 51.547C25.1856 51.9785 26.7507 52.2938 28.3839 52.4597C29.4046 52.5759 30.5273 52.6921 31.6671 52.6091C31.7862 52.6091 31.9223 52.5925 32.0414 52.5925H32.8239L32.3987 53.2397C32.1605 53.5882 31.9223 53.8538 31.6501 54.0695L31.5821 54.1525C31.5821 54.1525 31.514 54.2023 31.497 54.2189L28.554 57.0401ZM38.0636 73.1545C38.0126 74.1337 37.6043 75.0464 36.8898 75.6936C36.1923 76.3575 35.2396 76.7392 34.27 76.7392C34.2189 76.7392 34.1849 76.7392 34.1339 76.7392C32.0414 76.706 30.3402 74.9966 30.3913 72.9222C30.4083 71.9264 30.8336 70.9971 31.5651 70.3001C32.2966 69.6196 33.2492 69.2545 34.2529 69.2545C36.4134 69.2877 38.0976 70.9805 38.0806 73.0217V73.1545H38.0636ZM38.1657 68.0597L37.5362 67.6945C36.5325 67.1137 35.4438 66.7818 34.355 66.7652C33.2492 66.732 32.1605 66.9975 31.1398 67.5618L30.4933 67.9269L30.6805 58.484L33.4194 55.7955H33.4874C33.8957 55.4304 34.27 54.9823 34.5932 54.4844L34.9504 53.9202L35.3077 54.4678C35.75 55.1482 36.1753 55.6295 36.6516 56.0112L38.3528 57.621L38.1487 68.0431L38.1657 68.0597ZM58.5459 69.1052C58.0015 69.769 57.5932 70.5656 57.372 71.4286L57.1849 72.1256L38.3018 54.0861C37.7914 53.6712 37.4001 53.1402 37.145 52.5095L36.9578 52.0614L37.4342 51.9619C39.8328 51.4308 42.0784 50.6508 44.0858 49.6385L44.358 49.5057L62.5096 66.8482L61.7951 67.0473C60.5022 67.4124 59.3794 68.126 58.5459 69.1384V69.1052ZM66.5244 75.3451C65.895 76.1251 64.9933 76.623 63.9556 76.7226C63.8195 76.7226 63.6664 76.7392 63.5303 76.7392C62.6797 76.7392 61.8462 76.457 61.1657 75.926L60.6043 75.3949C60.0939 74.7975 59.8047 74.1171 59.7197 73.3869C59.6006 72.3911 59.9068 71.412 60.5533 70.632C61.2678 69.7524 62.3905 69.2379 63.5473 69.2379C64.432 69.2379 65.2655 69.5201 65.946 70.0677C66.7456 70.6984 67.2389 71.5779 67.358 72.5737C67.4771 73.5694 67.1879 74.5486 66.5414 75.3285L66.5244 75.3451Z" fill="#443C36"/>
</svg>
