<svg width="97" height="97" viewBox="0 0 97 97" fill="none" xmlns="http://www.w3.org/2000/svg">
<path d="M80.6642 77.2588L59.6035 57.1449L59.9948 56.8461C61.2367 55.95 62.2404 55.0372 63.091 54.0581C65.5577 51.2866 67.0717 47.7351 67.48 43.7522C68.875 30.011 58.6169 18.1285 37.8114 9.36598C37.267 9.13364 36.6375 9.2996 36.2973 9.76428C35.9401 10.229 35.9571 10.8762 36.3143 11.3243C40.8054 16.6847 43.2041 22.5429 43.2381 28.2518V29.231L42.5236 28.5672C40.2951 26.5093 38.0155 24.9991 36.0932 24.3187C35.7189 24.1859 35.3106 24.2357 34.9874 24.4348C34.6642 24.634 34.443 24.9659 34.409 25.3476C34.0007 28.9986 31.3639 33.3467 27.179 37.3131C25.4438 38.956 24.406 41.0471 24.2359 43.2211C23.7085 50.49 26.9408 56.1823 33.3202 59.2691L33.8646 59.5346L15.4408 77.1094V77.3584H15.1686C12.6168 79.5822 12.2596 83.3162 14.4031 85.9217C15.4748 87.2162 17.0059 88.046 18.69 88.2285C18.9282 88.2617 19.1834 88.2617 19.4045 88.2617C20.8505 88.2617 22.2625 87.7804 23.3853 86.8843C23.3853 86.8843 23.4364 86.8345 23.4874 86.8013L23.6065 86.7017L41.1117 69.9899L40.8905 81.8226V81.9554C40.8905 83.6149 41.5199 85.1749 42.6767 86.3532C43.8506 87.5481 45.4497 88.2285 47.1679 88.2617H47.304C48.9541 88.2617 50.5192 87.6477 51.727 86.5192C52.9519 85.3741 53.6494 83.8141 53.6834 82.1379L53.9386 69.0605L72.5155 86.8013C72.5155 86.8013 72.6176 86.9009 72.6516 86.9175C73.7404 87.7804 75.1183 88.2617 76.5984 88.2617C76.8365 88.2617 77.0747 88.2617 77.2959 88.2285C79.0141 88.046 80.5281 87.2162 81.5999 85.9217C83.7604 83.2664 83.3861 79.4494 80.7152 77.2754L80.6642 77.2588ZM26.7537 43.4037C26.8557 41.8437 27.6383 40.3169 28.9312 39.1054C32.7418 35.5041 35.4297 31.488 36.4844 27.8203L36.6376 27.2893L37.1139 27.5714C39.5466 29.0318 41.8432 31.2888 43.1701 32.9152C43.4763 33.2969 43.9867 33.4629 44.48 33.3301C44.9734 33.1973 45.3476 32.8156 45.4327 32.3344C46.4704 26.6752 45.2625 20.6178 41.8942 14.826L41.1967 13.6145L42.4556 14.2451C58.2936 22.1944 66.068 32.3178 64.9282 43.5032C64.571 46.9717 63.2781 50.0585 61.1686 52.4317C58.4808 55.4521 54.6191 57.51 49.7197 58.5721C47.8994 58.9538 46.0791 59.1529 44.2759 59.1529C43.3912 59.1529 42.5066 59.1032 41.639 59.0036C31.534 57.8585 26.1072 52.1662 26.7367 43.3705L26.7537 43.4037ZM23.1982 82.42C23.1301 83.1171 22.8409 83.7643 22.3646 84.3617L21.7862 84.926C21.0717 85.4736 20.2551 85.7558 19.4045 85.7558C19.2514 85.7558 19.1153 85.7558 18.9622 85.7392C17.9415 85.623 17.0229 85.1251 16.3934 84.3617C15.0835 82.752 15.3387 80.3954 16.9889 79.1009C18.639 77.8065 21.0547 78.072 22.3816 79.6818C23.0281 80.4784 23.3173 81.4575 23.1982 82.4366V82.42ZM41.554 66.0401L25.75 81.1256L25.5628 80.4286C25.3247 79.5324 24.9334 78.7524 24.389 78.1052C23.5724 77.0928 22.4497 76.3792 21.1398 76.0141L20.4423 75.815L36.4844 60.4806L36.7226 60.547C38.1856 60.9785 39.7507 61.2938 41.3839 61.4597C42.4046 61.5759 43.5273 61.6921 44.6671 61.6091C44.7862 61.6091 44.9223 61.5925 45.0414 61.5925H45.8239L45.3987 62.2397C45.1605 62.5882 44.9223 62.8538 44.6501 63.0695L44.5821 63.1525C44.5821 63.1525 44.514 63.2023 44.497 63.2189L41.554 66.0401ZM51.0636 82.1545C51.0126 83.1337 50.6043 84.0464 49.8898 84.6936C49.1923 85.3575 48.2396 85.7392 47.27 85.7392C47.2189 85.7392 47.1849 85.7392 47.1339 85.7392C45.0414 85.706 43.3402 83.9966 43.3913 81.9222C43.4083 80.9264 43.8336 79.9971 44.5651 79.3001C45.2966 78.6196 46.2492 78.2545 47.2529 78.2545C49.4134 78.2877 51.0976 79.9805 51.0806 82.0217V82.1545H51.0636ZM51.1657 77.0597L50.5362 76.6945C49.5325 76.1137 48.4438 75.7818 47.355 75.7652C46.2492 75.732 45.1605 75.9975 44.1398 76.5618L43.4933 76.9269L43.6805 67.484L46.4194 64.7955H46.4874C46.8957 64.4304 47.27 63.9823 47.5932 63.4844L47.9504 62.9202L48.3077 63.4678C48.75 64.1482 49.1753 64.6295 49.6516 65.0112L51.3528 66.621L51.1487 77.0431L51.1657 77.0597ZM71.5459 78.1052C71.0015 78.769 70.5932 79.5656 70.372 80.4286L70.1849 81.1256L51.3018 63.0861C50.7914 62.6712 50.4001 62.1402 50.145 61.5095L49.9578 61.0614L50.4342 60.9619C52.8328 60.4308 55.0784 59.6508 57.0858 58.6385L57.358 58.5057L75.5096 75.8482L74.7951 76.0473C73.5022 76.4124 72.3794 77.126 71.5459 78.1384V78.1052ZM79.5244 84.3451C78.895 85.1251 77.9933 85.623 76.9556 85.7226C76.8195 85.7226 76.6664 85.7392 76.5303 85.7392C75.6797 85.7392 74.8462 85.457 74.1657 84.926L73.6043 84.3949C73.0939 83.7975 72.8047 83.1171 72.7197 82.3869C72.6006 81.3911 72.9068 80.412 73.5533 79.632C74.2678 78.7524 75.3905 78.2379 76.5473 78.2379C77.432 78.2379 78.2655 78.5201 78.946 79.0677C79.7456 79.6984 80.2389 80.5779 80.358 81.5737C80.4771 82.5694 80.1879 83.5486 79.5414 84.3285L79.5244 84.3451Z" fill="#443C36"/>
</svg>
