<svg width="97" height="70" viewBox="0 0 97 70" fill="none" xmlns="http://www.w3.org/2000/svg">
<path d="M18.0611 54.9196C18.5863 54.8912 19.0973 54.8486 19.6083 54.8061C20.1476 54.7493 20.8005 54.6925 21.4251 54.579C22.4612 54.3946 23.3838 54.2243 24.3206 53.9973C25.5838 53.6851 26.7761 53.2594 27.8407 52.7344C29.0613 52.1384 29.9129 51.5425 30.5801 50.8188C31.2046 50.1236 31.5168 49.4141 31.531 48.6479C31.531 47.0303 31.531 45.1431 31.531 43.2843C31.531 43.0289 31.4601 42.7167 31.3181 42.362C31.1336 41.8937 30.8213 41.4538 30.353 40.9998C29.5865 40.2761 28.6213 39.666 27.3155 39.0842C25.9671 38.4882 24.4767 38.0342 22.7593 37.7078C21.7515 37.5092 20.8573 37.3673 20.0057 37.2821C19.0831 37.1828 18.0895 37.1119 16.9682 37.0835C16.7695 37.0835 16.5566 37.0835 16.3579 37.0835C15.9746 37.0835 15.5914 37.0835 15.2082 37.0977C14.9101 37.0977 14.612 37.0977 14.3282 37.1119C13.2636 37.1119 12.1423 37.2254 10.6803 37.4382C9.72935 37.5801 8.77838 37.8072 7.85578 38.02L7.68544 38.0626C6.26606 38.4031 4.90347 38.8997 3.64022 39.5525C2.68923 40.0491 1.97953 40.5599 1.41178 41.1559C0.702088 41.8937 0.36145 42.6741 0.36145 43.5397C0.36145 45.1856 0.36145 46.8174 0.36145 48.4634C0.36145 49.1019 0.503385 49.6269 0.801455 50.0952C1.08533 50.5492 1.44017 50.9607 1.88018 51.3297C3.29956 52.5358 5.01701 53.1885 6.33703 53.6141C6.93317 53.8128 7.5577 53.9689 8.15384 54.125L8.26739 54.1533C8.67901 54.2527 9.1616 54.3804 9.64419 54.4513C10.0984 54.5223 10.5526 54.579 10.9926 54.6358C11.3474 54.6783 11.6881 54.7209 12.0288 54.7777C12.9372 54.9196 13.6327 54.9054 14.3565 54.9621L14.8533 54.9905V59.4602L13.9875 59.5879C13.5049 59.6588 13.0365 59.7298 12.5681 59.8149C11.1487 60.0845 9.94226 60.5244 8.86353 61.1771C8.09706 61.6453 7.57191 62.1562 7.25964 62.7521C6.96157 63.3055 6.87639 63.8163 7.01833 64.3129C7.16027 64.8238 7.42995 65.2636 7.84157 65.6751C8.59384 66.413 9.55903 66.9806 10.8223 67.3779C11.6171 67.6333 12.412 67.8319 13.1926 67.9596C13.9733 68.0873 14.7682 68.1299 15.5062 68.1725C16.8263 68.2292 18.1463 68.1157 19.4521 67.8319C20.7012 67.5623 21.7373 67.1934 22.6315 66.711C23.3554 66.3137 23.8806 65.9022 24.278 65.4197C24.7464 64.838 24.9593 64.2988 24.9309 63.717C24.9025 63.2771 24.7322 62.8514 24.42 62.4258C24.1503 62.0568 23.8238 61.7305 23.398 61.4325C21.8935 60.3683 20.1618 59.9426 18.6715 59.6872C18.3734 59.6304 18.0611 59.6021 17.7489 59.5737L17.3514 59.5311C17.0392 59.5027 16.9966 59.2757 16.9966 59.148C16.9966 58.3108 16.9966 57.4737 16.9966 56.6365V55.0189L17.2237 54.9905L17.2521 55.2317V54.9763L18.0327 54.9196H18.0611ZM2.56147 43.0714C2.68922 42.7876 2.90213 42.5464 3.2144 42.291C3.98086 41.6667 4.84668 41.2694 5.51379 40.9714C6.46477 40.5599 7.48673 40.2335 8.53708 39.9781C9.30354 39.7937 9.91388 39.666 10.4958 39.5808C11.5604 39.4106 12.6249 39.297 13.6752 39.2545C13.9023 39.2545 14.1294 39.2261 14.3565 39.2119C14.6688 39.1835 14.9953 39.1693 15.3075 39.1551C15.9888 39.1551 16.6985 39.1551 17.5785 39.2119C18.3024 39.2403 19.0263 39.297 19.7502 39.368C19.9631 39.3822 20.176 39.4247 20.3889 39.4531L20.6444 39.4957C20.8289 39.5241 21.0276 39.5525 21.2121 39.5808C21.6521 39.6376 22.0922 39.7085 22.5322 39.8079C23.4122 40.0065 24.2638 40.2335 25.0729 40.489C26.0096 40.7869 26.8897 41.17 27.6845 41.6241C28.1813 41.9079 28.6639 42.2059 29.0187 42.6316C29.5439 43.2417 29.5439 43.4971 29.0187 44.1072C28.6639 44.5329 28.2239 44.8025 27.7129 45.1005C26.6484 45.7248 25.4561 46.1931 23.9657 46.6046C22.9296 46.8884 21.8651 47.1012 20.8005 47.2573C19.3102 47.4701 17.7772 47.5695 15.5062 47.612L14.8675 47.5695C14.243 47.5269 13.4339 47.4843 12.6249 47.4134C11.9152 47.3566 11.1487 47.2715 10.2403 47.1296C9.91387 47.087 9.60161 47.0019 9.28935 46.9309C9.14741 46.9026 9.00547 46.86 8.86353 46.8316C7.92674 46.633 7.03254 46.3634 6.19511 46.0512C5.25831 45.6965 4.16539 45.214 3.20021 44.4478C2.91634 44.2208 2.70341 43.9795 2.56147 43.6958C2.44792 43.4829 2.44792 43.2701 2.56147 43.0572V43.0714ZM17.025 63.5751V61.5886L17.5785 61.6737C17.7772 61.7021 17.9618 61.7305 18.1463 61.7589C19.0973 61.8582 20.0482 62.1136 20.9708 62.4825C21.496 62.6954 22.1064 62.9791 22.6031 63.4758C22.6457 63.5183 22.6883 63.5609 22.7309 63.6177L22.8728 63.7738L22.7735 63.9866C22.5038 64.2988 22.1915 64.5542 21.8083 64.767C21.0418 65.1927 20.1902 65.5049 19.225 65.7177C18.1179 65.9589 17.0959 66.0724 16.1024 66.0724C15.9321 66.0724 15.7759 66.0724 15.6056 66.0724C14.612 66.0299 13.4481 65.9447 12.2984 65.6326C11.5036 65.4197 10.581 65.1217 9.75774 64.5542C9.64419 64.4832 9.54484 64.3839 9.44548 64.2988C9.3887 64.2562 9.34612 64.1994 9.28935 64.1569C9.18999 64.0717 9.13321 63.9724 9.13321 63.8731C9.13321 63.7312 9.20419 63.6177 9.27516 63.5467C9.75775 63.0501 10.3397 62.7663 10.9074 62.5251C11.9152 62.0994 13.0081 61.8298 14.2714 61.7021L14.8675 61.6312V63.6035H17.025V63.5751ZM15.8185 52.8479C15.7191 52.8479 15.6198 52.8479 15.5204 52.8479C14.0443 52.8479 12.6959 52.7486 11.4326 52.5783C10.2687 52.4222 9.24677 52.2236 8.29578 51.9824C7.14609 51.6986 6.12414 51.3438 5.17315 50.904C4.50604 50.5918 3.72538 50.1945 3.04408 49.5844C2.61826 49.2012 2.41955 48.7472 2.46213 48.2222C2.47632 47.9526 2.47632 47.683 2.46213 47.3992C2.46213 47.2715 2.46213 47.1296 2.46213 46.9877V46.5762L2.9589 46.8458C3.07245 46.9026 3.17181 46.9593 3.27116 47.0161C4.36409 47.6404 5.57057 48.137 6.8764 48.4918C7.58609 48.6904 8.43771 48.9175 9.30353 49.1019C9.74354 49.1871 10.1978 49.258 10.6236 49.3148C10.8649 49.3431 11.1204 49.3857 11.3617 49.4283C12.5681 49.6269 13.9165 49.6837 15.5346 49.6979C16.3862 49.6979 17.2663 49.6979 18.1463 49.6411C19.0263 49.5985 19.807 49.556 20.5876 49.3999C20.9851 49.3289 21.3825 49.258 21.7941 49.2012C22.1773 49.1445 22.5605 49.0877 22.9438 49.0168C23.9657 48.8181 24.9877 48.5485 26.0948 48.1512C27.131 47.7823 28.0252 47.385 28.82 46.9026C28.8768 46.8742 28.9194 46.8458 28.9904 46.8174L29.4304 46.6046V47.4559C29.4304 47.8391 29.4304 48.208 29.4304 48.5769C29.4304 48.9316 29.2175 49.1871 29.0613 49.3573C28.4794 49.9958 27.7555 50.3931 27.06 50.7337C26.2084 51.1594 25.2716 51.5141 24.2922 51.7837C23.4122 52.0249 22.5464 52.2236 21.7089 52.3655C20.6728 52.5358 19.7502 52.6635 18.856 52.7202C17.8198 52.7912 16.7979 52.8337 15.8185 52.8337V52.8479Z" fill="#443C36"/>
<path d="M88.0366 19.3465C87.8662 19.3465 87.7101 19.3465 87.554 19.3748L87.1282 19.4032V5.08611C87.1282 2.4327 84.9707 0.261719 82.3023 0.261719H44.1351C41.4809 0.261719 39.3092 2.41851 39.3092 5.08611V19.389L38.8834 19.3606C36.5698 19.2046 34.1569 20.0843 32.411 21.7019C30.6368 23.3337 29.8987 25.533 30.4239 27.5905L30.7362 28.8108C32.3968 35.2386 33.9724 41.2974 32.9362 51.4003C32.9078 51.6699 32.8936 51.9395 32.8794 52.1949C32.851 54.0679 33.3762 55.7564 34.3982 57.0619C35.6188 58.6085 37.535 59.5024 39.6499 59.5024H44.0925L41.5518 69.6762H46.0087L51.0901 59.5024H75.2905L80.3861 69.6762H84.8288L82.2881 59.5024H86.7591C88.9024 59.5024 90.8327 58.6085 92.025 57.0619C93.1605 55.5862 93.6715 53.5713 93.4444 51.4003C92.4082 41.3116 93.9838 35.2528 95.6444 28.8392L95.9709 27.5905C96.4961 25.533 95.758 23.3337 93.9838 21.7019C92.3657 20.1978 90.1798 19.3465 87.994 19.3465H88.0366ZM41.3248 5.1003C41.3248 3.52528 42.5596 2.2908 44.1351 2.2908H82.3023C83.8778 2.2908 85.1126 3.52528 85.1126 5.1003V19.914L84.9423 19.985C81.9474 21.2336 80.0171 24.1425 80.0171 27.3777V34.6426H46.4061V27.3777C46.4061 24.1425 44.4758 21.2478 41.4809 19.985L41.3105 19.914V5.1003H41.3248ZM80.0312 36.6291V42.2481L46.4203 42.1488V36.6291H80.0312ZM43.1841 55.5294C42.3041 56.8206 41.2396 57.3882 39.7067 57.3882C38.1737 57.3882 36.8821 56.849 36.0163 55.7706C35.3917 55.0044 35.0227 53.9828 34.9517 52.8476C34.9233 52.4503 34.9375 52.0388 34.9801 51.6131V51.5138C36.0447 41.1414 34.3414 34.5859 32.6949 28.229L32.3968 27.0939C32.042 25.7033 32.5246 24.3553 33.7878 23.1776C34.9943 22.0708 36.8111 21.3472 38.4292 21.3472C41.7931 21.3472 44.419 23.9722 44.419 27.3351V50.8611C44.419 51.4429 44.3622 52.053 44.2345 52.7341C44.0358 53.8409 43.6667 54.8058 43.1983 55.5152L43.1841 55.5294ZM44.8022 67.6897H44.1635L46.1932 59.5308H48.8759L44.8022 67.6897ZM67.3562 57.5159C63.5948 57.5159 59.8335 57.5159 56.0721 57.5159H44.2487L44.6603 56.9767C44.7313 56.8916 44.8022 56.8065 44.859 56.7071C45.6255 55.5436 46.1507 54.0679 46.3352 52.4503C46.3919 51.9395 46.4203 51.4145 46.4203 50.8895V44.2488H46.69C51.7288 44.2488 56.7676 44.2488 61.8064 44.2488C67.7962 44.2488 73.7718 44.2488 79.7616 44.2488H80.0312V50.8753C80.0312 53.1314 80.5848 55.1463 81.6493 56.7071C81.7203 56.8065 81.7913 56.8916 81.8623 56.9909L82.2597 57.5017H81.7061C76.9228 57.5017 72.1253 57.5017 67.342 57.5017L67.3562 57.5159ZM81.6635 67.6897L77.5757 59.5308H80.2584L82.3023 67.6897H81.6635ZM94.0689 27.1081L93.785 28.2148C92.1386 34.5859 90.4353 41.1697 91.4998 51.6273C91.6702 53.2875 91.3011 54.7774 90.4779 55.8558C89.6121 56.9767 88.434 57.5159 86.8727 57.5159H86.8159C85.3255 57.5159 84.2184 56.8916 83.3384 55.6004C82.5294 54.4084 82.061 52.6915 82.061 50.9037V27.3777C82.061 24.0148 84.701 21.3897 88.0649 21.3897C89.6688 21.3897 91.4856 22.1134 92.6921 23.2202C93.9554 24.3979 94.438 25.7459 94.0831 27.1364L94.0689 27.1081Z" fill="#443C36"/>
</svg>
