<svg width="97" height="97" viewBox="0 0 97 97" fill="none" xmlns="http://www.w3.org/2000/svg">
<path d="M19.9439 66.9967C20.4367 66.9703 20.916 66.9307 21.3954 66.8913C21.9014 66.8385 22.5139 66.7858 23.0999 66.6804C24.0719 66.5092 24.9374 66.351 25.8163 66.1402C27.0013 65.8503 28.1199 65.4551 29.1186 64.9676C30.2637 64.4141 31.0626 63.8608 31.6886 63.1888C32.2744 62.5432 32.5673 61.8844 32.5806 61.1729C32.5806 59.6709 32.5806 57.9185 32.5806 56.1925C32.5806 55.9553 32.5141 55.6654 32.3809 55.336C32.2078 54.9012 31.9148 54.4927 31.4755 54.0711C30.7564 53.3991 29.8509 52.8326 28.6259 52.2924C27.3609 51.7389 25.9627 51.3174 24.3515 51.0143C23.4061 50.8299 22.5672 50.6981 21.7683 50.619C20.9027 50.5268 19.9706 50.4609 18.9186 50.4346C18.7322 50.4346 18.5325 50.4346 18.3461 50.4346C17.9865 50.4346 17.627 50.4346 17.2675 50.4478C16.9878 50.4478 16.7082 50.4478 16.4419 50.4609C15.4432 50.4609 14.3912 50.5663 13.0197 50.7639C12.1276 50.8957 11.2354 51.1066 10.3699 51.3042L10.2101 51.3437C8.87849 51.6599 7.60018 52.121 6.41507 52.7272C5.5229 53.1883 4.8571 53.6627 4.32447 54.2161C3.65868 54.9012 3.33911 55.6258 3.33911 56.4296C3.33911 57.9579 3.33911 59.4732 3.33911 61.0016C3.33911 61.5945 3.47227 62.082 3.7519 62.5169C4.01822 62.9384 4.35111 63.3205 4.7639 63.6632C6.09548 64.7831 7.7067 65.3892 8.94507 65.7844C9.50433 65.9689 10.0902 66.1139 10.6495 66.2588L10.756 66.2851C11.1422 66.3774 11.5949 66.496 12.0477 66.5618C12.4738 66.6277 12.8999 66.6804 13.3127 66.7331C13.6455 66.7726 13.9651 66.8122 14.2848 66.8649C15.137 66.9967 15.7895 66.9835 16.4685 67.0361L16.9346 67.0625V71.2129L16.1223 71.3315C15.6696 71.3973 15.2301 71.4633 14.7907 71.5423C13.4591 71.7926 12.3273 72.2011 11.3153 72.8072C10.5962 73.242 10.1036 73.7164 9.81061 74.2697C9.53098 74.7836 9.45107 75.2579 9.58423 75.719C9.71739 76.1934 9.97038 76.6018 10.3565 76.9839C11.0623 77.6691 11.9678 78.1962 13.1529 78.5651C13.8985 78.8022 14.6443 78.9867 15.3766 79.1052C16.109 79.2238 16.8547 79.2634 17.5471 79.3029C18.7855 79.3556 20.0239 79.2502 21.2489 78.9867C22.4207 78.7363 23.3927 78.3938 24.2316 77.9458C24.9108 77.5769 25.4035 77.1948 25.7763 76.7468C26.2157 76.2066 26.4154 75.7059 26.3888 75.1657C26.3622 74.7572 26.2024 74.3619 25.9095 73.9667C25.6565 73.6241 25.3502 73.3211 24.9507 73.0444C23.5393 72.0562 21.9147 71.6609 20.5166 71.4237C20.2369 71.371 19.9439 71.3447 19.651 71.3183L19.2781 71.2788C18.9852 71.2524 18.9453 71.0416 18.9453 70.923C18.9453 70.1456 18.9453 69.3683 18.9453 68.5909V67.0889L19.1583 67.0625L19.185 67.2865V67.0493L19.9173 66.9967H19.9439ZM5.40305 55.9948C5.5229 55.7312 5.72264 55.5073 6.01559 55.2701C6.73464 54.6904 7.5469 54.3215 8.17275 54.0448C9.06491 53.6627 10.0237 53.3596 11.009 53.1224C11.7281 52.9512 12.3007 52.8326 12.8466 52.7535C13.8453 52.5954 14.844 52.49 15.8293 52.4505C16.0424 52.4505 16.2554 52.4241 16.4685 52.4109C16.7615 52.3846 17.0678 52.3714 17.3607 52.3582C17.9998 52.3582 18.6656 52.3582 19.4912 52.4109C20.1703 52.4373 20.8494 52.49 21.5286 52.5559C21.7283 52.5691 21.928 52.6085 22.1278 52.6349L22.3674 52.6745C22.5405 52.7008 22.7269 52.7272 22.9 52.7535C23.3128 52.8062 23.7257 52.8721 24.1385 52.9644C24.964 53.1488 25.763 53.3596 26.522 53.5968C27.4008 53.8734 28.2264 54.2292 28.9721 54.6508C29.4381 54.9144 29.8909 55.1911 30.2237 55.5864C30.7165 56.1529 30.7165 56.3901 30.2237 56.9566C29.8909 57.3519 29.4781 57.6022 28.9987 57.8789C28.0001 58.4586 26.8815 58.8935 25.4833 59.2756C24.5113 59.5391 23.5126 59.7367 22.5139 59.8817C21.1158 60.0793 19.6776 60.1716 17.5471 60.211L16.9479 60.1716C16.362 60.132 15.603 60.0925 14.844 60.0266C14.1782 59.9739 13.4591 59.8949 12.6069 59.7631C12.3007 59.7235 12.0077 59.6445 11.7148 59.5786C11.5816 59.5523 11.4484 59.5127 11.3153 59.4864C10.4364 59.302 9.59756 59.0516 8.81193 58.7617C7.93307 58.4324 6.90776 57.9843 6.00228 57.2728C5.73597 57.0621 5.53621 56.838 5.40305 56.5746C5.29652 56.3769 5.29652 56.1793 5.40305 55.9816V55.9948ZM18.9719 75.0339V73.1893L19.4912 73.2683C19.6776 73.2947 19.8508 73.3211 20.0239 73.3474C20.916 73.4396 21.8081 73.6768 22.6737 74.0194C23.1664 74.217 23.739 74.4805 24.205 74.9417C24.245 74.9812 24.2849 75.0207 24.3249 75.0735L24.458 75.2184L24.3648 75.416C24.1118 75.7059 23.8188 75.9431 23.4594 76.1407C22.7403 76.536 21.9413 76.8259 21.0358 77.0235C19.9972 77.2474 19.0384 77.3528 18.1064 77.3528C17.9466 77.3528 17.8001 77.3528 17.6403 77.3528C16.7082 77.3134 15.6163 77.2343 14.5377 76.9444C13.7921 76.7468 12.9265 76.47 12.1542 75.9431C12.0477 75.8771 11.9545 75.7849 11.8612 75.7059C11.808 75.6664 11.768 75.6136 11.7148 75.5742C11.6216 75.495 11.5683 75.4028 11.5683 75.3106C11.5683 75.1789 11.6349 75.0735 11.7015 75.0075C12.1542 74.5464 12.7001 74.2829 13.2327 74.0589C14.1782 73.6636 15.2035 73.4133 16.3887 73.2947L16.9479 73.2289V75.0603H18.9719V75.0339ZM17.8401 65.0729C17.7468 65.0729 17.6536 65.0729 17.5604 65.0729C16.1756 65.0729 14.9106 64.9807 13.7254 64.8226C12.6335 64.6776 11.6748 64.4932 10.7827 64.2693C9.70408 64.0057 8.74535 63.6763 7.85318 63.2679C7.22733 62.978 6.49496 62.6091 5.85581 62.0425C5.45632 61.6867 5.26991 61.2651 5.30985 60.7776C5.32316 60.5273 5.32316 60.277 5.30985 60.0134C5.30985 59.8949 5.30985 59.7631 5.30985 59.6313V59.2492L5.77589 59.4996C5.88242 59.5523 5.97563 59.605 6.06884 59.6577C7.09417 60.2374 8.22602 60.6985 9.45107 61.028C10.1169 61.2124 10.9158 61.4233 11.7281 61.5945C12.1409 61.6736 12.567 61.7395 12.9665 61.7922C13.1929 61.8185 13.4326 61.858 13.6589 61.8976C14.7907 62.082 16.0557 62.1348 17.5737 62.1479C18.3726 62.1479 19.1983 62.1479 20.0239 62.0952C20.8494 62.0556 21.5818 62.0162 22.3142 61.8712C22.6871 61.8053 23.0599 61.7395 23.446 61.6867C23.8055 61.6341 24.165 61.5813 24.5246 61.5155C25.4833 61.331 26.4421 61.0806 27.4807 60.7117C28.4528 60.3692 29.2917 60.0002 30.0373 59.5523C30.0906 59.5259 30.1306 59.4996 30.1972 59.4732L30.61 59.2756V60.0661C30.61 60.4219 30.61 60.7645 30.61 61.107C30.61 61.4364 30.4103 61.6736 30.2637 61.8317C29.7178 62.4246 29.0387 62.7935 28.3862 63.1098C27.5873 63.505 26.7084 63.8344 25.7896 64.0848C24.964 64.3087 24.1518 64.4932 23.3661 64.625C22.3941 64.7831 21.5286 64.9017 20.6897 64.9544C19.7176 65.0203 18.7589 65.0598 17.8401 65.0598V65.0729Z" fill="#443C36"/>
<path d="M85.591 33.9645C85.4312 33.9645 85.2847 33.9645 85.1383 33.9908L84.7388 34.0172V20.7227C84.7388 18.2588 82.7148 16.2429 80.2114 16.2429H44.4051C41.9151 16.2429 39.8777 18.2457 39.8777 20.7227V34.004L39.4782 33.9776C37.3078 33.8327 35.0441 34.6496 33.4062 36.1517C31.7417 37.6669 31.0493 39.7091 31.542 41.6196L31.835 42.7528C33.3929 48.7215 34.871 54.3475 33.8989 63.7287C33.8723 63.9791 33.8589 64.2294 33.8456 64.4666C33.819 66.2058 34.3117 67.7737 35.2705 68.9859C36.4156 70.4221 38.2132 71.2521 40.1973 71.2521H44.3651L41.9816 80.6992H46.1628L50.9299 71.2521H73.6334L78.4138 80.6992H82.5817L80.1981 71.2521H84.3926C86.4033 71.2521 88.2142 70.4221 89.3327 68.9859C90.398 67.6157 90.8774 65.7447 90.6643 63.7287C89.6922 54.3607 91.1704 48.7346 92.7283 42.7792L93.0346 41.6196C93.5273 39.7091 92.8348 37.6669 91.1704 36.1517C89.6524 34.755 87.6017 33.9645 85.5511 33.9645H85.591ZM41.7686 20.7359C41.7686 19.2734 42.9271 18.1271 44.4051 18.1271H80.2114C81.6895 18.1271 82.8479 19.2734 82.8479 20.7359V34.4915L82.6881 34.5574C79.8785 35.7168 78.0676 38.4179 78.0676 41.422V48.168H46.5356V41.422C46.5356 38.4179 44.7247 35.73 41.9151 34.5574L41.7552 34.4915V20.7359H41.7686ZM78.0808 50.0126V55.2303L46.5489 55.1381V50.0126H78.0808ZM43.5129 67.5629C42.6874 68.7619 41.6887 69.2889 40.2506 69.2889C38.8124 69.2889 37.6007 68.7883 36.7885 67.7869C36.2025 67.0754 35.8563 66.1268 35.7897 65.0727C35.7631 64.7037 35.7764 64.3216 35.8164 63.9263V63.8341C36.8151 54.2026 35.2172 48.1154 33.6725 42.2125L33.3929 41.1585C33.06 39.8672 33.5128 38.6155 34.6978 37.522C35.8297 36.4942 37.5341 35.8223 39.0521 35.8223C42.208 35.8223 44.6714 38.2598 44.6714 41.3825V63.2281C44.6714 63.7683 44.6182 64.3348 44.4984 64.9673C44.3119 65.995 43.9657 66.891 43.5262 67.5497L43.5129 67.5629ZM45.0309 78.8546H44.4317L46.3359 71.2785H48.8527L45.0309 78.8546ZM66.1898 69.4075C62.6611 69.4075 59.1325 69.4075 55.6037 69.4075H44.5117L44.8978 68.9068C44.9644 68.8278 45.0309 68.7488 45.0842 68.6565C45.8033 67.5761 46.296 66.2058 46.4691 64.7037C46.5223 64.2294 46.5489 63.7419 46.5489 63.2544V57.0881H46.802C51.5291 57.0881 56.2562 57.0881 60.9833 57.0881C66.6026 57.0881 72.2086 57.0881 77.8279 57.0881H78.0808V63.2412C78.0808 65.3362 78.6002 67.2072 79.5988 68.6565C79.6654 68.7488 79.732 68.8278 79.7987 68.92L80.1715 69.3943H79.6521C75.1647 69.3943 70.6639 69.3943 66.1765 69.3943L66.1898 69.4075ZM79.6122 78.8546L75.7772 71.2785H78.294L80.2114 78.8546H79.6122ZM91.2502 41.1717L90.9839 42.1994C89.4393 48.1154 87.8414 54.2289 88.84 63.9395C88.9999 65.4811 88.6536 66.8646 87.8813 67.866C87.0691 68.9068 85.9639 69.4075 84.4991 69.4075H84.4459C83.0476 69.4075 82.009 68.8278 81.1835 67.6288C80.4245 66.522 79.9851 64.9277 79.9851 63.2676V41.422C79.9851 38.2994 82.4618 35.8618 85.6176 35.8618C87.1223 35.8618 88.8267 36.5338 89.9586 37.5615C91.1437 38.6551 91.5965 39.9068 91.2635 41.198L91.2502 41.1717Z" fill="#443C36"/>
</svg>
