<svg width="97" height="97" viewBox="0 0 97 97" fill="none" xmlns="http://www.w3.org/2000/svg">
<path d="M84.3748 34.6789C86.5417 32.4643 86.5417 29.5965 84.3748 27.382C83.841 26.8403 83.3071 26.3304 82.7261 25.7728C82.5377 25.5816 82.3336 25.3904 82.1294 25.1993L82.4592 24.8647C82.9302 24.4026 83.3542 23.9725 83.7625 23.5423C85.6938 21.5827 85.6938 19.2406 83.7939 17.2969C82.1137 15.5762 80.4336 13.8715 78.7378 12.1827C77.8271 11.2746 76.7908 10.7807 75.723 10.7807C74.6553 10.7807 73.6189 11.2746 72.7239 12.1986C72.3157 12.6129 71.9388 13.0749 71.5463 13.5529C71.4049 13.7122 71.2636 13.8874 71.1223 14.0627L70.8083 13.7122C70.5413 13.4095 70.3215 13.1705 70.1174 12.9156C68.4844 10.9559 66.8985 10 65.2654 10C63.6481 10 62.0779 10.94 60.4449 12.8837C60.0366 13.3776 59.597 13.8556 59.1259 14.3654C58.9689 14.5407 58.7962 14.7318 58.6234 14.9071C58.5449 14.8115 58.4664 14.7159 58.3879 14.6203C58.1524 14.3335 57.9482 14.0946 57.7284 13.8715C55.6872 11.8163 52.955 11.8322 50.9137 13.8715C49.9402 14.8593 48.9667 15.8471 47.9932 16.8349L47.0196 17.8227C44.7899 20.101 44.7742 22.7935 47.0196 25.0559C48.4642 26.5216 49.9088 27.9874 51.3377 29.4372L55.0434 33.1972C55.1847 33.3406 55.326 33.484 55.4359 33.6114L33.2175 56.1554C33.1076 55.9961 32.982 55.8049 32.825 55.6615C30.3126 53.0964 27.4548 50.1808 24.6756 47.3927C22.6814 45.3853 19.9022 45.3693 17.908 47.3609C16.4791 48.7947 15.0659 50.2286 13.7155 51.6147C11.7999 53.5903 11.7999 56.3466 13.7155 58.3381C13.9511 58.593 14.218 58.8161 14.485 59.071C14.5635 59.1347 14.642 59.2144 14.7205 59.294L13.7783 60.234C13.0089 60.9988 12.2709 61.7157 11.5486 62.4645C9.49165 64.5835 9.47595 67.5309 11.5486 69.634C12.0982 70.1916 12.6478 70.7333 13.2445 71.275C13.4486 71.4662 13.6527 71.6733 13.8568 71.8645L13.323 72.3902C12.8676 72.8363 12.4594 73.2665 12.0354 73.6807C10.3239 75.4492 10.3239 77.839 12.0354 79.6075C13.6527 81.2804 15.3643 83.017 17.2642 84.9129C19.0542 86.7132 21.3782 86.7132 23.1682 84.9129C23.5921 84.4827 24.0161 84.0366 24.4401 83.5746C24.5814 83.4312 24.7227 83.2719 24.864 83.1126L25.3508 83.6065C25.9317 84.196 26.4656 84.7376 26.9995 85.2793C28.1301 86.4264 29.4019 87 30.6738 87C31.9456 87 33.2332 86.4265 34.3794 85.2634C35.0389 84.5943 35.6985 83.9251 36.3736 83.2241L37.3943 82.1726C37.3943 82.1726 37.4728 82.2841 37.5199 82.3319C37.724 82.5868 37.9124 82.8417 38.1165 83.0488C40.2206 85.1837 42.9528 85.1837 45.0569 83.0488C46.3759 81.7105 47.6948 80.3722 49.0138 79.0339C51.1022 76.899 51.1021 74.1587 49.0452 72.0397C47.0667 70.0163 45.0726 67.993 43.0784 65.9855L42.8429 65.7465C42.2619 65.1571 41.6809 64.5835 41.0999 64.0259L40.4561 63.4045L62.7531 40.7809C62.8473 40.9561 62.9572 41.1473 63.1143 41.3066C65.501 43.7443 68.4529 46.7714 71.3264 49.6391C73.2735 51.5988 76.0057 51.5988 77.9684 49.671C79.4758 48.1893 80.9204 46.7076 82.2865 45.2897C84.1079 43.3778 84.1079 40.6056 82.2865 38.6938C82.0195 38.4229 81.7526 38.168 81.4543 37.9131C81.3758 37.8494 81.2972 37.7697 81.203 37.69C81.5171 37.3714 81.8311 37.0687 82.1294 36.766C82.8989 36.0012 83.6211 35.2843 84.3277 34.5674L84.3748 34.6789ZM80.8262 40.2073C81.1402 40.526 81.3443 40.988 81.5799 41.466C81.6741 41.6731 81.784 41.8961 81.8939 42.1192C81.784 42.3263 81.6741 42.5493 81.5642 42.7565C81.3287 43.2344 81.1088 43.6965 80.7948 44.031C79.8526 45.0826 78.832 46.1022 77.8428 47.09C77.4973 47.4405 77.1519 47.7751 76.8065 48.1256C75.3933 49.5436 73.9644 49.5595 72.5669 48.1256C67.2282 42.7087 61.8895 37.2917 56.5508 31.8748L49.8146 25.0399C49.3121 24.5301 48.8096 24.0203 48.3072 23.5104C47.0824 22.2518 47.0667 20.7542 48.2758 19.5274C49.7675 17.982 51.1493 16.5959 52.4683 15.2735C53.0492 14.6841 53.7087 14.3973 54.3525 14.3973C54.9963 14.3973 55.6714 14.7 56.2524 15.2895C65.0142 24.1477 72.8966 32.1457 80.8105 40.2233L80.8262 40.2073ZM72.6297 15.1301L73.0065 14.7637C73.4305 14.3495 73.8701 13.9193 74.3098 13.4891C75.2048 12.6447 76.2883 12.6288 77.1362 13.4891C79.0047 15.3532 80.8419 17.2173 82.6005 19.0494C83.4013 19.8939 83.417 20.9613 82.6005 21.8694C82.1608 22.3633 81.7212 22.8413 81.2972 23.2874L80.9675 23.6538L72.614 15.162L72.6297 15.1301ZM82.8203 28.7043C84.3591 30.2816 84.3591 31.8111 82.8203 33.3884C82.0823 34.1372 81.3444 34.9019 80.6221 35.6348L80.0097 36.2562L60.2094 16.1657C60.492 15.863 60.7746 15.5762 61.0572 15.2576C61.8424 14.4132 62.6589 13.5529 63.5225 12.7563C64.6216 11.7525 66.2076 11.8641 67.3852 13.043C68.8926 14.5566 70.3843 16.0861 71.876 17.5996L77.9841 23.7972C79.5857 25.4223 81.203 27.0633 82.8046 28.6884L82.8203 28.7043ZM60.9003 39.4426L38.8859 61.7476L35.0232 57.8123L57.0061 35.5073L60.9003 39.4426ZM23.4037 81.9177C23.2624 82.061 23.121 82.2044 22.9797 82.3478C22.5087 82.8417 22.0219 83.3356 21.5038 83.7976C20.7187 84.4827 19.6666 84.4509 18.9286 83.7339C17.0444 81.8699 15.1601 79.958 13.3544 78.0621C12.585 77.2655 12.585 76.1821 13.3544 75.3218C13.7784 74.8279 14.218 74.3658 14.6577 73.8879L15.0816 73.4258L23.4037 81.9177ZM13.1974 68.4391C11.6586 66.8618 11.6586 65.3323 13.1974 63.755C13.8569 63.0859 14.5006 62.4008 15.1601 61.7316L16.0081 60.8554L35.7926 80.9299C35.4943 81.2485 35.2117 81.5512 34.9133 81.8858C34.1282 82.7461 33.3117 83.6383 32.4324 84.4509C31.3647 85.4227 29.8102 85.2953 28.6482 84.1322C27.1565 82.6346 25.6648 81.1051 24.1731 79.5916L18.6303 73.9675C16.8245 72.1353 15.0188 70.3031 13.2131 68.4709L13.1974 68.4391ZM34.7406 60.473L41.9321 67.7699C43.8164 69.6818 45.7006 71.5777 47.5692 73.4896C48.9667 74.9075 48.9667 76.3573 47.5692 77.7912L47.1766 78.1895C45.999 79.4004 44.8056 80.6112 43.6123 81.8061C42.3561 83.0648 40.9272 83.0648 39.7025 81.8221L38.8388 80.9458C31.0977 73.1072 23.1054 64.9977 15.2701 56.9998C14.9403 56.6652 14.7048 56.2032 14.4535 55.7093C14.3436 55.4862 14.2337 55.2632 14.1081 55.0401C14.2337 54.8171 14.3436 54.594 14.4535 54.371C14.7048 53.8771 14.9403 53.4151 15.2701 53.0486C16.275 51.9493 17.3584 50.8659 18.3948 49.8303L19.3212 48.9063C20.6244 47.5998 22.069 47.5998 23.3723 48.9222C27.1722 52.7618 30.9564 56.6174 34.7563 60.473H34.7406Z" fill="#443C36"/>
</svg>
