<svg width="97" height="97" viewBox="0 0 97 97" fill="none" xmlns="http://www.w3.org/2000/svg">
<path d="M75.6986 38.2301C72.7338 38.2301 69.7856 38.2301 66.8207 38.2301H61.1742L61.4074 36.9464C61.4407 36.6797 61.474 36.563 61.5073 36.4463C62.7066 33.1788 62.8065 29.778 61.7905 26.0437C60.7078 22.0093 58.8423 18.9419 56.1107 16.6913C55.4611 16.1411 55.0613 16.2245 54.7282 16.3745C54.3284 16.5579 53.9619 16.858 53.9453 17.7249C53.912 19.342 53.5788 20.809 52.9292 22.2093L51.9132 24.4099L50.8472 21.9593C50.7806 21.7926 50.7139 21.6592 50.664 21.5258C49.5147 18.3917 47.9823 15.5576 46.1001 13.0737C45.2007 11.89 44.1846 10.7898 42.9187 9.52277C42.469 9.05598 41.8527 9.32272 41.6028 9.45608C41.1364 9.70615 40.8533 10.2396 40.92 10.6897C41.2197 12.5402 41.0366 14.4574 40.3536 16.7246C39.3209 20.1755 37.5886 23.293 35.7731 26.4604C34.4406 28.7776 33.6577 31.2116 33.4245 33.6956C33.3579 34.4291 33.3746 35.1793 33.3912 35.9795C33.3912 36.3629 33.4079 36.7631 33.4079 37.1632V38.2468H28.4109C25.6793 38.2468 22.9309 38.2468 20.1993 38.2468C19.483 38.2301 19 38.6969 19 39.4137C19 40.1305 19.483 40.5807 20.2825 40.5973C20.7822 40.5973 21.2986 40.5973 21.8149 40.5973H23.4639L23.5805 41.5476C24.6465 50.3332 28.944 56.7349 36.7225 61.1193L37.522 61.5694L28.6274 85.3921C28.4609 85.8422 28.4609 86.259 28.6108 86.5924C28.744 86.8591 28.9606 87.0592 29.277 87.1759C30.01 87.4426 30.6429 87.1093 30.976 86.259L31.2591 85.5088C31.5923 84.6586 31.9087 83.825 32.192 82.9582C32.5084 81.9413 33.2079 81.4411 34.3073 81.4411C41.3031 81.4578 48.2987 81.4578 55.2944 81.4411C56.044 81.4411 56.9435 81.6078 57.4598 82.8915C58.7091 86.0256 62.057 87.8094 65.4382 87.126C68.703 86.4758 71.0848 83.5583 71.0848 80.1908C71.0848 76.3398 68.1033 73.2224 64.2723 73.1056C63.1896 73.0724 62.5234 72.5722 62.1569 71.5386C61.7905 70.4717 61.3907 69.4214 60.991 68.3712L58.4759 61.6694L59.2754 61.2193C66.9873 56.8182 71.2846 50.4165 72.4173 41.6643L72.5339 40.7141H74.1996C74.6993 40.7141 75.2157 40.7141 75.7153 40.7141C76.265 40.7141 76.5981 40.514 76.8313 40.0973C77.0479 39.6971 77.0645 39.2637 76.8313 38.8803C76.5981 38.4801 76.1817 38.2468 75.682 38.2468L75.6986 38.2301ZM36.5226 31.345C36.9723 29.978 37.5053 28.711 38.1383 27.5608L38.4548 26.9772C40.1704 23.8264 41.8027 20.859 42.8021 17.5581L43.8848 13.8906L45.1506 16.0078C47.0329 19.1586 48.9317 22.5761 49.4814 26.6272C49.548 27.094 49.7812 27.4607 50.1143 27.6441C50.4641 27.8275 50.8971 27.8275 51.3469 27.6107C53.0126 26.8271 54.2118 25.4768 55.1445 23.3763L56.4105 20.3088L57.5265 22.1094C58.4426 23.593 59.0922 25.1767 59.5086 26.9772C60.4413 30.8948 60.1249 34.229 58.5424 37.1632C58.1261 37.93 57.5264 38.2968 56.677 38.2968C52.0965 38.2968 47.5158 38.2968 42.952 38.2968H37.8718C37.7052 38.2968 37.5387 38.2968 37.3554 38.2635L36.3227 38.1967L36.1562 37.3799C35.7564 35.3961 35.873 33.3622 36.5393 31.345H36.5226ZM64.0058 75.5563C66.5376 75.5563 68.603 77.6069 68.6197 80.1408C68.6197 82.6915 66.5875 84.7753 64.0558 84.792H64.0224C62.7899 84.792 61.6406 84.3085 60.7745 83.4416C59.8917 82.5581 59.4086 81.3912 59.4086 80.1408C59.4086 77.6069 61.4907 75.5396 64.0224 75.5396L64.0058 75.5563ZM59.9915 72.5889C60.1248 72.9223 60.5079 73.9559 59.4086 74.8228C58.4592 75.573 57.7762 76.6232 57.2599 78.1403L57.0101 78.8738H33.6244L39.7374 62.5696L40.7034 62.8697C45.567 64.3701 50.3142 64.3534 55.2445 62.8697L56.2105 62.5696L57.8263 66.9207C58.5258 68.8046 59.2421 70.705 59.9583 72.5889H59.9915ZM69.7856 41.8977C69.2859 50.6666 61.4074 60.6358 49.5646 61.436C49.015 61.4693 48.4653 61.486 47.9323 61.486C35.4566 61.486 26.9785 51.6002 26.1623 41.9144L26.0623 40.7474H69.8522L69.7856 41.8977Z" fill="#443C36"/>
</svg>
