<svg width="97" height="97" viewBox="0 0 97 97" fill="none" xmlns="http://www.w3.org/2000/svg">
<path d="M84.5713 44.4559C82.5543 44.4559 80.5204 44.4559 78.5034 44.4559C78.0328 44.4559 77.8142 44.3724 77.747 43.821C77.2595 39.1264 73.7802 35.3339 69.1577 34.3816C68.9393 34.3315 68.7208 34.2646 68.4014 34.1644C68.5191 33.3959 68.6031 32.6607 68.7711 31.9424C69.0233 30.8397 69.0569 30.8731 70.1831 30.9734C73.8474 31.2908 78.4025 30.2717 80.3019 25.1594C81.2936 22.4696 82.7895 20.0303 84.8738 17.9754C85.5125 17.3405 85.2268 16.4885 84.3191 16.3214C83.3106 16.1376 82.2685 15.9705 81.2432 15.9037C78.2344 15.6865 75.2257 15.7032 72.3515 16.7725C69.7629 17.7248 67.8803 19.3955 67.1576 22.1354C66.5861 24.3575 66.8886 26.5461 67.4601 28.718C67.5442 29.0187 67.6114 29.3528 67.5273 29.6368C67.3424 30.2884 67.0735 30.9066 66.855 31.5247C66.1491 30.7562 65.4095 30.0044 64.7203 29.2025C64.5186 28.9685 64.3674 28.5843 64.3674 28.2669C64.3674 27.1642 64.5522 26.0448 64.5186 24.9422C64.3841 21.1831 62.3503 18.5935 58.7197 17.6245C54.8032 16.5887 50.9709 17.2069 47.1721 18.2761C46.3149 18.5267 46.2141 19.3788 46.9368 20.0136C49.1555 21.9349 50.8532 24.2237 52.1643 26.8301C53.2736 29.002 55.1057 30.3385 57.5094 30.8731C59.2575 31.2574 60.9888 31.0736 62.7201 30.6727C62.989 30.6059 63.3925 30.6225 63.5773 30.7896C64.6194 31.6918 65.359 32.7945 65.7456 34.1143C60.0139 35.2169 56.7866 38.6419 55.9966 44.3891H41.5749C40.8017 38.8257 37.6584 35.4676 32.078 34.2646C32.2965 33.2622 32.4982 32.3099 32.6999 31.3576C32.784 30.9066 33.0193 30.7562 33.5067 30.706C34.9354 30.5557 36.381 30.4388 37.7425 30.0545C42.1463 28.8349 44.9198 26.1116 45.7098 21.4671C46.3149 17.9587 47.5082 14.634 49.4077 11.5766C49.6262 11.2258 49.7607 10.6076 49.5926 10.3069C49.4077 10.0062 48.7858 9.77226 48.3992 9.80567C45.7602 10.073 43.1045 10.2902 40.4991 10.7914C37.6921 11.3427 35.0531 12.412 32.8176 14.2831C30.5148 16.1877 29.3214 18.627 29.3886 21.6342C29.439 24.04 30.2123 26.2454 31.2375 28.3838C31.372 28.6512 31.5065 29.002 31.4225 29.2525C31.2039 29.9877 30.8678 30.706 30.6325 31.3243C29.7248 30.2884 28.7835 29.2693 27.8926 28.1833C27.6742 27.9161 27.5396 27.515 27.5229 27.1809C27.5229 26.0783 27.7078 24.9589 27.6069 23.8562C27.3884 20.9659 25.9261 18.8608 23.1358 17.8751C19.3203 16.5219 15.5383 17.1567 11.79 18.226C11 18.4432 10.9328 19.3453 11.6219 19.9301C13.6221 21.6509 15.1349 23.7225 16.3283 26.0615C17.3032 27.9829 18.9337 29.169 21.018 29.7037C22.6315 30.1047 24.2452 29.9208 25.842 29.5867C26.0605 29.5366 26.363 29.4865 26.4975 29.6034C27.9767 30.8397 28.9852 32.3601 29.4558 34.248C23.7409 35.3506 20.5473 38.7589 19.7069 44.4225H18.816C16.7149 44.4225 14.6139 44.4225 12.5128 44.4225C11.2353 44.4225 11 44.6564 11 45.8927C11 47.5801 11 49.2842 11 50.9716C11 52.3249 11.1849 52.5253 12.58 52.5253C13.9583 52.5253 15.3366 52.5253 16.7485 52.5253C16.9502 55.7833 17.1351 58.9242 17.32 62.1318C16.4964 62.1318 15.7736 62.1318 15.0677 62.1318C14.16 62.1318 13.8575 62.4326 13.8575 63.3013C13.8575 65.2059 13.8575 67.1106 13.8575 69.0152C13.8575 69.9006 14.1768 70.2014 15.0677 70.218C15.9922 70.218 16.9166 70.218 17.8747 70.218C18.0932 73.409 18.2949 76.5166 18.5135 79.741C17.7907 79.741 17.1856 79.741 16.5805 79.741C15.6728 79.741 15.3534 80.0584 15.3366 80.994C15.3366 82.7315 15.3366 84.4858 15.3366 86.2233C15.3366 87.61 15.5551 87.8272 16.9334 87.8272C37.9778 87.8272 59.0054 87.8272 80.0498 87.8272C80.201 87.8272 80.3692 87.8272 80.5204 87.8272C81.2431 87.8272 81.613 87.4596 81.6297 86.7579C81.6297 84.7698 81.6466 82.7983 81.6297 80.8103C81.6297 80.0417 81.26 79.7577 80.4531 79.741C79.8144 79.741 79.1925 79.741 78.4697 79.741C78.6883 76.5166 78.89 73.3924 79.1085 70.218C80.1002 70.218 80.9911 70.218 81.8987 70.218C82.8232 70.218 83.1425 69.9006 83.1425 68.9817C83.1425 67.1106 83.1425 65.2227 83.1425 63.3515C83.1425 62.4326 82.8232 62.1486 81.8819 62.1318C81.1423 62.1318 80.4195 62.1318 79.6463 62.1318C79.8649 58.8907 80.0834 55.7665 80.3019 52.5253C81.8146 52.5253 83.2434 52.5253 84.6721 52.5253C85.6975 52.5253 86 52.208 86 51.1888C86 49.4179 86 47.647 86 45.876C86 44.7065 85.7311 44.4392 84.5377 44.4392L84.5713 44.4559ZM68.9056 23.2548C69.1914 21.016 70.5865 19.5459 72.6371 18.6938C75.4273 17.541 78.3353 17.5744 81.2768 17.8083C81.5793 17.825 81.8819 17.8918 82.2853 17.9587C82.0836 18.2427 81.9323 18.4432 81.7979 18.6604C80.6717 20.6485 79.2933 22.553 78.4697 24.6748C77.041 28.2669 73.5448 29.4865 70.099 28.9518C70.5865 28.2669 70.9395 27.5318 71.511 27.0138C72.6707 25.9446 73.8978 24.9255 75.1584 23.9732C75.9148 23.4052 76.2006 23.0376 75.898 22.4696C75.5787 21.8849 75.024 21.8347 74.1667 22.3192C72.4018 23.3384 70.8891 24.6415 69.6284 26.2454C69.4771 26.4458 69.3091 26.6463 69.141 26.8467C69.0569 26.8301 68.9729 26.8134 68.9056 26.7799C68.9056 25.5938 68.788 24.4076 68.9393 23.2381L68.9056 23.2548ZM62.552 26.4625C62.3335 26.2286 62.1318 26.0282 61.9469 25.8276C60.5854 24.2739 58.9381 23.0877 57.0556 22.2022C56.4505 21.9182 55.9126 21.9015 55.5596 22.5698C55.2739 23.1044 55.5092 23.5889 56.2319 23.9397C58.7869 25.1928 60.7198 26.9303 61.6611 28.8349C58.417 29.854 55.2067 28.5676 53.677 25.7107C53.1056 24.6415 52.4668 23.5889 51.7777 22.6032C51.0886 21.6007 50.2817 20.6819 49.4581 19.6628C49.811 19.5792 50.1473 19.479 50.5003 19.4122C52.9711 18.9778 55.4587 18.7439 57.9464 19.3453C61.325 20.164 63.1403 22.9541 62.552 26.4792V26.4625ZM25.6907 25.4267C24.2116 23.3717 22.4803 21.8179 20.3456 20.6986C20.1103 20.5816 19.8749 20.448 19.6396 20.3478C19.1186 20.1472 18.6815 20.3143 18.4294 20.7988C18.1773 21.3001 18.3286 21.7345 18.7992 22.0351C18.9841 22.1521 19.169 22.2357 19.3539 22.3359C21.4213 23.4553 23.1022 24.9923 24.3965 26.9637C24.5477 27.1977 24.6822 27.4482 24.8335 27.6989C22.6484 28.601 19.606 27.632 18.3286 25.6439C17.0343 23.6224 15.74 21.6175 14.3953 19.5291C14.8828 19.4456 15.5047 19.3287 16.1434 19.2451C18.1269 18.9778 20.1271 18.8943 22.0769 19.4957C24.7158 20.2976 26.1614 22.5865 25.6907 25.4434V25.4267ZM66.855 36.0691C71.948 36.2027 76.1669 40.2625 75.814 44.4392H58.0473C58.1817 40.1456 61.8629 35.9353 66.855 36.0691ZM35.3557 14.8679C38.1291 13.1638 41.2386 12.4788 44.4155 12.0444C45.2223 11.9275 46.0459 11.8773 46.9536 11.7771C46.9032 11.9776 46.8863 12.0945 46.836 12.1948C45.34 15.1352 44.281 18.226 43.7264 21.4671C43.0876 25.2596 40.6336 27.3479 37.0702 28.3337C36.1625 28.5842 35.2212 28.7013 34.1791 28.9017C35.154 24.5747 36.8516 20.8323 40.0117 17.8584C40.1965 17.6747 40.5159 17.5076 40.5495 17.2904C40.6167 16.9228 40.6504 16.3882 40.4487 16.171C40.247 15.9538 39.7091 15.9538 39.3225 15.9873C39.104 16.004 38.9191 16.3047 38.7174 16.4718C35.7759 19.3287 33.7925 22.7369 32.7335 26.6797C32.6663 26.6964 32.5823 26.7131 32.5151 26.7298C32.1788 25.5938 31.7418 24.4744 31.5402 23.3216C30.8509 19.5792 32.1116 16.856 35.3725 14.8512L35.3557 14.8679ZM30.6661 36.1525C35.2717 36.1191 39.2216 39.7445 39.5746 44.3891H21.7911C22.0432 39.8448 26.0101 36.186 30.6661 36.1525ZM79.6968 81.6958V85.9059H17.3536V81.6958H79.7135H79.6968ZM19.8245 70.2848H77.2763C77.0579 73.4592 76.8561 76.5667 76.6376 79.6909H20.4801C20.2615 76.55 20.0598 73.4425 19.8413 70.2848H19.8245ZM81.2264 64.12V68.2968H15.8577V64.12H81.2432H81.2264ZM18.6647 52.6924H78.4025C78.2008 55.8166 77.9823 58.9408 77.7806 62.1318H19.2866C19.0849 58.991 18.8664 55.8668 18.6647 52.6924ZM84.067 50.6709H12.9666V46.4941H84.067V50.6709Z" fill="#443C36"/>
</svg>
