<svg width="97" height="97" viewBox="0 0 97 97" fill="none" xmlns="http://www.w3.org/2000/svg">
<g clip-path="url(#clip0_452_170)">
<path d="M70.1138 47.556V10.252H26.2485V47.5402H5.50251V87.2034H90.8757V47.5402H70.1296L70.1138 47.556ZM28.606 12.6428H67.7564V47.556H28.606V12.627V12.6428ZM46.9947 84.8442H7.84428V49.931H46.9947V84.8442ZM88.5025 84.8442H49.3521V49.931H88.5025V84.8442Z" fill="#443C36"/>
<path d="M17.9187 77.5133H35.0499V60.2546H17.9187V77.5133ZM20.2763 62.6297H32.6924V75.1383H20.2763V62.6297Z" fill="#443C36"/>
<path d="M71.4027 81.092L83.5203 68.8842L71.4027 56.6765L59.2851 68.8842L71.4027 81.092ZM80.1884 68.8842L71.4027 77.7353L62.617 68.8842L71.4027 60.0332L80.1884 68.8842Z" fill="#443C36"/>
<path d="M48.1733 21.2725L38.7433 37.7235H57.6034L48.1733 21.2725ZM48.1733 26.0225L53.5171 35.3485H42.814L48.1577 26.0225H48.1733Z" fill="#443C36"/>
</g>
<defs>
<clipPath id="clip0_452_170">
<rect width="86" height="78" fill="white" transform="translate(5 10)"/>
</clipPath>
</defs>
</svg>
