<svg width="97" height="97" viewBox="0 0 97 97" fill="none" xmlns="http://www.w3.org/2000/svg">
<path d="M28.0176 54.8579V55.0626C28.0176 55.7449 28.0176 56.393 28.0877 57.0241C28.1404 57.4163 28.3858 57.6551 28.5436 57.7574C28.8241 57.9621 29.1923 58.0303 29.543 57.9621C30.332 57.8086 30.56 57.0582 30.5775 56.6829C30.5775 56.086 30.5775 55.489 30.5775 54.8921V52.4018H56.212V54.6022C56.212 55.2843 56.212 55.9496 56.212 56.6147C56.212 57.0412 56.3698 57.4163 56.6503 57.6722C56.8256 57.8256 57.1412 58.0303 57.5444 57.9962C58.1406 57.9792 58.8069 57.4334 58.7894 56.5806C58.7719 46.5347 58.7719 36.4716 58.7719 26.4256V16.6355C58.7719 16.2261 58.7543 15.7997 58.7719 15.3904C58.8595 13.9577 59.5959 12.7979 60.9109 12.0474C62.3137 11.2458 63.9794 11.2458 65.3821 12.0474C66.7497 12.849 67.5738 14.2647 67.5037 15.7486C67.5037 15.885 67.5036 16.0897 67.7316 16.3796C67.977 16.7208 68.4155 17.0619 69.1167 16.8743C69.5901 16.7549 69.9934 16.175 69.9934 15.885C70.0285 15.1516 69.9233 14.4353 69.6778 13.7018C69.1343 12.0304 67.8719 10.5977 66.2062 9.76192C64.5755 8.94323 62.7169 8.78972 61.1213 9.3014C58.2283 10.2395 56.247 12.8149 56.1943 15.7315C56.1593 17.5224 56.1768 19.3133 56.1943 21.0871V25.317H30.7704L30.5775 23.8843V22.0252C30.5775 19.842 30.5775 17.6588 30.5775 15.4927C30.5775 14.8787 30.7353 14.2476 31.0159 13.7189C31.8399 12.1156 33.7161 11.1946 35.5746 11.5016C37.3455 11.7916 38.7483 13.0367 39.1165 14.674C39.2217 15.1004 39.2918 15.5268 39.3444 15.9703C39.3795 16.2773 39.5723 16.5502 39.8529 16.7378C40.1509 16.9254 40.484 16.9937 40.7821 16.9254C41.3607 16.7719 41.7991 16.2432 41.7816 15.6974C41.7641 15.2198 41.6763 14.6911 41.5361 14.06C41.0977 12.2009 39.7126 10.5636 37.8716 9.67663C36.0305 8.80678 34.0141 8.77267 32.1907 9.59136C29.4203 10.8364 28.0527 12.8832 28.0351 15.868C28.0001 19.552 28 23.2361 28 26.9203V31.2695C28 39.1323 28 47.0122 28 54.875L28.0176 54.8579ZM30.6126 27.8753H56.1943V38.0919H30.6126V27.8753ZM30.6476 41.5713L30.9106 40.6333L31.9101 40.5821H56.1768V49.8776L32.2082 49.9117H32.173C31.9451 49.9117 31.4192 49.8946 30.9984 49.4854C30.7879 49.2807 30.56 48.9396 30.56 48.3766L30.6301 41.5713H30.6476Z" fill="#443C36"/>
<path d="M14.4928 68.2436C15.8268 68.2436 17.0204 68.6526 18.0384 69.4557C18.5123 69.8194 18.9687 70.2133 19.4075 70.6073C21.4084 72.4104 23.8306 73.1983 26.5863 72.9559C28.5346 72.7893 30.2371 72.0923 31.6589 70.8649L32.0626 70.5164C32.5014 70.1375 32.9403 69.7588 33.3966 69.3951C34.4322 68.6072 35.7661 68.2132 37.0825 68.2132C38.3989 68.2132 39.6452 68.592 40.6808 69.3345C41.2073 69.7133 41.6988 70.1375 42.1727 70.5618L42.3307 70.6982C44.3491 72.4407 46.7363 73.1983 49.4218 72.9559C51.493 72.7589 53.3008 71.971 54.7751 70.5921C55.4246 69.9861 55.9687 69.5466 56.5128 69.1829C58.4085 67.9101 61.1993 67.8799 63.1124 69.1072C63.8496 69.5769 64.4815 70.1072 65.1134 70.6679C66.851 72.1983 68.8871 72.9407 71.3269 72.971H71.713C71.9061 72.971 72.0992 72.971 72.2045 72.971C73.907 72.7286 75.1357 72.3195 76.1011 71.6831C76.6628 71.3043 77.1718 70.8801 77.7335 70.4255L78.3302 69.9255C79.2605 69.1678 80.3311 68.4405 81.8406 68.289C82.0513 68.2738 82.2619 68.2587 82.4726 68.2436C82.613 68.2436 82.7534 68.2436 82.9114 68.2132C83.4905 68.1526 84.0171 67.6526 83.9996 67.1374C83.9996 66.6525 83.5257 66.1979 82.8937 66.0615C82.5076 65.9707 82.0337 66.0615 81.4896 66.1525L81.279 66.1828C79.436 66.501 77.9265 67.1828 76.6803 68.2738L76.3469 68.5769C76.0485 68.8496 75.75 69.1072 75.4341 69.3496C74.8548 69.7739 74.3108 70.1679 73.6437 70.4103C71.4498 71.1982 69.361 70.9255 67.5882 69.6224C67.1846 69.3193 66.8159 69.0012 66.4298 68.6678L65.9559 68.2587C64.8326 67.3041 63.5161 66.6677 61.919 66.2737C60.8482 66.0161 59.9179 65.9404 59.0579 66.0464C56.8112 66.3192 54.9507 67.1677 53.5114 68.5314C53.1779 68.8496 52.8093 69.1526 52.4406 69.4406L52.3003 69.5466C50.2291 71.1982 46.8415 71.2285 44.7528 69.6072C44.3316 69.289 43.9278 68.9405 43.5242 68.6072L42.8747 68.0617C41.8568 67.2131 40.6631 66.6374 39.2415 66.3041C37.9426 66.0009 36.8368 65.9404 35.8188 66.1071C33.6775 66.4707 31.9748 67.289 30.6058 68.6072C30.2548 68.9405 29.8686 69.2587 29.4649 69.5618C27.2357 71.2134 24.2168 71.2437 21.9701 69.6375C21.5488 69.3345 21.1627 69.0012 20.7766 68.6678C20.5659 68.486 20.3729 68.3193 20.1622 68.1374C18.4597 66.7586 16.4587 66.0464 14.212 66.0161C13.8434 66.0161 13.4046 66.2131 13.1589 66.6071C12.9307 66.9858 12.9483 67.3344 13.2116 67.7132C13.3871 67.9707 13.6679 68.198 14.4578 68.2132L14.4928 68.2436Z" fill="#443C36"/>
<path d="M82.5774 80.0227C80.3848 80.1102 78.578 80.81 77.0344 82.157C76.7362 82.4194 76.4555 82.6993 76.1748 82.9967C75.8941 83.2766 75.6136 83.5565 75.3154 83.8364C74.5786 84.5013 73.5787 85.2885 72.1579 85.4284C70.1582 85.6384 68.5794 85.1835 67.334 83.9939L67.1235 83.8014C66.7552 83.4516 66.3868 83.1017 66.0359 82.7518C64.0538 80.7225 61.7383 79.8478 59.037 80.0753C56.932 80.2501 55.1603 81.1073 53.6166 82.6993C53.0729 83.2416 52.5291 83.784 51.9502 84.2913C51.1784 84.9386 50.3014 85.3235 49.3366 85.4284C47.2843 85.6559 45.6179 85.1135 44.3022 83.784C43.8988 83.3816 43.4954 82.9617 43.0744 82.5594C41.1273 80.67 38.9171 79.8478 36.3209 80.0578C34.1107 80.2327 32.2513 81.1599 30.6551 82.8743C30.3744 83.1717 30.0762 83.4516 29.778 83.7315L29.4272 84.0639C27.4626 85.9532 23.849 85.9707 21.8493 84.0814C21.3932 83.6615 20.9547 83.2242 20.5162 82.7868L20.2355 82.5069C18.5866 80.915 16.6396 80.0928 14.3066 80.0052C13.7628 79.9528 13.2716 80.3026 13.0962 80.74C12.8857 81.2648 13.026 81.8596 13.4646 82.227C13.6926 82.4194 14.0083 82.5069 14.5872 82.5419C15.9203 82.6119 17.043 83.0667 17.9376 83.8714C18.4638 84.3613 18.9725 84.8511 19.4812 85.3585C20.867 86.7929 22.4983 87.6327 24.4455 87.8951C26.9188 88.2449 29.0938 87.6152 31.0936 85.9882C31.6198 85.5508 32.0935 85.0611 32.5846 84.5712L33.1109 84.0289C34.1283 83.0142 35.5842 82.5069 37.0401 82.5069C38.4961 82.5069 39.8643 82.9792 40.8465 83.9414L42.4604 85.4984C44.1093 87.0903 46.0564 87.9126 48.4245 88C50.8977 87.93 52.9326 87.0554 54.634 85.306C55.1603 84.7812 55.6865 84.2563 56.2479 83.749C57.967 82.157 61.4752 82.0871 63.2118 83.5915C63.8432 84.1513 64.4748 84.7111 65.0887 85.3235C66.878 87.1253 68.9128 87.9825 71.2984 87.9825H71.3685C73.5963 87.9825 75.5083 87.1778 77.2274 85.5508C77.4554 85.3235 77.6835 85.096 77.929 84.8686C78.1571 84.6237 78.4026 84.3787 78.6482 84.1513C79.6831 83.1542 80.8058 82.6469 82.0512 82.5769C82.3144 82.5769 82.5774 82.5419 82.8581 82.4894C83.5247 82.4019 84.0333 81.7372 83.9983 81.2648C83.9456 80.5475 83.3844 79.9702 82.6476 80.0052L82.5774 80.0227Z" fill="#443C36"/>
</svg>
