<svg width="72" height="81" viewBox="0 0 72 81" fill="none" xmlns="http://www.w3.org/2000/svg">
<path d="M15.245 47.5993V47.8106C15.245 48.5149 15.245 49.1839 15.3154 49.8354C15.3683 50.2403 15.6148 50.4868 15.7733 50.5924C16.0551 50.8037 16.4249 50.8741 16.7772 50.8037C17.5697 50.6452 17.7987 49.8706 17.8163 49.4832C17.8163 48.867 17.8163 48.2508 17.8163 47.6346V45.064H43.5648V47.3353C43.5648 48.0395 43.5648 48.7262 43.5648 49.4128C43.5648 49.853 43.7233 50.2403 44.0051 50.5044C44.1812 50.6628 44.4982 50.8741 44.9032 50.8389C45.502 50.8213 46.1713 50.2579 46.1537 49.3776C46.1361 39.0075 46.1361 28.6197 46.1361 18.2496V8.14357C46.1361 7.72102 46.1185 7.28086 46.1361 6.85831C46.2241 5.37937 46.9638 4.18214 48.2847 3.40747C49.6937 2.57997 51.3668 2.57997 52.7757 3.40747C54.1494 4.23496 54.9772 5.69629 54.9068 7.22804C54.9068 7.36889 54.9067 7.58016 55.1357 7.87947C55.3822 8.2316 55.8226 8.58373 56.527 8.39006C57.0025 8.26681 57.4076 7.6682 57.4076 7.36889C57.4428 6.61182 57.3372 5.87235 57.0906 5.11528C56.5446 3.38986 55.2766 1.91093 53.6035 1.04822C51.9656 0.203114 50.0987 0.0446572 48.496 0.572847C45.5901 1.5412 43.6 4.19975 43.5471 7.21043C43.5119 9.0591 43.5295 10.9078 43.5471 12.7388V17.1052H18.01L17.8163 15.6263V13.7072C17.8163 11.4536 17.8163 9.19995 17.8163 6.96394C17.8163 6.33012 17.9748 5.67868 18.2566 5.13289C19.0843 3.47789 20.9688 2.52715 22.8356 2.84406C24.6144 3.14337 26.0234 4.42863 26.3933 6.11884C26.4989 6.559 26.5693 6.99916 26.6222 7.45692C26.6574 7.77383 26.8511 8.05554 27.1329 8.24921C27.4323 8.44287 27.7669 8.5133 28.0663 8.44288C28.6475 8.28442 29.0878 7.73862 29.0702 7.17522C29.0526 6.68224 28.9645 6.13645 28.8236 5.48501C28.3833 3.56592 26.992 1.87572 25.1428 0.960186C23.2935 0.0622636 21.2682 0.027051 19.4366 0.872155C16.6539 2.15742 15.2802 4.27018 15.2626 7.35128C15.2274 11.1542 15.2273 14.9572 15.2273 18.7602V23.2498C15.2273 31.3663 15.2273 39.5004 15.2273 47.617L15.245 47.5993ZM17.8515 19.7461H43.5471V30.2923H17.8515V19.7461ZM17.8867 33.884L18.1509 32.9157L19.1548 32.8629H43.5295V42.4583L19.4542 42.4935H19.4189C19.19 42.4935 18.6617 42.4759 18.239 42.0534C18.0276 41.8421 17.7987 41.49 17.7987 40.9089L17.8691 33.884H17.8867Z" fill="#443C36"/>
<path d="M1.99754 60.1352C3.33604 60.1352 4.53368 60.6105 5.55516 61.5437C6.03068 61.9662 6.48859 62.424 6.92888 62.8817C8.93663 64.9769 11.367 65.8924 14.1321 65.6107C16.087 65.4171 17.7953 64.6072 19.2219 63.1811L19.627 62.7761C20.0673 62.3359 20.5076 61.8958 20.9655 61.4732C22.0046 60.5577 23.343 60.0999 24.6639 60.0999C25.9848 60.0999 27.2353 60.5401 28.2744 61.4028C28.8027 61.843 29.2959 62.3359 29.7714 62.8289L29.9299 62.9874C31.9552 65.0121 34.3505 65.8924 37.0451 65.6107C39.1233 65.3818 40.9373 64.4663 42.4166 62.8641C43.0683 62.1599 43.6142 61.6493 44.1602 61.2267C46.0623 59.7478 48.8626 59.7126 50.7822 61.1387C51.5219 61.6845 52.1559 62.3007 52.79 62.9522C54.5335 64.7304 56.5765 65.5931 59.0246 65.6283H59.412C59.6058 65.6283 59.7995 65.6283 59.9052 65.6283C61.6135 65.3466 62.8463 64.8713 63.815 64.1318C64.3786 63.6916 64.8893 63.1987 65.4529 62.6705L66.0517 62.0895C66.9851 61.2091 68.0594 60.364 69.574 60.188C69.7854 60.1704 69.9967 60.1528 70.2081 60.1352C70.349 60.1352 70.4899 60.1352 70.6484 60.0999C71.2295 60.0295 71.7579 59.4485 71.7403 58.8499C71.7403 58.2865 71.2648 57.7583 70.6307 57.5998C70.2433 57.4942 69.7678 57.5998 69.2218 57.7055L69.0105 57.7407C67.1612 58.1104 65.6466 58.9027 64.3962 60.1704L64.0616 60.5225C63.7622 60.8394 63.4627 61.1387 63.1457 61.4204C62.5645 61.9134 62.0186 62.3712 61.3493 62.6529C59.1479 63.5684 57.052 63.2515 55.2732 61.7373C54.8682 61.3852 54.4983 61.0155 54.1109 60.6281L53.6354 60.1528C52.5082 59.0436 51.1873 58.3041 49.5847 57.8463C48.5103 57.547 47.5769 57.459 46.7139 57.5822C44.4596 57.8992 42.5928 58.8851 41.1486 60.4697C40.814 60.8394 40.4441 61.1915 40.0742 61.5261L39.9334 61.6493C37.8552 63.5684 34.4561 63.6036 32.3603 61.7197C31.9376 61.35 31.5325 60.945 31.1275 60.5577L30.4758 59.9239C29.4544 58.9379 28.2567 58.2689 26.8302 57.8816C25.5269 57.5294 24.4174 57.459 23.3959 57.6527C21.2473 58.0752 19.5389 59.026 18.1652 60.5577C17.813 60.945 17.4255 61.3148 17.0204 61.6669C14.7837 63.586 11.7545 63.6212 9.50019 61.7549C9.0775 61.4028 8.69006 61.0155 8.3026 60.6281C8.09126 60.4169 7.89752 60.2232 7.68617 60.0119C5.97783 58.4097 3.97006 57.5822 1.71575 57.547C1.3459 57.547 0.90565 57.7759 0.659084 58.2337C0.430131 58.6738 0.447741 59.0788 0.711918 59.5189C0.888036 59.8182 1.16981 60.0823 1.96234 60.0999L1.99754 60.1352Z" fill="#443C36"/>
<path d="M70.3565 72.7943C68.1551 72.8824 66.341 73.5866 64.7912 74.9423C64.4918 75.2064 64.21 75.4881 63.9282 75.7874C63.6464 76.0691 63.3647 76.3508 63.0653 76.6325C62.3256 77.3016 61.3217 78.0939 59.8951 78.2347C57.8874 78.446 56.3023 77.9882 55.0519 76.791L54.8405 76.5973C54.4707 76.2452 54.1009 75.8931 53.7486 75.5409C51.7585 73.4986 49.4337 72.6183 46.7215 72.8472C44.6081 73.0232 42.8293 73.8859 41.2794 75.4881C40.7335 76.0339 40.1875 76.5797 39.6063 77.0903C38.8314 77.7417 37.9509 78.1291 36.9822 78.2347C34.9216 78.4636 33.2485 77.9178 31.9276 76.5797C31.5225 76.1748 31.1175 75.7522 30.6948 75.3473C28.7399 73.4458 26.5208 72.6183 23.9142 72.8296C21.6951 73.0056 19.8283 73.9388 18.2256 75.6642C17.9438 75.9635 17.6444 76.2452 17.345 76.5269L16.9928 76.8614C15.0203 78.7629 11.3922 78.7805 9.38449 76.879C8.92658 76.4565 8.48627 76.0163 8.04598 75.5761L7.76418 75.2944C6.10867 73.6923 4.15381 72.8648 1.81144 72.7767C1.26547 72.7239 0.772336 73.076 0.596218 73.5162C0.384876 74.0444 0.525756 74.643 0.966051 75.0127C1.195 75.2064 1.51199 75.2944 2.09318 75.3297C3.43167 75.4001 4.55884 75.8578 5.45704 76.6677C5.98539 77.1607 6.49614 77.6537 7.00689 78.1643C8.39822 79.608 10.0361 80.4531 11.9911 80.7172C14.4743 81.0693 16.6581 80.4355 18.6659 78.7981C19.1942 78.3579 19.6698 77.865 20.1629 77.372L20.6913 76.8262C21.7128 75.805 23.1745 75.2944 24.6363 75.2944C26.0981 75.2944 27.4718 75.7698 28.458 76.7382L30.0784 78.3051C31.7339 79.9073 33.6888 80.7348 36.0664 80.8228C38.5496 80.7524 40.5926 79.8721 42.3009 78.1115C42.8293 77.5833 43.3576 77.0551 43.9212 76.5445C45.6472 74.9423 49.1695 74.8719 50.9131 76.386C51.5471 76.9494 52.1812 77.5128 52.7976 78.1291C54.594 79.9425 56.637 80.8052 59.0322 80.8052H59.1026C61.3393 80.8052 63.259 79.9953 64.985 78.3579C65.2139 78.1291 65.4429 77.9002 65.6894 77.6713C65.9184 77.4248 66.1649 77.1783 66.4115 76.9494C67.4506 75.9459 68.5778 75.4353 69.8282 75.3649C70.0924 75.3649 70.3565 75.3297 70.6383 75.2768C71.3076 75.1888 71.8183 74.5198 71.7831 74.0444C71.7302 73.3225 71.1667 72.7415 70.427 72.7767L70.3565 72.7943Z" fill="#443C36"/>
</svg>
