<svg width="97" height="97" viewBox="0 0 97 97" fill="none" xmlns="http://www.w3.org/2000/svg">
<g clip-path="url(#clip0_452_198)">
<path d="M90.5881 50.6142L90.6123 50.5738L90.5396 50.4044C90.0954 49.331 89.6431 48.2577 89.1988 47.1682L86.4446 40.5265C84.9262 36.8545 83.3996 33.1745 81.8731 29.4945C80.7746 26.8475 78.1738 25.4917 75.565 26.1858C74.2565 26.5328 72.8592 27.0896 71.4215 27.8482C69.5881 28.8005 68.5865 30.8826 68.9258 33.0131C68.9904 33.4247 69.1035 33.8282 69.2246 34.2237L69.3619 34.6837L68.7642 34.9177C68.2392 35.1194 67.7062 35.3212 67.1973 35.531C65.3477 36.2573 63.4738 36.217 61.6404 35.3938C59.5323 34.4496 57.4081 33.5216 55.2919 32.5854C53.3292 31.7219 51.3827 31.8187 49.5169 32.8921L48.0146 33.7475L47.7642 33.4166C46.4881 31.6896 43.96 30.5356 41.4158 32.0851L40.9231 32.3917C39.8327 33.0535 38.7665 33.6991 37.7731 34.3851C35.0269 36.2654 32.0546 36.2493 28.9369 34.3528V34.3205C28.9612 34.2559 28.9854 34.1914 29.0177 34.1107C29.9869 31.2538 28.7512 28.5745 25.9404 27.4286L25.6658 27.3156C24.8823 26.9928 24.0908 26.67 23.2912 26.3794C20.4238 25.3223 17.5081 26.5489 16.3531 29.2847C13.3323 36.33 10.3277 43.5528 7.37961 50.7675C6.31346 53.358 7.56538 56.2875 10.2308 57.4416C10.8365 57.6998 11.4423 57.9419 12.0642 58.184L12.7508 58.4503C15.8038 59.6528 18.2673 58.7973 19.8908 55.997C19.9069 55.9647 19.9312 55.9405 19.9796 55.8921L20.0038 55.8679L26.7077 58.5956C26.0373 59.7738 25.9888 60.9601 26.5865 61.9689C27.1842 62.9777 28.3796 63.6314 29.6558 63.6475C30.1808 65.6651 31.0288 66.3672 33.3712 66.7061C33.8073 68.2152 34.4373 69.1756 35.3015 69.6275C36.1496 70.0714 37.2481 70.0794 38.6454 69.6356L38.6777 69.684C38.71 69.7324 38.7342 69.7566 38.7585 69.8131C39.4288 70.9994 40.5031 71.7338 41.7065 71.8145C42.9019 71.9033 44.0731 71.3223 44.9212 70.2166C45.1473 69.918 45.3654 69.6194 45.5996 69.3209L46.2296 68.4816C46.5931 68.7559 46.9404 69.0303 47.2877 69.3047C48.2731 70.0794 49.0404 70.6605 49.7754 71.1931C50.5023 71.7258 51.3504 72.0001 52.2065 72.0001C52.6023 72.0001 52.9981 71.9437 53.3858 71.8226C54.6135 71.4433 55.5665 70.5072 56.0027 69.2482C56.0269 69.1675 56.0592 69.0868 56.0915 69.0061L56.14 68.877C57.3596 70.0552 59.0235 70.4587 60.5177 69.9503C62.0523 69.4096 63.0619 68.0296 63.2396 66.238C64.5481 66.2865 65.59 65.9152 66.4219 65.1244C67.2538 64.3335 67.6658 63.3328 67.6819 62.0738C70.7915 61.6784 71.8092 60.5324 71.8819 57.3851C71.8819 57.264 72.0838 57.0461 72.2696 56.9735C73.0288 56.6426 73.8123 56.3359 74.6604 56.0051L77.6327 54.8268L77.8104 55.2545C77.8992 55.4724 77.9881 55.6823 78.0769 55.8759C79.0946 58.1598 81.3965 59.3703 83.7873 58.8861C84.7646 58.6844 85.7096 58.297 86.6304 57.9258L86.7192 57.8854C86.8727 57.8208 87.0342 57.7563 87.1877 57.6917L87.4462 57.5868C88.9565 56.9816 90.0469 55.9728 90.6042 54.6654C91.1292 53.4226 91.1131 52.0265 90.5719 50.6061L90.5881 50.6142ZM69.7739 58.9265C69.4508 59.6447 68.8612 60.024 68.1827 59.9998C67.5769 59.9837 66.9388 59.7658 66.5915 59.4591C65.0004 58.0307 63.3931 56.5296 62.0119 55.2303L60.3319 53.6566C60.2592 53.584 60.1865 53.5194 60.13 53.4791C59.6535 53.0756 59.1688 53.0756 58.7569 53.471C58.3208 53.8987 58.3369 54.4152 58.8054 54.8914C58.9831 55.0689 59.1608 55.2384 59.3465 55.4079L61.3012 57.2479C62.5369 58.41 63.7727 59.5721 65.0004 60.7261C65.8808 61.5573 65.9777 62.6872 65.2265 63.5345C64.4754 64.3819 63.1992 64.4384 62.2704 63.6556C60.1542 61.8801 58.0381 60.1047 55.93 58.3212L55.3646 57.8451C54.8315 57.3851 54.3469 57.3689 53.8704 57.7966C53.6523 58.0145 53.6038 58.2405 53.6038 58.4019C53.6038 58.7005 53.7735 59.0152 54.1046 59.33L55.9785 60.9279C57.4969 62.2191 59.0073 63.5184 60.5177 64.8096C61.2931 65.4714 61.4789 66.3026 61.0427 67.1338C60.5823 67.9973 59.6373 68.4251 58.7488 68.183C58.3854 68.0861 58.0058 67.8601 57.61 67.5212C56.0996 66.2461 54.5973 64.963 53.095 63.6717L50.7365 61.6542C50.2438 61.283 49.735 61.3072 49.3635 61.7187C49.105 61.9931 49.0646 62.2514 49.0808 62.3886C49.0808 62.7679 49.3877 63.0423 49.5088 63.1552C50.8254 64.2931 52.1419 65.431 53.4746 66.5528C53.9996 66.9966 54.2419 67.4809 54.2419 68.0861C54.2419 68.8447 53.8138 69.5387 53.1112 69.8858C52.5215 70.2005 51.7704 70.1763 51.2131 69.7889C50.0823 69.0384 49.0081 68.191 47.9662 67.3759C47.5542 67.0531 47.1423 66.7384 46.7385 66.4237C46.6658 66.3672 46.6012 66.2703 46.5365 66.117C45.7288 64.1559 44.8242 63.4458 42.9262 63.4458C42.7081 63.4458 42.4819 63.4538 42.2477 63.47C41.44 61.1619 39.4692 60.4759 37.8296 60.8149C37.4742 59.6931 36.8038 58.9023 35.8508 58.4826C34.825 58.0307 33.7912 58.063 32.6927 58.5875L32.3615 58.1437C31.4812 56.9816 30.1 56.5458 28.6704 56.9735C28.2746 57.0865 28.0727 57.0623 27.9677 57.0138C26.7077 56.5135 25.4477 55.997 24.1958 55.4886L20.7873 54.1005L20.7065 54.0198L28.0808 36.2573L29.4215 36.8545C32.7008 38.3072 35.7538 38.0328 38.7665 36.0314C39.7762 35.3535 41.125 34.4819 42.5465 33.6991C43.1927 33.3521 43.9035 33.2552 44.5577 33.4489C45.2442 33.6507 45.8338 34.1349 46.2135 34.8047C46.1731 34.8451 46.1488 34.8531 46.1327 34.8612C43.12 36.0637 41.8762 38.6138 40.6808 41.5756C39.97 43.3187 40.7292 45.3121 42.4415 46.1998C44.1619 47.0956 46.2458 46.5952 47.3927 45.0296C47.635 44.7068 47.845 44.3598 48.055 44.0128C48.1358 43.8675 48.2246 43.7384 48.3135 43.5931L48.4104 43.4398C48.9112 42.6731 49.2342 42.5924 50.0258 43.0201L61.8423 49.5731C62.1977 49.7668 62.5531 50.0331 62.86 50.3398C64.12 51.5584 65.3719 52.7851 66.6238 54.0117L69.3135 56.6426C69.9515 57.264 70.1212 57.9823 69.8304 58.7651L69.7658 58.9345L69.7739 58.9265ZM37.2238 68.07C36.4081 68.07 35.8912 67.7875 35.5277 67.1742C35.245 66.6738 35.2935 66.1573 35.6569 65.6731L36.1981 64.9387C36.6342 64.3496 37.0785 63.7605 37.5227 63.1875C37.8215 62.8001 38.2335 62.5984 38.6615 62.5984C38.9523 62.5984 39.2592 62.6952 39.55 62.8889C39.9619 63.1633 40.2285 63.5265 40.3012 63.9138C40.3658 64.2366 40.2931 64.5594 40.0912 64.858C39.3965 65.8668 38.71 66.7787 38.0558 67.5696L37.9427 67.7068C37.765 67.844 37.5388 67.9409 37.4096 67.9973C37.3369 68.0296 37.2723 68.0619 37.2238 68.078V68.07ZM29.6962 58.7086C30.0515 58.7086 30.3908 58.8377 30.6331 59.0717C30.8027 59.2331 31.0127 59.5075 31.0127 59.8787C31.0127 60.2419 30.7542 60.6938 30.4554 61.0247L30.3342 61.1377C29.9869 61.4766 29.6558 61.6703 29.3892 61.6703C28.7915 61.6703 28.1212 61.0166 28.1131 60.4275C28.1131 60.1208 28.3231 59.6931 28.6542 59.3219C29.0096 58.9426 29.4135 58.7086 29.6881 58.7005L29.6962 58.7086ZM31.9173 62.3805C32.3373 61.7833 32.7573 61.2265 33.1854 60.7261C33.4842 60.371 33.9042 60.1773 34.3404 60.1773C34.5342 60.1773 34.7362 60.2177 34.93 60.2984C35.5681 60.5566 35.8831 61.0489 35.9073 61.8075C35.8912 61.8479 35.875 61.9044 35.8588 61.977C35.8185 62.1142 35.77 62.2675 35.6892 62.3886C35.1158 63.1956 34.7281 63.7121 34.3404 64.1721C33.8154 64.8016 32.9108 64.9065 32.2485 64.4142C31.5781 63.9138 31.4408 63.0745 31.9173 62.3805ZM40.7212 67.497C41.1573 66.8594 41.5692 66.3187 41.9812 65.8345C42.28 65.4875 42.6758 65.3019 43.1038 65.3019C43.3058 65.3019 43.5238 65.3423 43.7338 65.423C44.3315 65.657 44.6627 66.2138 44.6788 66.9079L44.6062 67.1419C44.5415 67.3114 44.4608 67.5373 44.3477 67.723C43.9438 68.3282 43.5158 68.8689 43.2331 69.2159C42.6919 69.8938 41.7712 70.0472 41.0846 69.563C40.3981 69.0949 40.2446 68.1991 40.7212 67.4889V67.497ZM58.6115 45.5542L56.7458 44.5212C54.6862 43.3752 52.6185 42.2293 50.5588 41.0591C50.1388 40.817 49.735 40.6959 49.3635 40.6959C49.0323 40.6959 48.7173 40.7928 48.4104 40.9784C47.8692 41.3012 47.3442 41.7451 46.8596 42.2777C46.6092 42.5601 46.4154 42.883 46.2135 43.238L46.1731 43.3107C46.0681 43.4963 45.9631 43.6819 45.8258 43.8675C45.2523 44.6907 44.2185 44.9651 43.3704 44.5212C42.4981 44.0612 42.1508 43.0766 42.5385 42.1809L42.805 41.5675C43.1685 40.7282 43.54 39.8566 44.0165 39.0738C44.3962 38.4524 44.9777 37.8714 45.6481 37.4437C46.7627 36.7254 47.9338 36.0475 48.9596 35.4584C49.4523 35.184 49.9288 34.9016 50.4054 34.6191C51.73 33.8363 53.1112 33.7556 54.5246 34.3851L56.8346 35.4019C58.0946 35.9507 59.3546 36.5075 60.6065 37.0724C63.1023 38.2184 65.5496 38.2749 68.0696 37.25L68.3362 37.1451C68.6996 36.9998 69.0631 36.8545 69.4589 36.7093L70.1212 36.451L76.9219 52.9868L73.5296 54.3426C72.8189 54.6251 72.1162 54.9075 71.4135 55.2061C71.2519 55.2787 71.1146 55.311 70.9935 55.311C70.8642 55.311 70.6946 55.2787 70.4442 55.0205C68.1746 52.7608 65.9696 50.6142 64.1119 48.8145C63.7888 48.4998 63.4173 48.2254 63.0458 48.0237C61.5677 47.1924 60.0815 46.3693 58.5954 45.5461L58.6115 45.5542ZM70.945 33.4408C70.315 31.7461 71.0823 29.9949 72.7785 29.2686C73.4731 28.978 74.5231 28.5423 75.6377 28.1387C75.8881 28.0419 76.1708 27.9935 76.3969 27.9531C76.4535 27.9531 76.51 27.937 76.6069 27.9209C78.3435 28.0096 79.4177 28.6794 79.975 30.0433C82.9231 37.1612 85.8469 44.2872 88.7627 51.4212C89.4492 53.0998 88.8354 54.73 87.2442 55.5773L86.9131 55.7226C85.8873 56.1584 85.0554 56.4973 84.2719 56.804C83.8196 56.9735 83.3512 57.0623 82.8989 57.0623C81.5258 57.0623 80.3788 56.2875 79.8377 54.9882C77.9154 50.364 76.0092 45.7317 74.1031 41.0994L71.8819 35.6924C71.785 35.4423 71.6719 35.1921 71.5669 34.958L71.4781 34.7482C71.2923 34.3205 71.1065 33.8847 70.9531 33.4408H70.945ZM18.0492 55.3191C17.5 56.3924 16.4338 57.0542 15.2062 57.0542C14.7781 57.0542 14.3581 56.9816 13.9542 56.8282C13.1223 56.5296 12.2338 56.1826 11.2323 55.763C9.34231 54.9801 8.58308 53.1966 9.34231 51.3405C11.4262 46.2563 13.5019 41.1882 15.5938 36.1201L17.5808 31.2619C17.7746 30.7938 17.9685 30.3096 18.1865 29.8416C18.7762 28.6149 19.8181 27.9773 21.4496 27.9047C21.4819 27.9047 21.5142 27.9209 21.5465 27.9209L21.6838 27.9451C21.9019 27.9854 22.1765 28.0419 22.435 28.1387C23.3315 28.4616 24.2685 28.8247 25.2296 29.2282C26.9742 29.9626 27.7658 31.7703 27.0712 33.4328C24.2038 40.4458 21.1912 47.7251 18.1381 55.0608L18.0331 55.311H18.0412L18.0492 55.3191Z" fill="#443C36"/>
</g>
<defs>
<clipPath id="clip0_452_198">
<rect width="84" height="46" fill="white" transform="translate(7 26)"/>
</clipPath>
</defs>
</svg>
