<svg width="105" height="58" viewBox="0 0 105 58" fill="none" xmlns="http://www.w3.org/2000/svg">
<mask id="path-1-outside-1_281_60" maskUnits="userSpaceOnUse" x="0" y="0" width="105" height="58" fill="black">
<rect fill="white" width="105" height="58"/>
<path d="M103.463 30.9329C102.909 29.6007 102.356 28.2684 101.802 26.9243L98.3947 18.6949C96.5166 14.144 94.6265 9.58122 92.7363 5.03027C91.4722 1.98844 88.5106 0.420371 85.5129 1.22209C83.9117 1.64653 82.2142 2.33035 80.4806 3.23819C78.3978 4.32287 77.2661 6.69266 77.6514 9.12141C77.7236 9.59301 77.8561 10.0528 78.0005 10.548C78.0728 10.7838 78.133 11.0196 78.2052 11.2554L78.2895 11.5737L77.1217 12.0218C76.4716 12.2693 75.8215 12.5169 75.1834 12.7763C72.7635 13.7313 70.3196 13.6724 67.9118 12.5995C65.2993 11.4322 62.6748 10.2768 60.0503 9.12141C57.7749 8.11925 55.5116 8.23715 53.3445 9.47511L51.1053 10.7484L50.5274 9.98208C49.0827 8.02493 46.2174 6.70445 43.328 8.46116L42.7141 8.83845C41.4259 9.61659 40.0895 10.4301 38.8375 11.2908C35.2378 13.7549 31.3492 13.7313 27.28 11.22L27.0272 11.0668L27.1476 10.6777C27.1716 10.5834 27.2077 10.4773 27.2439 10.3829C28.3515 7.1171 26.9429 4.03991 23.7164 2.73122L23.3673 2.58973C22.4042 2.18887 21.429 1.7998 20.4418 1.43431C17.1431 0.219941 13.8083 1.62295 12.484 4.7591C8.80003 13.4955 5.07996 22.4559 1.43212 31.381C0.216177 34.3403 1.64883 37.6768 4.69471 38.9973C5.44113 39.3156 6.18755 39.6104 6.94601 39.9051L7.80078 40.2353C11.3643 41.6383 14.1333 40.6833 16.0235 37.4057C16.0716 37.3231 16.1318 37.2524 16.192 37.1934L16.4569 36.8987L25.6306 40.6361L25.4019 41.0016C24.5953 42.3339 24.511 43.678 25.1731 44.798C25.8353 45.9181 27.1716 46.6373 28.6043 46.6373H28.9293L29.0016 46.9202C29.6035 49.3254 30.4824 50.0446 33.2875 50.4454L33.5403 50.4808L33.6005 50.7166C34.0941 52.4851 34.8044 53.6052 35.7675 54.1121C36.7066 54.6073 37.9586 54.5955 39.608 54.065L39.8849 53.9824L40.0414 54.2182C40.1497 54.3715 40.2099 54.4422 40.2581 54.5366C41.0045 55.857 42.1964 56.6706 43.5086 56.7649C44.845 56.8592 46.1211 56.199 47.0602 54.9846C47.4454 54.4776 47.8307 53.9589 48.2279 53.4283L48.9744 52.4262L49.2874 52.662C49.7689 53.0274 50.2385 53.3929 50.6959 53.7584C51.7193 54.5601 52.7306 55.3383 53.7659 56.0928C54.9578 56.9653 56.4265 57.2247 57.799 56.8002C59.1714 56.3758 60.2309 55.3265 60.7124 53.9235C60.7606 53.782 60.8208 53.6405 60.881 53.4873L61.182 52.7327L61.5913 53.1571C62.9758 54.5719 64.902 55.0789 66.6116 54.4894C68.3572 53.8763 69.4889 52.2847 69.6575 50.2096L69.6815 49.8559H70.0427C71.5837 49.9267 72.7876 49.5258 73.7387 48.618C74.6898 47.7101 75.1473 46.5547 75.1473 45.081V44.7508L75.4844 44.7155C79.1683 44.2675 80.2639 43.0767 80.3482 39.3864C80.3482 38.9619 80.8056 38.5493 81.1307 38.4196C82.1059 37.9952 83.1051 37.6061 84.1043 37.217L88.2458 35.5782L88.5949 36.4271C88.7273 36.7454 88.8477 37.0402 88.9802 37.3231C90.1479 39.9405 92.7604 41.32 95.4933 40.7658C96.6972 40.5182 97.8891 40.023 99.0448 39.5514C99.3458 39.4335 99.6468 39.3039 99.9357 39.186C103.475 37.7712 104.884 34.4699 103.439 30.9801L103.463 30.9329ZM14.7834 36.7218C14.0611 38.4668 12.4599 39.4807 10.6661 39.4807C10.1002 39.4807 9.52237 39.3864 8.94449 39.1742C7.75263 38.7497 6.60892 38.2899 5.54948 37.8419C2.97312 36.769 1.90165 34.2577 2.937 31.7111C5.51336 25.4152 8.08972 19.1311 10.6781 12.8471L13.0257 7.1171C13.3026 6.43328 13.5795 5.72588 13.9046 5.04206C14.7232 3.33251 16.18 2.44825 18.347 2.35393H18.3952H18.4433C18.5276 2.37751 18.6239 2.3893 18.7322 2.41288C19.0332 2.47183 19.4185 2.54257 19.7917 2.68406C20.9956 3.12029 22.1634 3.5801 23.271 4.03991C25.6788 5.05385 26.7864 7.57691 25.8233 9.89955C22.2115 18.7303 18.4915 27.7378 14.7594 36.6983L14.7834 36.7218ZM29.736 44.4089C29.435 44.7037 28.8451 45.2107 28.2311 45.2107H28.219C27.2077 45.2107 26.1603 44.1967 26.1363 43.1828C26.1242 42.6758 26.4252 42.0274 26.9429 41.4614C27.4726 40.8955 28.0866 40.5418 28.5922 40.53C29.134 40.53 29.6878 40.7305 30.0971 41.1195C30.4944 41.4968 30.7232 41.9684 30.7232 42.4754C30.7352 43.1592 30.2296 43.9255 29.748 44.4089H29.736ZM34.7201 48.1228C34.2386 48.7005 33.5764 48.9953 32.9022 48.9953C32.3966 48.9953 31.8909 48.8302 31.4455 48.5001C30.3981 47.7219 30.1814 46.3779 30.9278 45.2932C31.4455 44.5504 31.9873 43.843 32.529 43.2064C33.2152 42.3928 34.2867 42.1335 35.2619 42.5343C36.2491 42.9352 36.7427 43.7133 36.7788 44.8923V44.9631L36.7547 45.0338C36.7427 45.0692 36.7306 45.1163 36.7186 45.1753C36.6584 45.3757 36.5862 45.6469 36.4176 45.8827C35.7675 46.8023 35.2498 47.4979 34.7201 48.1228ZM39.3431 52.3436C39.0542 52.6855 38.6208 52.8742 38.3318 52.9921C38.2476 53.0274 38.1753 53.0628 38.1272 53.0864L38.0309 53.1336H37.9225C36.7066 53.1336 35.912 52.6855 35.3823 51.7659C34.9368 50.976 35.0091 50.1153 35.5749 49.3607L36.2491 48.4529C36.7908 47.7219 37.3446 46.991 37.8984 46.2718C38.681 45.2578 39.9932 45.0574 41.0767 45.7884C42.2686 46.5901 42.5937 47.8752 41.8834 48.9245C41.0406 50.1507 40.1859 51.2943 39.3311 52.32L39.3431 52.3436ZM47.6019 51.4476C47.6019 51.4476 47.5658 51.5419 47.5417 51.6126C47.4574 51.8367 47.3371 52.1786 47.1444 52.4851C46.6869 53.1689 46.1813 53.8292 45.7359 54.3715C45.2182 55.02 44.5079 55.3501 43.7855 55.3501C43.316 55.3501 42.8344 55.2086 42.401 54.9021C41.3175 54.1593 41.0647 52.7563 41.8232 51.6362C42.3408 50.8817 42.8706 50.1743 43.4123 49.5376C44.0865 48.7359 45.1339 48.4883 46.1572 48.8891C47.0842 49.2546 47.626 50.1271 47.638 51.2825L47.614 51.424L47.6019 51.4476ZM78.771 41.2728C78.3256 42.4636 77.3865 43.1828 76.2308 43.1356C75.376 43.112 74.4731 42.8055 73.9434 42.3339C72.0171 40.6126 70.1029 38.8205 68.2609 37.0873L66.1782 35.142C66.1059 35.0712 66.0337 35.0005 65.9494 34.9415C65.4318 34.5053 65.1187 34.7175 64.9261 34.9062C64.6974 35.1302 64.4927 35.4485 64.9863 35.9555C65.203 36.1677 65.4197 36.3799 65.6485 36.5922L68.0683 38.8676C69.5973 40.306 71.1262 41.7444 72.6431 43.1828C73.9313 44.3971 74.0517 46.1185 72.9562 47.3564C71.8365 48.618 69.9584 48.7005 68.598 47.5569C65.7448 45.1635 62.8915 42.7583 60.0383 40.3532C59.4845 39.8816 59.1714 39.9877 58.8584 40.2706C58.738 40.3885 58.6778 40.5182 58.6778 40.6597C58.6778 40.8955 58.8464 41.1667 59.1233 41.4261L61.4468 43.4068C63.3249 45.0102 65.203 46.6137 67.0691 48.2171C68.2128 49.1957 68.4897 50.469 67.8396 51.707C67.1654 52.9803 65.7568 53.6169 64.4205 53.2515C63.9148 53.11 63.3731 52.8034 62.8193 52.3318C60.869 50.6812 58.9307 49.0188 56.9924 47.3564L54.8374 45.5054C54.6688 45.3639 54.5003 45.2224 54.3317 45.081C53.802 44.6801 53.489 44.8923 53.2964 45.1045C53.1399 45.2696 53.0676 45.4347 53.0797 45.5879C53.0797 45.8119 53.2723 46.0124 53.4168 46.1421C55.0541 47.5569 56.6914 48.9717 58.3408 50.3629C59.1113 51.0114 59.4724 51.7541 59.4724 52.6502C59.4724 53.782 58.8344 54.8077 57.811 55.3265C57.3897 55.5505 56.9322 55.6566 56.4867 55.6566C55.945 55.6566 55.4153 55.5033 54.9457 55.185C53.5372 54.2536 52.1888 53.1925 50.8886 52.1668C50.3829 51.7659 49.8773 51.3768 49.3717 50.9878C49.2031 50.8581 49.0827 50.6694 48.9623 50.3983C47.9149 47.8634 46.8555 47.2268 44.0624 47.439L43.7615 47.4626L43.6651 47.1796C42.702 44.3146 40.3544 43.7605 38.6449 44.1613L38.2957 44.2439L38.1994 43.902C37.8021 42.5815 37.0798 41.6972 35.9963 41.2138C34.8525 40.7069 33.6848 40.754 32.4207 41.3789L32.1317 41.5204L31.4816 40.6361C30.5185 39.3628 29.0256 38.8912 27.4485 39.3628C26.9549 39.5043 26.5576 39.5279 26.2567 39.3982C23.7525 38.396 21.2605 37.3703 18.7563 36.3564L17.3598 35.7786C17.2394 35.7315 17.1792 35.649 17.119 35.59L16.8662 35.3306L26.3169 12.5405L28.4478 13.4837C32.3364 15.2051 35.9601 14.8867 39.5357 12.5051C41.0045 11.5266 42.6057 10.5008 44.2551 9.59301C45.17 9.09783 46.1813 8.96814 47.1203 9.23931C48.1196 9.53406 48.9864 10.2532 49.5282 11.2672L49.6726 11.5384L49.4198 11.727C49.3115 11.8213 49.2392 11.8921 49.1188 11.9392C45.5793 13.354 44.0865 16.4194 42.6418 19.98C41.8593 21.9018 42.702 24.0947 44.5921 25.0733C46.4943 26.0637 48.8058 25.5213 50.094 23.7646C50.3829 23.3755 50.6358 22.9629 50.8886 22.5502C51.033 22.3026 51.1895 22.0668 51.3461 21.8193C52.1045 20.652 52.8028 20.4752 54.0067 21.1354L56.9201 22.7507C60.8208 24.92 64.7335 27.0894 68.6341 29.2588C69.1277 29.5299 69.5973 29.8836 70.0066 30.2845C72.595 32.7958 75.1593 35.3188 77.7357 37.8301L78.0005 38.0895C78.9275 38.9973 79.1924 40.0938 78.759 41.2492L78.771 41.2728ZM83.8154 35.7904C82.6958 36.2385 81.5761 36.6747 80.4685 37.1463C80.2037 37.2642 79.9629 37.3231 79.7462 37.3231C79.373 37.3231 79.0479 37.1581 78.7108 36.8162C76.0261 34.1398 73.3535 31.5342 70.8734 29.1291C70.5243 28.7872 70.1029 28.4688 69.6575 28.233C67.8275 27.2073 65.9856 26.1816 64.1436 25.1676C60.8208 23.3166 57.486 21.4773 54.1752 19.5909C53.3445 19.1193 52.6704 19.084 52.0202 19.4848C51.3701 19.8739 50.7561 20.4045 50.2144 21.0057C49.9255 21.3241 49.7087 21.7131 49.48 22.114C49.3235 22.3852 49.167 22.6681 48.9744 22.9275C48.1196 24.1655 46.5666 24.5663 45.2904 23.8943C43.9782 23.1987 43.4484 21.7131 44.0383 20.3573L44.3152 19.7206C44.7848 18.6242 45.2663 17.4805 45.9044 16.443C46.41 15.6177 47.1805 14.8396 48.0835 14.2619C49.4318 13.3894 50.8404 12.5759 52.2129 11.786C52.8148 11.444 53.4047 11.1021 53.9947 10.7484C55.7885 9.68733 57.6666 9.59301 59.5567 10.4301C60.4837 10.8427 61.4107 11.2436 62.3377 11.6563C63.9269 12.3519 65.516 13.0475 67.0931 13.7667C70.0548 15.1225 72.9441 15.1933 75.9419 13.9789C76.5077 13.7549 77.0615 13.5309 77.6634 13.3069L78.9396 12.8117L87.7401 34.2224L83.8274 35.7786L83.8154 35.7904ZM99.6227 37.7947C98.3465 38.3371 97.3112 38.7615 96.336 39.1388C95.71 39.3746 95.0719 39.4925 94.4579 39.4925C92.6039 39.4925 90.9666 38.4432 90.2081 36.6157C87.8244 30.8858 85.4647 25.144 83.1051 19.4023L80.3482 12.6938C80.2278 12.3872 80.0953 12.0925 79.9629 11.7977C79.698 11.1729 79.4211 10.5362 79.1924 9.89955C78.3135 7.54154 79.385 5.10101 81.7326 4.09886C82.8523 3.62726 84.0441 3.14387 85.2842 2.69585C85.6574 2.55436 86.0547 2.48362 86.3436 2.43646C86.4399 2.42467 86.5242 2.40109 86.5964 2.3893H86.6446H86.6927C89.0283 2.5072 90.5332 3.4622 91.3037 5.32502C94.9515 14.144 98.5753 22.9747 102.187 31.8172C103.186 34.2695 102.139 36.7336 99.6227 37.8183V37.7947Z"/>
</mask>
<path d="M103.463 30.9329C102.909 29.6007 102.356 28.2684 101.802 26.9243L98.3947 18.6949C96.5166 14.144 94.6265 9.58122 92.7363 5.03027C91.4722 1.98844 88.5106 0.420371 85.5129 1.22209C83.9117 1.64653 82.2142 2.33035 80.4806 3.23819C78.3978 4.32287 77.2661 6.69266 77.6514 9.12141C77.7236 9.59301 77.8561 10.0528 78.0005 10.548C78.0728 10.7838 78.133 11.0196 78.2052 11.2554L78.2895 11.5737L77.1217 12.0218C76.4716 12.2693 75.8215 12.5169 75.1834 12.7763C72.7635 13.7313 70.3196 13.6724 67.9118 12.5995C65.2993 11.4322 62.6748 10.2768 60.0503 9.12141C57.7749 8.11925 55.5116 8.23715 53.3445 9.47511L51.1053 10.7484L50.5274 9.98208C49.0827 8.02493 46.2174 6.70445 43.328 8.46116L42.7141 8.83845C41.4259 9.61659 40.0895 10.4301 38.8375 11.2908C35.2378 13.7549 31.3492 13.7313 27.28 11.22L27.0272 11.0668L27.1476 10.6777C27.1716 10.5834 27.2077 10.4773 27.2439 10.3829C28.3515 7.1171 26.9429 4.03991 23.7164 2.73122L23.3673 2.58973C22.4042 2.18887 21.429 1.7998 20.4418 1.43431C17.1431 0.219941 13.8083 1.62295 12.484 4.7591C8.80003 13.4955 5.07996 22.4559 1.43212 31.381C0.216177 34.3403 1.64883 37.6768 4.69471 38.9973C5.44113 39.3156 6.18755 39.6104 6.94601 39.9051L7.80078 40.2353C11.3643 41.6383 14.1333 40.6833 16.0235 37.4057C16.0716 37.3231 16.1318 37.2524 16.192 37.1934L16.4569 36.8987L25.6306 40.6361L25.4019 41.0016C24.5953 42.3339 24.511 43.678 25.1731 44.798C25.8353 45.9181 27.1716 46.6373 28.6043 46.6373H28.9293L29.0016 46.9202C29.6035 49.3254 30.4824 50.0446 33.2875 50.4454L33.5403 50.4808L33.6005 50.7166C34.0941 52.4851 34.8044 53.6052 35.7675 54.1121C36.7066 54.6073 37.9586 54.5955 39.608 54.065L39.8849 53.9824L40.0414 54.2182C40.1497 54.3715 40.2099 54.4422 40.2581 54.5366C41.0045 55.857 42.1964 56.6706 43.5086 56.7649C44.845 56.8592 46.1211 56.199 47.0602 54.9846C47.4454 54.4776 47.8307 53.9589 48.2279 53.4283L48.9744 52.4262L49.2874 52.662C49.7689 53.0274 50.2385 53.3929 50.6959 53.7584C51.7193 54.5601 52.7306 55.3383 53.7659 56.0928C54.9578 56.9653 56.4265 57.2247 57.799 56.8002C59.1714 56.3758 60.2309 55.3265 60.7124 53.9235C60.7606 53.782 60.8208 53.6405 60.881 53.4873L61.182 52.7327L61.5913 53.1571C62.9758 54.5719 64.902 55.0789 66.6116 54.4894C68.3572 53.8763 69.4889 52.2847 69.6575 50.2096L69.6815 49.8559H70.0427C71.5837 49.9267 72.7876 49.5258 73.7387 48.618C74.6898 47.7101 75.1473 46.5547 75.1473 45.081V44.7508L75.4844 44.7155C79.1683 44.2675 80.2639 43.0767 80.3482 39.3864C80.3482 38.9619 80.8056 38.5493 81.1307 38.4196C82.1059 37.9952 83.1051 37.6061 84.1043 37.217L88.2458 35.5782L88.5949 36.4271C88.7273 36.7454 88.8477 37.0402 88.9802 37.3231C90.1479 39.9405 92.7604 41.32 95.4933 40.7658C96.6972 40.5182 97.8891 40.023 99.0448 39.5514C99.3458 39.4335 99.6468 39.3039 99.9357 39.186C103.475 37.7712 104.884 34.4699 103.439 30.9801L103.463 30.9329ZM14.7834 36.7218C14.0611 38.4668 12.4599 39.4807 10.6661 39.4807C10.1002 39.4807 9.52237 39.3864 8.94449 39.1742C7.75263 38.7497 6.60892 38.2899 5.54948 37.8419C2.97312 36.769 1.90165 34.2577 2.937 31.7111C5.51336 25.4152 8.08972 19.1311 10.6781 12.8471L13.0257 7.1171C13.3026 6.43328 13.5795 5.72588 13.9046 5.04206C14.7232 3.33251 16.18 2.44825 18.347 2.35393H18.3952H18.4433C18.5276 2.37751 18.6239 2.3893 18.7322 2.41288C19.0332 2.47183 19.4185 2.54257 19.7917 2.68406C20.9956 3.12029 22.1634 3.5801 23.271 4.03991C25.6788 5.05385 26.7864 7.57691 25.8233 9.89955C22.2115 18.7303 18.4915 27.7378 14.7594 36.6983L14.7834 36.7218ZM29.736 44.4089C29.435 44.7037 28.8451 45.2107 28.2311 45.2107H28.219C27.2077 45.2107 26.1603 44.1967 26.1363 43.1828C26.1242 42.6758 26.4252 42.0274 26.9429 41.4614C27.4726 40.8955 28.0866 40.5418 28.5922 40.53C29.134 40.53 29.6878 40.7305 30.0971 41.1195C30.4944 41.4968 30.7232 41.9684 30.7232 42.4754C30.7352 43.1592 30.2296 43.9255 29.748 44.4089H29.736ZM34.7201 48.1228C34.2386 48.7005 33.5764 48.9953 32.9022 48.9953C32.3966 48.9953 31.8909 48.8302 31.4455 48.5001C30.3981 47.7219 30.1814 46.3779 30.9278 45.2932C31.4455 44.5504 31.9873 43.843 32.529 43.2064C33.2152 42.3928 34.2867 42.1335 35.2619 42.5343C36.2491 42.9352 36.7427 43.7133 36.7788 44.8923V44.9631L36.7547 45.0338C36.7427 45.0692 36.7306 45.1163 36.7186 45.1753C36.6584 45.3757 36.5862 45.6469 36.4176 45.8827C35.7675 46.8023 35.2498 47.4979 34.7201 48.1228ZM39.3431 52.3436C39.0542 52.6855 38.6208 52.8742 38.3318 52.9921C38.2476 53.0274 38.1753 53.0628 38.1272 53.0864L38.0309 53.1336H37.9225C36.7066 53.1336 35.912 52.6855 35.3823 51.7659C34.9368 50.976 35.0091 50.1153 35.5749 49.3607L36.2491 48.4529C36.7908 47.7219 37.3446 46.991 37.8984 46.2718C38.681 45.2578 39.9932 45.0574 41.0767 45.7884C42.2686 46.5901 42.5937 47.8752 41.8834 48.9245C41.0406 50.1507 40.1859 51.2943 39.3311 52.32L39.3431 52.3436ZM47.6019 51.4476C47.6019 51.4476 47.5658 51.5419 47.5417 51.6126C47.4574 51.8367 47.3371 52.1786 47.1444 52.4851C46.6869 53.1689 46.1813 53.8292 45.7359 54.3715C45.2182 55.02 44.5079 55.3501 43.7855 55.3501C43.316 55.3501 42.8344 55.2086 42.401 54.9021C41.3175 54.1593 41.0647 52.7563 41.8232 51.6362C42.3408 50.8817 42.8706 50.1743 43.4123 49.5376C44.0865 48.7359 45.1339 48.4883 46.1572 48.8891C47.0842 49.2546 47.626 50.1271 47.638 51.2825L47.614 51.424L47.6019 51.4476ZM78.771 41.2728C78.3256 42.4636 77.3865 43.1828 76.2308 43.1356C75.376 43.112 74.4731 42.8055 73.9434 42.3339C72.0171 40.6126 70.1029 38.8205 68.2609 37.0873L66.1782 35.142C66.1059 35.0712 66.0337 35.0005 65.9494 34.9415C65.4318 34.5053 65.1187 34.7175 64.9261 34.9062C64.6974 35.1302 64.4927 35.4485 64.9863 35.9555C65.203 36.1677 65.4197 36.3799 65.6485 36.5922L68.0683 38.8676C69.5973 40.306 71.1262 41.7444 72.6431 43.1828C73.9313 44.3971 74.0517 46.1185 72.9562 47.3564C71.8365 48.618 69.9584 48.7005 68.598 47.5569C65.7448 45.1635 62.8915 42.7583 60.0383 40.3532C59.4845 39.8816 59.1714 39.9877 58.8584 40.2706C58.738 40.3885 58.6778 40.5182 58.6778 40.6597C58.6778 40.8955 58.8464 41.1667 59.1233 41.4261L61.4468 43.4068C63.3249 45.0102 65.203 46.6137 67.0691 48.2171C68.2128 49.1957 68.4897 50.469 67.8396 51.707C67.1654 52.9803 65.7568 53.6169 64.4205 53.2515C63.9148 53.11 63.3731 52.8034 62.8193 52.3318C60.869 50.6812 58.9307 49.0188 56.9924 47.3564L54.8374 45.5054C54.6688 45.3639 54.5003 45.2224 54.3317 45.081C53.802 44.6801 53.489 44.8923 53.2964 45.1045C53.1399 45.2696 53.0676 45.4347 53.0797 45.5879C53.0797 45.8119 53.2723 46.0124 53.4168 46.1421C55.0541 47.5569 56.6914 48.9717 58.3408 50.3629C59.1113 51.0114 59.4724 51.7541 59.4724 52.6502C59.4724 53.782 58.8344 54.8077 57.811 55.3265C57.3897 55.5505 56.9322 55.6566 56.4867 55.6566C55.945 55.6566 55.4153 55.5033 54.9457 55.185C53.5372 54.2536 52.1888 53.1925 50.8886 52.1668C50.3829 51.7659 49.8773 51.3768 49.3717 50.9878C49.2031 50.8581 49.0827 50.6694 48.9623 50.3983C47.9149 47.8634 46.8555 47.2268 44.0624 47.439L43.7615 47.4626L43.6651 47.1796C42.702 44.3146 40.3544 43.7605 38.6449 44.1613L38.2957 44.2439L38.1994 43.902C37.8021 42.5815 37.0798 41.6972 35.9963 41.2138C34.8525 40.7069 33.6848 40.754 32.4207 41.3789L32.1317 41.5204L31.4816 40.6361C30.5185 39.3628 29.0256 38.8912 27.4485 39.3628C26.9549 39.5043 26.5576 39.5279 26.2567 39.3982C23.7525 38.396 21.2605 37.3703 18.7563 36.3564L17.3598 35.7786C17.2394 35.7315 17.1792 35.649 17.119 35.59L16.8662 35.3306L26.3169 12.5405L28.4478 13.4837C32.3364 15.2051 35.9601 14.8867 39.5357 12.5051C41.0045 11.5266 42.6057 10.5008 44.2551 9.59301C45.17 9.09783 46.1813 8.96814 47.1203 9.23931C48.1196 9.53406 48.9864 10.2532 49.5282 11.2672L49.6726 11.5384L49.4198 11.727C49.3115 11.8213 49.2392 11.8921 49.1188 11.9392C45.5793 13.354 44.0865 16.4194 42.6418 19.98C41.8593 21.9018 42.702 24.0947 44.5921 25.0733C46.4943 26.0637 48.8058 25.5213 50.094 23.7646C50.3829 23.3755 50.6358 22.9629 50.8886 22.5502C51.033 22.3026 51.1895 22.0668 51.3461 21.8193C52.1045 20.652 52.8028 20.4752 54.0067 21.1354L56.9201 22.7507C60.8208 24.92 64.7335 27.0894 68.6341 29.2588C69.1277 29.5299 69.5973 29.8836 70.0066 30.2845C72.595 32.7958 75.1593 35.3188 77.7357 37.8301L78.0005 38.0895C78.9275 38.9973 79.1924 40.0938 78.759 41.2492L78.771 41.2728ZM83.8154 35.7904C82.6958 36.2385 81.5761 36.6747 80.4685 37.1463C80.2037 37.2642 79.9629 37.3231 79.7462 37.3231C79.373 37.3231 79.0479 37.1581 78.7108 36.8162C76.0261 34.1398 73.3535 31.5342 70.8734 29.1291C70.5243 28.7872 70.1029 28.4688 69.6575 28.233C67.8275 27.2073 65.9856 26.1816 64.1436 25.1676C60.8208 23.3166 57.486 21.4773 54.1752 19.5909C53.3445 19.1193 52.6704 19.084 52.0202 19.4848C51.3701 19.8739 50.7561 20.4045 50.2144 21.0057C49.9255 21.3241 49.7087 21.7131 49.48 22.114C49.3235 22.3852 49.167 22.6681 48.9744 22.9275C48.1196 24.1655 46.5666 24.5663 45.2904 23.8943C43.9782 23.1987 43.4484 21.7131 44.0383 20.3573L44.3152 19.7206C44.7848 18.6242 45.2663 17.4805 45.9044 16.443C46.41 15.6177 47.1805 14.8396 48.0835 14.2619C49.4318 13.3894 50.8404 12.5759 52.2129 11.786C52.8148 11.444 53.4047 11.1021 53.9947 10.7484C55.7885 9.68733 57.6666 9.59301 59.5567 10.4301C60.4837 10.8427 61.4107 11.2436 62.3377 11.6563C63.9269 12.3519 65.516 13.0475 67.0931 13.7667C70.0548 15.1225 72.9441 15.1933 75.9419 13.9789C76.5077 13.7549 77.0615 13.5309 77.6634 13.3069L78.9396 12.8117L87.7401 34.2224L83.8274 35.7786L83.8154 35.7904ZM99.6227 37.7947C98.3465 38.3371 97.3112 38.7615 96.336 39.1388C95.71 39.3746 95.0719 39.4925 94.4579 39.4925C92.6039 39.4925 90.9666 38.4432 90.2081 36.6157C87.8244 30.8858 85.4647 25.144 83.1051 19.4023L80.3482 12.6938C80.2278 12.3872 80.0953 12.0925 79.9629 11.7977C79.698 11.1729 79.4211 10.5362 79.1924 9.89955C78.3135 7.54154 79.385 5.10101 81.7326 4.09886C82.8523 3.62726 84.0441 3.14387 85.2842 2.69585C85.6574 2.55436 86.0547 2.48362 86.3436 2.43646C86.4399 2.42467 86.5242 2.40109 86.5964 2.3893H86.6446H86.6927C89.0283 2.5072 90.5332 3.4622 91.3037 5.32502C94.9515 14.144 98.5753 22.9747 102.187 31.8172C103.186 34.2695 102.139 36.7336 99.6227 37.8183V37.7947Z" fill="#443C36"/>
<path d="M103.463 30.9329C102.909 29.6007 102.356 28.2684 101.802 26.9243L98.3947 18.6949C96.5166 14.144 94.6265 9.58122 92.7363 5.03027C91.4722 1.98844 88.5106 0.420371 85.5129 1.22209C83.9117 1.64653 82.2142 2.33035 80.4806 3.23819C78.3978 4.32287 77.2661 6.69266 77.6514 9.12141C77.7236 9.59301 77.8561 10.0528 78.0005 10.548C78.0728 10.7838 78.133 11.0196 78.2052 11.2554L78.2895 11.5737L77.1217 12.0218C76.4716 12.2693 75.8215 12.5169 75.1834 12.7763C72.7635 13.7313 70.3196 13.6724 67.9118 12.5995C65.2993 11.4322 62.6748 10.2768 60.0503 9.12141C57.7749 8.11925 55.5116 8.23715 53.3445 9.47511L51.1053 10.7484L50.5274 9.98208C49.0827 8.02493 46.2174 6.70445 43.328 8.46116L42.7141 8.83845C41.4259 9.61659 40.0895 10.4301 38.8375 11.2908C35.2378 13.7549 31.3492 13.7313 27.28 11.22L27.0272 11.0668L27.1476 10.6777C27.1716 10.5834 27.2077 10.4773 27.2439 10.3829C28.3515 7.1171 26.9429 4.03991 23.7164 2.73122L23.3673 2.58973C22.4042 2.18887 21.429 1.7998 20.4418 1.43431C17.1431 0.219941 13.8083 1.62295 12.484 4.7591C8.80003 13.4955 5.07996 22.4559 1.43212 31.381C0.216177 34.3403 1.64883 37.6768 4.69471 38.9973C5.44113 39.3156 6.18755 39.6104 6.94601 39.9051L7.80078 40.2353C11.3643 41.6383 14.1333 40.6833 16.0235 37.4057C16.0716 37.3231 16.1318 37.2524 16.192 37.1934L16.4569 36.8987L25.6306 40.6361L25.4019 41.0016C24.5953 42.3339 24.511 43.678 25.1731 44.798C25.8353 45.9181 27.1716 46.6373 28.6043 46.6373H28.9293L29.0016 46.9202C29.6035 49.3254 30.4824 50.0446 33.2875 50.4454L33.5403 50.4808L33.6005 50.7166C34.0941 52.4851 34.8044 53.6052 35.7675 54.1121C36.7066 54.6073 37.9586 54.5955 39.608 54.065L39.8849 53.9824L40.0414 54.2182C40.1497 54.3715 40.2099 54.4422 40.2581 54.5366C41.0045 55.857 42.1964 56.6706 43.5086 56.7649C44.845 56.8592 46.1211 56.199 47.0602 54.9846C47.4454 54.4776 47.8307 53.9589 48.2279 53.4283L48.9744 52.4262L49.2874 52.662C49.7689 53.0274 50.2385 53.3929 50.6959 53.7584C51.7193 54.5601 52.7306 55.3383 53.7659 56.0928C54.9578 56.9653 56.4265 57.2247 57.799 56.8002C59.1714 56.3758 60.2309 55.3265 60.7124 53.9235C60.7606 53.782 60.8208 53.6405 60.881 53.4873L61.182 52.7327L61.5913 53.1571C62.9758 54.5719 64.902 55.0789 66.6116 54.4894C68.3572 53.8763 69.4889 52.2847 69.6575 50.2096L69.6815 49.8559H70.0427C71.5837 49.9267 72.7876 49.5258 73.7387 48.618C74.6898 47.7101 75.1473 46.5547 75.1473 45.081V44.7508L75.4844 44.7155C79.1683 44.2675 80.2639 43.0767 80.3482 39.3864C80.3482 38.9619 80.8056 38.5493 81.1307 38.4196C82.1059 37.9952 83.1051 37.6061 84.1043 37.217L88.2458 35.5782L88.5949 36.4271C88.7273 36.7454 88.8477 37.0402 88.9802 37.3231C90.1479 39.9405 92.7604 41.32 95.4933 40.7658C96.6972 40.5182 97.8891 40.023 99.0448 39.5514C99.3458 39.4335 99.6468 39.3039 99.9357 39.186C103.475 37.7712 104.884 34.4699 103.439 30.9801L103.463 30.9329ZM14.7834 36.7218C14.0611 38.4668 12.4599 39.4807 10.6661 39.4807C10.1002 39.4807 9.52237 39.3864 8.94449 39.1742C7.75263 38.7497 6.60892 38.2899 5.54948 37.8419C2.97312 36.769 1.90165 34.2577 2.937 31.7111C5.51336 25.4152 8.08972 19.1311 10.6781 12.8471L13.0257 7.1171C13.3026 6.43328 13.5795 5.72588 13.9046 5.04206C14.7232 3.33251 16.18 2.44825 18.347 2.35393H18.3952H18.4433C18.5276 2.37751 18.6239 2.3893 18.7322 2.41288C19.0332 2.47183 19.4185 2.54257 19.7917 2.68406C20.9956 3.12029 22.1634 3.5801 23.271 4.03991C25.6788 5.05385 26.7864 7.57691 25.8233 9.89955C22.2115 18.7303 18.4915 27.7378 14.7594 36.6983L14.7834 36.7218ZM29.736 44.4089C29.435 44.7037 28.8451 45.2107 28.2311 45.2107H28.219C27.2077 45.2107 26.1603 44.1967 26.1363 43.1828C26.1242 42.6758 26.4252 42.0274 26.9429 41.4614C27.4726 40.8955 28.0866 40.5418 28.5922 40.53C29.134 40.53 29.6878 40.7305 30.0971 41.1195C30.4944 41.4968 30.7232 41.9684 30.7232 42.4754C30.7352 43.1592 30.2296 43.9255 29.748 44.4089H29.736ZM34.7201 48.1228C34.2386 48.7005 33.5764 48.9953 32.9022 48.9953C32.3966 48.9953 31.8909 48.8302 31.4455 48.5001C30.3981 47.7219 30.1814 46.3779 30.9278 45.2932C31.4455 44.5504 31.9873 43.843 32.529 43.2064C33.2152 42.3928 34.2867 42.1335 35.2619 42.5343C36.2491 42.9352 36.7427 43.7133 36.7788 44.8923V44.9631L36.7547 45.0338C36.7427 45.0692 36.7306 45.1163 36.7186 45.1753C36.6584 45.3757 36.5862 45.6469 36.4176 45.8827C35.7675 46.8023 35.2498 47.4979 34.7201 48.1228ZM39.3431 52.3436C39.0542 52.6855 38.6208 52.8742 38.3318 52.9921C38.2476 53.0274 38.1753 53.0628 38.1272 53.0864L38.0309 53.1336H37.9225C36.7066 53.1336 35.912 52.6855 35.3823 51.7659C34.9368 50.976 35.0091 50.1153 35.5749 49.3607L36.2491 48.4529C36.7908 47.7219 37.3446 46.991 37.8984 46.2718C38.681 45.2578 39.9932 45.0574 41.0767 45.7884C42.2686 46.5901 42.5937 47.8752 41.8834 48.9245C41.0406 50.1507 40.1859 51.2943 39.3311 52.32L39.3431 52.3436ZM47.6019 51.4476C47.6019 51.4476 47.5658 51.5419 47.5417 51.6126C47.4574 51.8367 47.3371 52.1786 47.1444 52.4851C46.6869 53.1689 46.1813 53.8292 45.7359 54.3715C45.2182 55.02 44.5079 55.3501 43.7855 55.3501C43.316 55.3501 42.8344 55.2086 42.401 54.9021C41.3175 54.1593 41.0647 52.7563 41.8232 51.6362C42.3408 50.8817 42.8706 50.1743 43.4123 49.5376C44.0865 48.7359 45.1339 48.4883 46.1572 48.8891C47.0842 49.2546 47.626 50.1271 47.638 51.2825L47.614 51.424L47.6019 51.4476ZM78.771 41.2728C78.3256 42.4636 77.3865 43.1828 76.2308 43.1356C75.376 43.112 74.4731 42.8055 73.9434 42.3339C72.0171 40.6126 70.1029 38.8205 68.2609 37.0873L66.1782 35.142C66.1059 35.0712 66.0337 35.0005 65.9494 34.9415C65.4318 34.5053 65.1187 34.7175 64.9261 34.9062C64.6974 35.1302 64.4927 35.4485 64.9863 35.9555C65.203 36.1677 65.4197 36.3799 65.6485 36.5922L68.0683 38.8676C69.5973 40.306 71.1262 41.7444 72.6431 43.1828C73.9313 44.3971 74.0517 46.1185 72.9562 47.3564C71.8365 48.618 69.9584 48.7005 68.598 47.5569C65.7448 45.1635 62.8915 42.7583 60.0383 40.3532C59.4845 39.8816 59.1714 39.9877 58.8584 40.2706C58.738 40.3885 58.6778 40.5182 58.6778 40.6597C58.6778 40.8955 58.8464 41.1667 59.1233 41.4261L61.4468 43.4068C63.3249 45.0102 65.203 46.6137 67.0691 48.2171C68.2128 49.1957 68.4897 50.469 67.8396 51.707C67.1654 52.9803 65.7568 53.6169 64.4205 53.2515C63.9148 53.11 63.3731 52.8034 62.8193 52.3318C60.869 50.6812 58.9307 49.0188 56.9924 47.3564L54.8374 45.5054C54.6688 45.3639 54.5003 45.2224 54.3317 45.081C53.802 44.6801 53.489 44.8923 53.2964 45.1045C53.1399 45.2696 53.0676 45.4347 53.0797 45.5879C53.0797 45.8119 53.2723 46.0124 53.4168 46.1421C55.0541 47.5569 56.6914 48.9717 58.3408 50.3629C59.1113 51.0114 59.4724 51.7541 59.4724 52.6502C59.4724 53.782 58.8344 54.8077 57.811 55.3265C57.3897 55.5505 56.9322 55.6566 56.4867 55.6566C55.945 55.6566 55.4153 55.5033 54.9457 55.185C53.5372 54.2536 52.1888 53.1925 50.8886 52.1668C50.3829 51.7659 49.8773 51.3768 49.3717 50.9878C49.2031 50.8581 49.0827 50.6694 48.9623 50.3983C47.9149 47.8634 46.8555 47.2268 44.0624 47.439L43.7615 47.4626L43.6651 47.1796C42.702 44.3146 40.3544 43.7605 38.6449 44.1613L38.2957 44.2439L38.1994 43.902C37.8021 42.5815 37.0798 41.6972 35.9963 41.2138C34.8525 40.7069 33.6848 40.754 32.4207 41.3789L32.1317 41.5204L31.4816 40.6361C30.5185 39.3628 29.0256 38.8912 27.4485 39.3628C26.9549 39.5043 26.5576 39.5279 26.2567 39.3982C23.7525 38.396 21.2605 37.3703 18.7563 36.3564L17.3598 35.7786C17.2394 35.7315 17.1792 35.649 17.119 35.59L16.8662 35.3306L26.3169 12.5405L28.4478 13.4837C32.3364 15.2051 35.9601 14.8867 39.5357 12.5051C41.0045 11.5266 42.6057 10.5008 44.2551 9.59301C45.17 9.09783 46.1813 8.96814 47.1203 9.23931C48.1196 9.53406 48.9864 10.2532 49.5282 11.2672L49.6726 11.5384L49.4198 11.727C49.3115 11.8213 49.2392 11.8921 49.1188 11.9392C45.5793 13.354 44.0865 16.4194 42.6418 19.98C41.8593 21.9018 42.702 24.0947 44.5921 25.0733C46.4943 26.0637 48.8058 25.5213 50.094 23.7646C50.3829 23.3755 50.6358 22.9629 50.8886 22.5502C51.033 22.3026 51.1895 22.0668 51.3461 21.8193C52.1045 20.652 52.8028 20.4752 54.0067 21.1354L56.9201 22.7507C60.8208 24.92 64.7335 27.0894 68.6341 29.2588C69.1277 29.5299 69.5973 29.8836 70.0066 30.2845C72.595 32.7958 75.1593 35.3188 77.7357 37.8301L78.0005 38.0895C78.9275 38.9973 79.1924 40.0938 78.759 41.2492L78.771 41.2728ZM83.8154 35.7904C82.6958 36.2385 81.5761 36.6747 80.4685 37.1463C80.2037 37.2642 79.9629 37.3231 79.7462 37.3231C79.373 37.3231 79.0479 37.1581 78.7108 36.8162C76.0261 34.1398 73.3535 31.5342 70.8734 29.1291C70.5243 28.7872 70.1029 28.4688 69.6575 28.233C67.8275 27.2073 65.9856 26.1816 64.1436 25.1676C60.8208 23.3166 57.486 21.4773 54.1752 19.5909C53.3445 19.1193 52.6704 19.084 52.0202 19.4848C51.3701 19.8739 50.7561 20.4045 50.2144 21.0057C49.9255 21.3241 49.7087 21.7131 49.48 22.114C49.3235 22.3852 49.167 22.6681 48.9744 22.9275C48.1196 24.1655 46.5666 24.5663 45.2904 23.8943C43.9782 23.1987 43.4484 21.7131 44.0383 20.3573L44.3152 19.7206C44.7848 18.6242 45.2663 17.4805 45.9044 16.443C46.41 15.6177 47.1805 14.8396 48.0835 14.2619C49.4318 13.3894 50.8404 12.5759 52.2129 11.786C52.8148 11.444 53.4047 11.1021 53.9947 10.7484C55.7885 9.68733 57.6666 9.59301 59.5567 10.4301C60.4837 10.8427 61.4107 11.2436 62.3377 11.6563C63.9269 12.3519 65.516 13.0475 67.0931 13.7667C70.0548 15.1225 72.9441 15.1933 75.9419 13.9789C76.5077 13.7549 77.0615 13.5309 77.6634 13.3069L78.9396 12.8117L87.7401 34.2224L83.8274 35.7786L83.8154 35.7904ZM99.6227 37.7947C98.3465 38.3371 97.3112 38.7615 96.336 39.1388C95.71 39.3746 95.0719 39.4925 94.4579 39.4925C92.6039 39.4925 90.9666 38.4432 90.2081 36.6157C87.8244 30.8858 85.4647 25.144 83.1051 19.4023L80.3482 12.6938C80.2278 12.3872 80.0953 12.0925 79.9629 11.7977C79.698 11.1729 79.4211 10.5362 79.1924 9.89955C78.3135 7.54154 79.385 5.10101 81.7326 4.09886C82.8523 3.62726 84.0441 3.14387 85.2842 2.69585C85.6574 2.55436 86.0547 2.48362 86.3436 2.43646C86.4399 2.42467 86.5242 2.40109 86.5964 2.3893H86.6446H86.6927C89.0283 2.5072 90.5332 3.4622 91.3037 5.32502C94.9515 14.144 98.5753 22.9747 102.187 31.8172C103.186 34.2695 102.139 36.7336 99.6227 37.8183V37.7947Z" stroke="#443C36" mask="url(#path-1-outside-1_281_60)"/>
</svg>
