<svg width="63" height="67" viewBox="0 0 63 67" fill="none" xmlns="http://www.w3.org/2000/svg">
<path d="M31.2569 17.9032C26.3151 17.9032 22.3068 13.8942 22.3068 8.95162C22.3068 4.00901 26.3288 0 31.2569 0C36.185 0 40.2071 4.00901 40.2071 8.95162C40.2071 13.8942 36.1987 17.9032 31.2569 17.9032ZM31.2569 2.05942C27.4545 2.05942 24.3658 5.14855 24.3658 8.95162C24.3658 12.7547 27.4545 15.8438 31.2569 15.8438C35.0593 15.8438 38.148 12.7547 38.148 8.95162C38.148 5.14855 35.0593 2.05942 31.2569 2.05942Z" fill="#443C36"/>
<path d="M40.111 51.5544C39.5482 51.5544 39.0814 51.0876 39.0814 50.5247V35.1615C39.0814 34.6123 39.5207 34.1455 40.0698 34.1317C40.5914 34.0768 41.0993 34.5299 41.1268 35.0928C41.6484 42.4243 47.2354 44.1543 48.0728 44.3602H58.6016C59.5762 44.3602 60.3724 43.3168 60.3724 42.0536C60.3724 40.7905 59.5762 39.7471 58.6016 39.7471H47.9492C47.4276 39.7471 47.002 39.3627 46.9334 38.8547C46.906 38.6762 44.4076 21.0338 32.2041 21.3496H31.2432C31.1471 21.3496 31.051 21.3496 30.9549 21.3496C18.9573 21.3496 16.5138 38.6762 16.4864 38.8547C16.4178 39.3627 15.9785 39.7471 15.4706 39.7471H4.81824C3.84361 39.7471 3.04744 40.7905 3.04744 42.0536C3.04744 43.3168 3.84361 44.3602 4.81824 44.3602H15.347C16.1707 44.1405 21.7714 42.4381 22.293 35.0928C22.3342 34.5436 22.7597 34.0768 23.35 34.1317C23.8991 34.1455 24.3384 34.6123 24.3384 35.1615V50.5247C24.3384 51.0876 23.8716 51.5544 23.3088 51.5544C22.746 51.5544 22.2793 51.0876 22.2793 50.5247V41.628C19.726 45.4723 15.7314 46.3922 15.6765 46.3922C15.6079 46.4059 15.5392 46.4196 15.4568 46.4196H4.80452C2.69053 46.4196 0.974609 44.4563 0.974609 42.0536C0.974609 39.651 2.69053 37.6877 4.80452 37.6877H14.592C15.3196 33.8572 18.9436 18.9881 31.2569 19.2902H32.1766C44.4625 19.0019 48.0865 33.8434 48.814 37.6877H58.6016C60.7156 37.6877 62.4315 39.651 62.4315 42.0536C62.4315 44.4563 60.7156 46.4196 58.6016 46.4196H47.9492C47.8806 46.4196 47.7982 46.4196 47.7296 46.3922C47.6747 46.3922 43.68 45.4723 41.1268 41.628V50.5247C41.1268 51.0876 40.66 51.5544 40.0972 51.5544H40.111Z" fill="#443C36"/>
<path d="M21.6067 58.9818C21.4969 58.9818 21.3871 58.9681 21.2773 58.9269L11.2701 55.5907C8.84037 54.7806 7.50884 52.1446 8.31875 49.7007C9.12865 47.2706 11.7643 45.9388 14.2077 46.7626L32.8631 52.9683C33.3984 53.1468 33.7004 53.7372 33.522 54.2726C33.3435 54.8081 32.7532 55.1101 32.2179 54.9179L13.5625 48.7122C12.2035 48.2591 10.7347 49.0005 10.2817 50.3597C9.82873 51.719 10.57 53.188 11.929 53.6411L21.9362 56.9773C22.4715 57.1558 22.7735 57.7462 22.5951 58.2816C22.4578 58.7073 22.046 58.9818 21.6204 58.9818H21.6067Z" fill="#443C36"/>
<path d="M42.7191 65.8187C42.2386 65.8187 41.7445 65.7364 41.2503 65.5853L32.3276 62.6198C31.7922 62.4413 31.4902 61.8509 31.6687 61.3155C31.8471 60.78 32.4374 60.478 32.9728 60.6702L41.8955 63.6357C43.2545 64.0888 44.7233 63.3474 45.1763 61.9882C45.3959 61.3292 45.341 60.629 45.039 60.0112C44.7233 59.3933 44.2016 58.9265 43.5427 58.7069L43.2682 58.6108C42.7328 58.4323 42.4308 57.8419 42.623 57.3065C42.8015 56.771 43.378 56.469 43.9271 56.6612L44.2016 56.7573C45.3822 57.1554 46.3431 57.9792 46.8922 59.0913C47.455 60.2034 47.5374 61.4665 47.1393 62.6472C46.4941 64.5968 44.6684 65.8325 42.7191 65.8325V65.8187Z" fill="#443C36"/>
<path d="M20.4536 66.8899C18.5592 66.8899 16.761 65.7229 16.0746 63.8283C15.6491 62.6613 15.704 61.3981 16.2256 60.2723C16.7472 59.1465 17.6807 58.2953 18.8475 57.8697L21.2498 56.991C21.4694 56.9086 21.7165 56.9086 21.9224 56.991L32.9728 60.6705C33.3846 60.8078 33.6729 61.1922 33.6729 61.6315C33.6729 62.0709 33.4121 62.469 33.0003 62.6201L22.0322 66.6291C21.5106 66.8213 20.9615 66.9174 20.4399 66.9174L20.4536 66.8899ZM21.6204 59.0504L19.5613 59.8055C18.9161 60.0389 18.3945 60.5195 18.0925 61.151C17.8042 61.7826 17.7768 62.4828 18.0101 63.1281C18.5043 64.4735 19.9869 65.16 21.3321 64.6795L29.5273 61.6865L21.6204 59.0504Z" fill="#443C36"/>
<path d="M43.5839 58.6662C43.4741 58.6662 43.3643 58.6524 43.2545 58.6112L32.204 54.9317C31.7922 54.7944 31.504 54.41 31.504 53.9707C31.504 53.5313 31.7648 53.1332 32.1766 52.9822L49.0474 46.8176C50.2142 46.392 51.4771 46.4469 52.6027 46.9686C53.7284 47.4904 54.5795 48.424 55.005 49.591C55.4306 50.758 55.3756 52.0211 54.854 53.1469C54.3324 54.2727 53.3989 55.124 52.2321 55.5633L43.9134 58.5975C43.8036 58.6387 43.68 58.6662 43.5565 58.6662H43.5839ZM35.6633 53.9158L43.5702 56.5518L51.5457 53.6412C52.1909 53.4078 52.7125 52.9272 53.0145 52.2957C53.3028 51.6641 53.3303 50.9639 53.0969 50.3186C52.8635 49.6734 52.3831 49.1516 51.7516 48.8633C51.1202 48.575 50.4201 48.5338 49.7612 48.7809L35.6633 53.9295V53.9158Z" fill="#443C36"/>
</svg>
