<svg width="97" height="97" viewBox="0 0 97 97" fill="none" xmlns="http://www.w3.org/2000/svg">
<path d="M47.9999 29C42.4785 29 38 24.5215 38 19C38 13.4785 42.4938 9 47.9999 9C53.5061 9 58 13.4785 58 19C58 24.5215 53.5214 29 47.9999 29ZM47.9999 11.3006C43.7515 11.3006 40.3005 14.7515 40.3005 19C40.3005 23.2485 43.7515 26.6994 47.9999 26.6994C52.2484 26.6994 55.6994 23.2485 55.6994 19C55.6994 14.7515 52.2484 11.3006 47.9999 11.3006Z" fill="#443C36"/>
<path d="M58.4872 69C57.8187 69 57.2642 68.4503 57.2642 67.7874V49.6955C57.2642 49.0488 57.786 48.4991 58.4382 48.4828C59.0578 48.4182 59.6611 48.9518 59.6938 49.6146C60.3133 58.2483 66.9497 60.2856 67.9444 60.528H80.4508C81.6084 60.528 82.5541 59.2993 82.5541 57.8118C82.5541 56.3243 81.6084 55.0956 80.4508 55.0956H67.7976C67.178 55.0956 66.6725 54.6429 66.591 54.0447C66.5584 53.8345 63.5908 33.0586 49.0952 33.4305H47.9538C47.8396 33.4305 47.7255 33.4305 47.6113 33.4305C33.3603 33.4305 30.4578 53.8345 30.4253 54.0447C30.3438 54.6429 29.822 55.0956 29.2187 55.0956H16.5656C15.4079 55.0956 14.4622 56.3243 14.4622 57.8118C14.4622 59.2993 15.4079 60.528 16.5656 60.528H29.0719C30.0503 60.2693 36.7029 58.2645 37.3225 49.6146C37.3714 48.9679 37.8769 48.4182 38.578 48.4828C39.2303 48.4991 39.7521 49.0488 39.7521 49.6955V67.7874C39.7521 68.4503 39.1976 69 38.5291 69C37.8606 69 37.3062 68.4503 37.3062 67.7874V57.3106C34.2734 61.8377 29.5285 62.9209 29.4633 62.9209C29.3818 62.9371 29.3002 62.9532 29.2023 62.9532H16.5493C14.0382 62.9532 12 60.6412 12 57.8118C12 54.9824 14.0382 52.6704 16.5493 52.6704H28.1751C29.0393 48.1596 33.344 30.6496 47.97 31.0053H49.0625C63.656 30.6658 67.9607 48.1433 68.8248 52.6704H80.4508C82.9618 52.6704 85 54.9824 85 57.8118C85 60.6412 82.9618 62.9532 80.4508 62.9532H67.7976C67.7161 62.9532 67.6182 62.9532 67.5367 62.9209C67.4715 62.9209 62.7265 61.8377 59.6938 57.3106V67.7874C59.6938 68.4503 59.1393 69 58.4708 69H58.4872Z" fill="#443C36"/>
<path d="M36.9171 79C36.7879 79 36.6587 78.9835 36.5295 78.9339L24.7526 74.9187C21.8932 73.9437 20.3262 70.7712 21.2793 67.8299C22.2324 64.9051 25.3342 63.3023 28.2097 64.2937L50.1641 71.7625C50.7941 71.9774 51.1495 72.6879 50.9395 73.3323C50.7295 73.9768 50.0348 74.3403 49.4048 74.1089L27.4504 66.6402C25.851 66.0948 24.1225 66.9871 23.5894 68.623C23.0563 70.259 23.9287 72.027 25.528 72.5723L37.3049 76.5875C37.9348 76.8023 38.2902 77.5129 38.0803 78.1573C37.9187 78.6696 37.4341 79 36.9332 79H36.9171Z" fill="#443C36"/>
<path d="M62.3762 86.9851C61.7973 86.9851 61.2019 86.8959 60.6065 86.7322L49.8559 83.5191C49.2108 83.3257 48.8469 82.686 49.062 82.1059C49.2769 81.5257 49.9882 81.1985 50.6332 81.4067L61.3839 84.6198C63.0213 85.1107 64.791 84.3074 65.3368 82.8347C65.6014 82.1207 65.5352 81.3621 65.1714 80.6927C64.791 80.0232 64.1624 79.5174 63.3685 79.2795L63.0378 79.1754C62.3927 78.982 62.0288 78.3423 62.2604 77.7622C62.4755 77.182 63.1701 76.8548 63.8317 77.063L64.1624 77.1671C65.5849 77.5985 66.7426 78.491 67.4042 79.696C68.0823 80.9009 68.1816 82.2695 67.7019 83.5488C66.9246 85.6611 64.7248 87 62.3762 87V86.9851Z" fill="#443C36"/>
<path d="M34.7366 87.9697C32.406 87.9697 30.1937 86.6845 29.3492 84.598C28.8257 83.3128 28.8933 81.9216 29.535 80.6818C30.1767 79.4419 31.3252 78.5045 32.7607 78.0358L35.7161 77.0681C35.9863 76.9773 36.2903 76.9773 36.5436 77.0681L50.1387 81.1203C50.6453 81.2715 51 81.6948 51 82.1786C51 82.6626 50.6791 83.101 50.1725 83.2674L36.6787 87.6825C36.037 87.8942 35.3615 88 34.7197 88L34.7366 87.9697ZM36.1721 79.3361L33.6388 80.1677C32.8451 80.4247 32.2033 80.954 31.8318 81.6495C31.4771 82.345 31.4434 83.1162 31.7304 83.8268C32.3384 85.3085 34.1624 86.0646 35.8174 85.5354L45.8998 82.2392L36.1721 79.3361Z" fill="#443C36"/>
<path d="M63.2207 79C63.0914 79 62.9622 78.9829 62.8329 78.932L49.8241 74.3829C49.3393 74.2131 49 73.7379 49 73.1947C49 72.6515 49.307 72.1593 49.7918 71.9726L69.6524 64.351C71.026 63.8248 72.5127 63.8927 73.8378 64.5377C75.163 65.1829 76.1649 66.3371 76.6658 67.7799C77.1668 69.2227 77.1021 70.7844 76.488 72.1762C75.874 73.5681 74.7751 74.6206 73.4015 75.1637L63.6086 78.9151C63.4793 78.966 63.3338 79 63.1884 79H63.2207ZM53.8964 73.1269L63.2045 76.3859L72.5934 72.7874C73.353 72.4988 73.967 71.9046 74.3225 71.1239C74.6619 70.343 74.6943 69.4773 74.4195 68.6795C74.1448 67.8818 73.5792 67.2367 72.8358 66.8802C72.0925 66.5238 71.2684 66.4729 70.4927 66.7784L53.8964 73.1438V73.1269Z" fill="#443C36"/>
</svg>
