<svg width="97" height="97" viewBox="0 0 97 97" fill="none" xmlns="http://www.w3.org/2000/svg">
<path d="M44.4676 73.2279C43.6866 68.4497 42.8796 63.5182 42.1116 58.6634C41.5128 54.92 40.9532 54.3834 37.0874 53.9363C36.775 53.8979 36.3714 53.6169 36.2674 53.3486C35.7467 52.071 34.7965 51.3555 33.4558 51.2022C32.792 51.1256 32.1151 51.1 31.3993 51.0745C31.0608 51.0617 30.7224 51.0489 30.371 51.0234H30.1887L30.5662 50.7423C30.6183 50.704 30.6573 50.6656 30.7094 50.6401C32.011 49.6946 32.4536 48.3405 31.8809 47.0245C31.2951 45.6831 30.0065 45.0443 28.4446 45.3126C27.6896 45.4403 26.9477 45.6064 26.1667 45.7597C25.8022 45.8363 25.4248 45.913 25.0473 45.9896H24.9822L24.9692 45.9385C24.1492 42.4124 23.3552 38.9757 22.5612 35.539C22.1447 33.7375 20.791 32.7921 18.9557 33.0349C17.589 33.2138 16.3524 33.4054 15.181 33.6481C14.5692 33.7759 13.9574 33.942 13.3067 34.1336C13.0073 34.223 12.6949 34.2997 12.3825 34.3891H12.3434L12.3174 34.3763C10.7294 32.8049 8.63379 32 6.0826 32C5.96546 32 5.86133 32 5.74418 32C4.07809 32.0511 4 32.1278 4 33.7375V72.0142C4 73.2322 4.59874 73.905 5.79624 74.0328C5.79624 74.0328 5.88736 74.0711 5.93943 74.1094C5.96546 74.135 5.9915 74.1605 6.03054 74.1861L6.05656 74.2116V74.2372C6.05656 74.5694 6.05656 74.9015 6.05656 75.2465C6.05656 76.0386 6.05656 76.869 6.05656 77.6867C6.05656 78.3127 6.14767 78.9004 6.9677 78.977C7.21501 79.0026 7.4363 78.9387 7.5925 78.7982C7.82679 78.581 7.95694 78.1977 7.96996 77.6867C7.96996 76.869 7.96996 76.0514 7.96996 75.2209V74.0328H31.6466V74.0966C31.6466 74.4544 31.6466 74.7993 31.6466 75.1571C31.6466 76.0002 31.6466 76.8051 31.6466 77.6228C31.6336 78.3893 31.7897 78.9132 32.5837 78.977C32.831 79.0026 33.0393 78.9387 33.1825 78.7982C33.4298 78.581 33.547 78.1721 33.547 77.5717C33.547 76.8051 33.547 76.0258 33.547 75.2593V74.0583H33.599C34.918 73.922 35.5775 73.2364 35.5775 72.0014V61.359L35.6816 61.4741C35.8899 61.6913 35.981 61.8956 36.0591 62.1639L37.2956 66.7377C38.2198 70.1489 39.1439 73.5473 40.0681 76.9585C40.4716 78.4532 41.6561 79.2326 43.0358 78.9387C44.4546 78.6449 45.2095 77.444 44.9492 75.8853L44.5066 73.2024L44.4676 73.2279ZM13.7231 36.1522C13.9835 35.7945 14.5302 35.6412 15.3762 35.5262C16.2353 35.3984 17.0944 35.2707 17.9404 35.1301C18.3439 35.0663 18.7604 35.0024 19.164 34.9385C19.9449 34.8107 20.4526 35.079 20.6088 35.7178C21.2205 38.2858 21.8062 40.8154 22.418 43.4856C22.6393 44.4438 22.8605 45.4019 23.0818 46.3729V46.4368L19.2941 47.2289V47.1651L19.1249 46.143C18.8646 44.4821 18.6173 42.8724 18.3569 41.2626C18.3309 41.1221 18.3049 40.9687 18.2919 40.8282C18.2137 40.3043 18.1227 39.7678 18.0055 39.244C17.8624 38.6563 17.4588 38.388 16.86 38.503C16.3264 38.6179 16.0661 39.0012 16.1572 39.5761C16.5867 42.4124 17.0554 45.287 17.4979 48.0722L17.6801 49.222C17.6801 49.222 17.7061 49.3114 17.7452 49.3753C17.7582 49.4008 17.7842 49.4392 17.7973 49.4774C20.4005 48.9281 23.0168 48.3787 25.6461 47.8294C25.9715 47.7655 26.2969 47.6889 26.6092 47.6249C27.2861 47.4845 27.989 47.3311 28.6789 47.1906C29.1474 47.1012 29.5119 47.1395 29.7592 47.3055C29.9675 47.4461 30.1106 47.6633 30.1757 47.9699C30.3189 48.6598 29.9675 49.107 29.1214 49.2731C28.3014 49.4392 27.4813 49.6308 26.6743 49.8097C24.7349 50.2441 22.7174 50.6784 20.7259 51.0106C20.2313 51.0872 19.7367 51.1128 19.2291 51.1128C18.8125 51.1128 18.396 51.1 17.9534 51.0745C17.5109 51.0617 17.0684 51.0361 16.5997 51.0361H16.5477V50.985L16.2093 49.503C15.9229 48.1871 15.6235 46.8584 15.3372 45.5297C15.207 44.9037 15.0638 44.2777 14.9337 43.6517C14.5171 41.7353 14.0876 39.7678 13.6841 37.8259C13.5279 37.0593 13.4759 36.51 13.7362 36.1395L13.7231 36.1522ZM34.4971 56.0698V56.121H31.178C27.7417 56.121 24.3054 56.121 20.8691 56.121C20.804 56.121 20.7259 56.121 20.6478 56.121C20.4135 56.121 20.1532 56.0954 20.0231 56.1976C19.7367 56.4404 19.3982 56.8364 19.3982 57.1686C19.3982 57.4113 19.7757 57.7435 20.1271 57.9479C20.2834 58.0373 20.5176 58.0246 20.7389 58.0118C20.8301 58.0118 20.9081 58.0118 20.9862 58.0118C24.1882 58.0118 27.3773 58.0118 30.5793 58.0118H33.586V72.0653H5.93943V33.9164H6.00451C6.10863 33.9164 6.19975 33.9164 6.30387 33.9164C7.95694 33.9164 9.28459 34.3636 10.3649 35.2707C10.9116 35.7306 11.3542 36.4716 11.5104 37.1615C12.3434 40.7771 13.1374 44.4565 13.9053 48.0082C14.1526 49.1709 14.413 50.3462 14.6604 51.5089C14.9597 52.9142 15.0508 52.9781 16.5477 52.9781H22.0926C25.4248 52.9781 28.744 52.9781 32.0761 52.9781C33.1955 52.9781 33.8724 53.1697 34.2498 53.6169C34.6403 54.0895 34.7184 54.8433 34.4971 56.0571V56.0698ZM42.8016 76.7413C42.7625 76.8435 42.7104 76.9457 42.6843 77.0478L42.6453 77.1629L42.5672 77.0734C42.4891 76.984 42.398 76.9074 42.3069 76.8306C42.1116 76.6518 41.9034 76.4602 41.8383 76.2302C40.1722 70.2256 38.7535 64.9619 37.4909 60.171C37.2956 59.4554 37.0874 58.9572 36.2153 59.136C36.0981 59.1616 35.981 59.136 35.7858 59.136C35.6686 59.1233 35.5384 59.1105 35.3562 59.0978H35.2521L35.3041 58.9955C35.4083 58.8422 35.4994 58.7016 35.5905 58.5739C35.7597 58.3312 35.9029 58.1268 35.994 57.9223C36.1892 57.5007 36.3584 57.0792 36.5667 56.5809C36.6578 56.3509 36.762 56.1082 36.8661 55.8527V55.8016H36.9311C37.0744 55.8271 37.2305 55.8399 37.4128 55.8527C37.8814 55.9038 38.4541 55.9549 38.9617 56.1848C39.4042 56.3765 39.8728 56.9897 39.9639 57.5007C41.0573 63.9909 42.0856 70.5194 42.9577 76.0514C42.9968 76.2813 42.8926 76.5113 42.8016 76.754V76.7413Z" fill="#443C36"/>
<path d="M52.2985 51.2932C53.8052 50.6039 55.2736 50.8209 56.627 51.9315C58.4912 53.4506 60.1893 54.8165 61.9514 56.1696C62.5771 56.6547 63.2282 57.0122 63.8539 57.2292C65.8329 57.9185 67.8375 58.6079 69.7912 59.2717C71.617 59.8972 73.5067 60.5355 75.3582 61.1865C76.4179 61.5568 77.567 61.7993 78.7289 61.0844C78.9588 60.944 79.278 60.9567 79.5589 60.9567C79.61 60.9567 79.6611 60.9567 79.7121 60.9567C83.3766 60.9567 87.0411 60.9567 90.706 60.9567H94V59.0546H80.0441L80.5804 57.7143C81.2698 55.9909 81.921 54.357 82.5977 52.723C82.6743 52.5315 83.0957 52.4166 83.3128 52.4549C84.2193 52.5825 85.1259 52.7357 86.0069 52.8761C86.6708 52.9782 87.3348 53.0931 87.9987 53.1952C89.3904 53.3995 90.7566 53.6038 92.1997 53.8081C92.7866 53.8974 93.387 53.974 93.9873 54.0633V52.1996L83.466 50.5783L83.4915 50.5018C83.5681 50.3102 83.632 50.1443 83.6831 50.0038C83.7724 49.7868 83.8363 49.6081 83.9002 49.4167C84.513 47.7571 83.8363 46.1104 82.3041 45.4976C80.7719 44.8849 79.1375 45.6253 78.4352 47.2465C78.2437 47.6806 78.065 48.1274 77.8862 48.5869C77.7969 48.8167 77.6947 49.0592 77.5925 49.3146L77.567 49.3656H77.5159C76.7499 49.0975 75.9838 48.855 75.2304 48.6125C73.6727 48.1146 72.0639 47.6039 70.4934 47.0933C67.9908 46.2764 66.0117 46.9401 64.4668 49.0975C63.7772 50.0677 63.0494 51.0379 62.3345 51.9825C62.0152 52.4166 61.696 52.8379 61.3768 53.2719L61.3385 53.323L61.2874 53.2846C60.2787 52.4676 59.3594 51.7145 58.4146 50.9613L58.3379 50.8975L58.4273 50.8464C60.7767 49.5826 62.2834 47.9869 62.7941 46.2508C63.1899 44.8976 62.9856 43.4807 62.1812 42.0509C61.4023 40.6467 60.1128 39.651 58.5677 39.217C58.0443 39.0766 57.508 39 56.9717 39C55.9503 39 54.9544 39.268 54.0478 39.7787C52.5922 40.6084 51.6601 41.7573 51.3026 43.1615C50.8557 44.8976 51.3026 46.9401 52.5666 49.0848L52.605 49.1486L52.4135 49.2124C52.3113 49.2507 52.222 49.2762 52.1325 49.3146C49.4895 50.2975 48.0339 52.3272 48.0211 55.0335C47.9956 60.3185 47.9956 65.6928 48.0084 70.9011C48.0084 73.1734 48.0084 75.4329 48.0084 77.7051C48.0084 78.5477 48.2893 78.9307 48.9277 78.9945C49.1703 79.0201 49.3746 78.9562 49.5278 78.8158C49.7704 78.5988 49.8981 78.2158 49.8981 77.6924C49.8981 76.4286 49.8981 75.152 49.8981 73.9138C49.8981 73.4159 49.8981 72.9053 49.8981 72.4075V69.9564H94V68.0799H49.9619V68.0161C49.9619 67.9267 49.9364 67.8502 49.9364 67.7863C49.9237 67.6459 49.9108 67.531 49.9108 67.4162V65.2332C49.9108 61.9014 49.9108 58.4419 49.9108 55.0462C49.9108 53.2846 50.7408 51.9826 52.2985 51.2804V51.2932ZM63.4197 53.6293C64.2624 52.4931 65.2584 51.1528 66.267 49.8379C67.1353 48.7146 68.31 48.3571 69.6762 48.7911C71.2978 49.3146 72.9193 49.8379 74.5793 50.3869L76.8776 51.14L76.852 51.2039L75.3326 54.9442L75.2815 54.9186L69.9699 53.1187C69.8294 53.0676 69.689 53.0293 69.5613 52.9782C69.242 52.8634 68.9739 52.8506 68.7569 52.9655C68.5398 53.0676 68.3866 53.2591 68.2845 53.5527C68.1057 54.0761 68.3483 54.5102 68.9484 54.7272C70.1358 55.1612 71.3488 55.5697 72.5236 55.9782L72.9959 56.1441C73.8004 56.425 74.6048 56.6931 75.4475 56.9739L76.4179 57.3058C76.469 57.1909 76.5201 57.076 76.5711 56.9739C76.6732 56.7441 76.7754 56.5271 76.8647 56.2973C77.8735 53.7952 78.9971 50.9485 80.1079 48.1657C80.325 47.6295 80.6442 47.1061 81.4103 47.1955C81.7423 47.2337 81.9849 47.3869 82.1381 47.6295C82.3296 47.9487 82.3168 48.4338 82.0998 48.9698C81.206 51.2166 80.2994 53.4633 79.3929 55.7101L78.7034 57.4334C78.6268 57.6122 78.5629 57.7909 78.4863 57.9568C78.3587 58.276 78.2182 58.5951 78.1033 58.9143C77.899 59.4504 77.5543 59.7185 77.0818 59.7185C76.9286 59.7185 76.7627 59.6929 76.5966 59.6291C71.6936 57.9696 67.6588 56.5909 63.9177 55.2888C63.5219 55.1484 63.2665 54.9314 63.1771 54.6378C63.0878 54.3442 63.1771 53.9995 63.4453 53.6421L63.4197 53.6293ZM54.1372 42.0509C54.9033 41.2978 55.9248 40.8892 57.0228 40.8892C57.0483 40.8892 57.0611 40.8892 57.0867 40.8892C59.3339 40.9276 61.0704 42.7275 61.0576 44.987C61.0448 47.221 59.219 49.0209 56.9972 49.0209C55.8992 49.0209 54.8777 48.5869 54.0988 47.7955C53.32 47.004 52.8987 45.9827 52.9242 44.8976C52.9369 43.8126 53.3711 42.7913 54.1499 42.0382L54.1372 42.0509Z" fill="#443C36"/>
<path d="M18.8914 29.9871C18.8914 29.9871 19.0071 29.9871 19.0586 29.9871C20.5499 29.9871 21.977 29.4083 23.0955 28.3666C24.2783 27.2347 24.9597 25.717 24.9982 24.0836C25.0368 22.5273 24.4454 21.0225 23.3397 19.8778C22.2084 18.6945 20.6913 18.0257 19.0586 18C19.0199 18 18.9814 18 18.9428 18C15.7544 18 13.106 20.6109 13.0032 23.8778C12.9517 25.4469 13.5302 26.9389 14.6102 28.0836C15.7287 29.2668 17.2458 29.9485 18.8914 30V29.9871ZM16.1529 21.0354C16.9115 20.3022 17.9272 19.9035 19.0071 19.9035C19.0457 19.9035 19.0714 19.9035 19.11 19.9035C21.3727 19.955 23.1212 21.7813 23.0826 24.0579C23.0698 25.164 22.6327 26.1929 21.8484 26.9389C21.0899 27.672 20.0742 28.0836 18.9814 28.0836C18.9557 28.0836 18.9172 28.0836 18.8914 28.0836C16.6287 28.0322 14.8801 26.2058 14.9187 23.9292C14.9316 22.8231 15.3688 21.7942 16.1529 21.0354Z" fill="#443C36"/>
</svg>
