<svg width="97" height="97" viewBox="0 0 97 97" fill="none" xmlns="http://www.w3.org/2000/svg">
<path d="M84.456 72.6266C83.406 71.414 81.9946 70.4007 80.0152 69.4207C75.781 67.3276 71.1853 66.2977 67.2437 65.5834C66.5897 65.4672 65.9528 65.3509 65.2987 65.2512L62.9579 64.8525L64.3004 64.3708C69.4813 62.5269 71.7361 59.9854 71.8394 55.9156C71.9599 51.5136 69.6018 48.7894 64.2316 47.0618L62.9751 46.6631L64.9373 46.1814C65.4536 46.0485 65.9872 45.9322 66.5036 45.8159C67.674 45.5501 68.8789 45.2677 70.0321 44.9189C72.1492 44.2877 73.6811 43.4903 74.8687 42.394C75.781 41.5468 76.2801 40.5335 76.2457 39.5368C76.2285 38.59 75.7466 37.693 74.8687 36.9455C73.9393 36.1647 72.7516 35.4504 71.4091 34.869C67.8634 33.374 64.025 32.8258 60.3933 32.3939C59.5671 32.2943 58.7237 32.2112 57.8631 32.1282L55.8492 31.9288L56.6066 31.1647C56.727 31.0318 56.8303 30.9321 56.9336 30.8325C58.3794 29.3042 58.8786 27.4604 58.4138 25.384C58.1557 24.2212 57.3811 23.2079 56.0385 22.2776C55.4533 21.879 54.8509 21.5301 54.1968 21.1481C53.9042 20.9819 53.6116 20.8158 53.319 20.6497L52.9576 20.4338L53.2157 20.1015C53.2157 20.1015 53.3018 19.9687 53.3879 19.9022C54.8681 18.7394 55.7115 17.0617 55.6943 15.3341C55.6943 13.6065 54.8165 11.9454 53.3018 10.7992C50.0143 8.29092 44.1449 8.42381 40.9778 11.0816C39.5837 12.261 38.9296 13.7062 39.0673 15.3674C39.1189 16.0152 39.2738 16.663 39.4288 17.2777C39.4976 17.5601 39.5665 17.8424 39.6181 18.1082L39.7041 18.5069L39.2911 18.5567C38.6198 18.6397 37.9313 18.7062 37.2428 18.7892C35.6765 18.9554 34.0585 19.1381 32.4578 19.4039C29.3768 19.9022 26.9843 20.766 24.9533 22.0949C23.1976 23.2411 22.1649 24.9022 22.1477 26.663C22.1133 28.4072 23.0771 30.1016 24.7984 31.3142C26.0376 32.1946 27.5007 32.8092 29.5489 33.3242C30.1169 33.4737 30.6849 33.59 31.3046 33.7229L33.0947 34.1215L32.3545 34.6033C30.2202 35.982 29.3252 37.9421 29.6178 40.5501C29.876 42.8093 31.2185 44.3707 33.9725 45.6L35.1429 46.1149L32.3717 46.5136C31.3906 46.6465 30.4612 46.7794 29.5317 46.9289C26.0032 47.5103 21.8723 48.3242 17.9651 49.9189C16.3816 50.5668 14.7464 51.3143 13.5416 52.61C12.8531 53.3409 12.3711 54.1382 12.1474 54.8525C11.6998 56.3475 12.2679 57.693 13.903 59.0718C15.2456 60.2014 16.8807 61.0818 18.7396 61.6798C20.8223 62.3442 22.9394 62.9422 25.0049 63.5236C25.8827 63.7728 26.7778 64.022 27.6384 64.2711L28.9981 64.6532L27.6384 64.9854C27.6384 64.9854 27.4662 65.0353 27.3458 65.0519C24.8672 65.517 21.9928 66.1814 19.3421 67.5934C15.8308 69.4539 14.0579 72.1449 13.903 75.8326C13.7309 79.9356 15.3144 82.9091 18.7569 84.9357C20.3232 85.8493 22.1477 86.5802 24.3336 87.145C29.6006 88.4905 34.9192 88.8061 39.4288 88.9224C48.7406 89.1716 56.4516 88.8227 63.6808 87.8426C67.4503 87.3277 72.4074 86.5137 77.2096 84.7031C79.5505 83.8227 82.2184 82.6267 84.2322 80.5004C86.5214 78.0918 86.5903 75.1682 84.4215 72.6765L84.456 72.6266ZM43.3359 12.6099C46.0038 11.2311 48.6201 11.1813 51.0814 12.4604C52.4928 13.1913 53.1469 14.3707 52.992 15.8325C52.8543 17.1115 52.1486 17.9421 50.9954 18.2078C50.2553 18.3906 49.4979 18.4902 48.7061 18.6065C48.3619 18.6564 48.0004 18.7062 47.639 18.7726H47.5701H47.5013C47.157 18.7062 46.8128 18.6564 46.4513 18.5899C45.6079 18.457 44.7473 18.3075 43.9039 18.075C42.6474 17.7262 41.8901 16.8624 41.7524 15.6331C41.5975 14.271 42.1483 13.2245 43.3359 12.6099ZM30.8743 30.9488C29.8415 30.7162 28.8432 30.3175 27.8621 29.9355C27.5695 29.8192 27.2941 29.7029 27.0015 29.6032C26.6056 29.4537 26.2786 29.1713 26.0204 28.9388C25.2287 28.2411 24.8156 27.4438 24.85 26.663C24.8844 25.8823 25.3491 25.1348 26.1753 24.5202C27.6728 23.4072 29.4801 22.6763 32.0447 22.1946C38.6714 20.9155 44.4203 20.9986 49.6012 22.4105C51.0298 22.7926 52.5445 23.457 54.2313 24.4039C55.6083 25.168 55.9009 26.1813 55.9181 26.8956C55.9181 28.0085 55.2124 29.188 54.128 29.8192C52.6822 30.683 50.9954 31.1813 48.8094 31.3973C47.0366 31.58 45.2293 31.6963 43.4736 31.8125C42.7335 31.8624 41.9762 31.9122 41.236 31.9621H41.2188H40.8574C37.5526 31.8458 34.1446 31.7129 30.8571 30.9654L30.8743 30.9488ZM34.5061 42.9588C33.0086 42.2943 32.2513 41.198 32.234 39.7196C32.234 38.1249 33.0258 36.9455 34.5061 36.3973C36.0896 35.7993 37.7936 35.2179 39.5148 35.0185C48.8955 33.9222 57.9491 34.2876 66.4348 36.1149C67.7945 36.4139 69.1198 36.9122 70.3935 37.394C70.7378 37.5269 71.0648 37.6431 71.4091 37.776C71.9771 37.9754 72.4762 38.3574 72.9065 38.6897C73.1819 38.9222 73.5606 39.271 73.5606 39.7528C73.5606 40.1016 73.3368 40.4338 72.9065 40.7495C72.2869 41.2146 71.5984 41.6132 70.8755 41.9289C68.2765 43.075 65.5569 43.6066 62.9923 44.0219C59.0335 44.6531 54.7993 44.9687 49.2914 45.0186C45.6768 44.9687 41.5803 44.9189 37.5354 44.0219C36.5371 43.7893 35.5216 43.4571 34.5061 42.992V42.9588ZM25.3492 61.0153C22.905 60.4505 20.0478 59.703 17.4315 58.3741C16.7086 57.992 16.0029 57.5435 15.4177 57.0286C14.9185 56.5967 14.6603 56.1482 14.6776 55.6831C14.6776 55.2346 14.953 54.8027 15.4521 54.404C16.3127 53.7229 17.2422 53.1581 18.1716 52.7262C21.6313 51.1482 25.2803 50.3508 28.3957 49.7694C36.9674 48.1913 45.8145 47.693 55.4706 48.2578C59.2056 48.4737 61.994 48.9887 64.4898 49.9023C64.9545 50.0684 65.3159 50.2179 65.643 50.384C68.6895 51.8791 69.6362 53.8392 69.0338 57.3608C68.81 58.7229 67.9322 59.7861 66.2798 60.6997C64.2316 61.8459 61.994 62.3276 59.9113 62.6598C56.0385 63.2745 52.2174 63.3907 49.1709 63.3907C48.8955 63.3907 48.6201 63.3907 48.3447 63.3907C39.4115 63.3077 32.1135 62.5436 25.3664 60.9987L25.3492 61.0153ZM82.2184 78.6566C81.3405 79.5037 80.2734 80.2845 79.1202 80.9157C75.8326 82.7097 72.132 83.6234 68.965 84.2878C61.9768 85.733 54.5411 86.3975 44.8162 86.4141H44.3859C39.6525 86.4141 34.1274 86.2812 28.6883 85.3842C26.1409 84.9689 23.1804 84.3543 20.4092 82.8759C16.8807 81.0154 15.7103 77.8592 16.9496 73.5403C17.3971 71.9788 18.688 70.9987 19.7552 70.3343C22.3026 68.7396 25.1082 68.0751 27.5351 67.6432C34.8675 66.3309 42.1655 66.2977 48.9643 66.4638C57.1746 66.6632 63.8185 67.3941 69.86 68.7396C72.941 69.4207 76.2113 70.2844 79.2407 71.9788C80.3939 72.61 81.4438 73.3908 82.2528 74.2213C83.6986 75.6665 83.6814 77.2446 82.2184 78.6566Z" fill="#443C36"/>
</svg>
