<svg width="69" height="80" viewBox="0 0 69 80" fill="none" xmlns="http://www.w3.org/2000/svg">
<path d="M34.6078 21.0051C28.817 21.0051 24.1069 16.2943 24.1069 10.5026C24.1069 4.71083 28.817 0 34.6078 0C40.3986 0 45.1086 4.71083 45.1086 10.5026C45.1086 16.2943 40.3986 21.0051 34.6078 21.0051ZM34.6078 2.40381C30.1558 2.40381 26.5265 6.03373 26.5265 10.4864C26.5265 14.9391 30.1558 18.569 34.6078 18.569C39.0598 18.569 42.6891 14.9391 42.6891 10.4864C42.6891 6.03373 39.0598 2.40381 34.6078 2.40381Z" fill="#443C36"/>
<path d="M8.62184 79.2619C8.62184 79.2619 8.49282 79.2619 8.44443 79.2619C7.07335 79.2135 5.79904 78.6327 4.84735 77.6325C2.91171 75.5513 3.02463 72.2925 5.10544 70.3565L24.4941 52.2553C24.9135 51.8681 25.1393 51.3196 25.1393 50.755V30.2984H5.54094C2.89556 30.2984 0.734131 28.1365 0.734131 25.4907C0.734131 22.8449 2.89556 20.6831 5.54094 20.6831H63.6585C66.3039 20.6831 68.4654 22.8449 68.4654 25.4907C68.4654 28.1365 66.3039 30.2984 63.6585 30.2984H44.4473V48.3189C44.4473 49.1578 44.9796 49.9322 45.77 50.2226L57.4806 54.6591C59.2227 55.3206 60.3841 57.0145 60.368 58.886L60.1905 73.7767C60.1744 75.148 59.626 76.4386 58.6259 77.4066C57.6419 78.3746 56.3999 78.8747 54.9643 78.8586C53.5932 78.8424 52.3028 78.2778 51.3511 77.2937C50.3994 76.3096 49.8832 75.0028 49.8994 73.6315L50.0445 63.9517C50.0445 63.0483 49.4961 62.2578 48.6251 61.9835L35.253 57.6437C34.5433 57.4179 33.769 57.5953 33.2206 58.0954L12.1382 77.8583C11.1704 78.7618 9.9284 79.2458 8.62184 79.2458V79.2619ZM5.54094 23.1031C4.21825 23.1031 3.15368 24.1678 3.15368 25.4907C3.15368 26.8136 4.21825 27.8784 5.54094 27.8784H25.4297C26.6072 27.8784 27.575 28.8303 27.575 30.008V50.7388C27.575 51.9649 27.0588 53.1588 26.1555 53.9977L6.76686 72.0989C5.67 73.1314 5.60545 74.8576 6.63779 75.9546C7.13783 76.487 7.81534 76.7936 8.54121 76.8258C9.31546 76.8581 9.96066 76.5838 10.493 76.0837L31.5753 56.3208C32.7528 55.2077 34.4626 54.8366 35.995 55.3367L49.3671 59.6765C51.2382 60.2895 52.4803 62.0158 52.448 63.984L52.3028 73.6638C52.3028 74.3897 52.5609 75.0835 53.077 75.5997C53.5771 76.116 54.2707 76.4225 54.9966 76.4225C55.6579 76.4225 56.4161 76.1644 56.9322 75.6481C57.4484 75.1319 57.7548 74.4543 57.7548 73.7283L57.9323 58.8376C57.9323 57.9825 57.4161 57.2081 56.6096 56.9016L44.899 52.465C43.173 51.8036 42.0117 50.1419 42.0117 48.2866V29.9757C42.0117 28.798 42.9633 27.8461 44.1408 27.8461H63.6424C64.9651 27.8461 66.0297 26.7814 66.0297 25.4585C66.0297 24.1356 64.9651 23.0708 63.6424 23.0708H5.52484L5.54094 23.1031Z" fill="#443C36"/>
</svg>
