<svg width="110" height="72" viewBox="0 0 110 72" fill="none" xmlns="http://www.w3.org/2000/svg">
<path d="M0.971486 20.5425H7.88181V26.2733C9.06813 26.626 10.21 26.8758 11.2925 27.2872C16.8089 29.3297 20.7385 33.0621 23.0222 38.4402C23.2446 38.9692 23.5116 39.1455 24.1047 39.1455C29.8287 39.1162 35.5379 39.1309 41.2619 39.1455C41.8254 39.1455 42.0626 38.9986 42.1813 38.4255C42.5075 36.7504 42.9079 35.0752 43.3083 33.3119C36.9911 31.9453 30.7481 30.5788 24.4013 29.1975C24.861 27.0962 25.3059 25.0243 25.7656 22.923C25.2169 22.7908 24.7424 22.7026 24.2827 22.5557C22.9481 22.1589 22.2214 20.9393 22.518 19.558C23.2891 16.002 24.0751 12.446 24.8758 8.90463C25.2317 7.28826 26.3884 6.55354 28.0344 6.84743C28.4051 6.9209 28.7907 6.99437 29.2652 7.09723C29.7398 4.99594 30.1995 2.93874 30.674 0.822754C57.0251 6.55354 83.3169 12.2549 109.683 17.9857C109.253 19.9254 108.852 21.8209 108.437 23.7165C108.111 25.2153 107.755 26.7142 107.444 28.213C107.355 28.6244 107.192 28.8007 106.747 28.8595C104.834 29.1534 102.921 29.4914 101.008 29.7853C100.504 29.8587 100.281 30.0498 100.178 30.5788C99.703 32.9152 99.1691 35.2369 98.6501 37.5586C98.057 40.2623 96.1737 41.4526 93.4303 40.8648C92.9855 40.7619 92.5258 40.6885 91.9623 40.5709C91.725 41.5701 91.5025 42.5546 91.2356 43.6714C79.7876 41.1881 68.3693 38.7194 56.862 36.2214C56.7137 36.8238 56.5654 37.3822 56.4468 37.9406C55.7647 41.0117 55.0825 44.0975 54.4004 47.1687C53.6293 50.6659 50.9304 52.826 47.2973 52.826C39.5566 52.826 31.8158 52.826 24.0751 52.826C23.4967 52.826 23.2298 53.017 23.0074 53.5313C20.2344 59.8645 15.4594 63.8467 8.66774 65.4337C8.07458 65.5659 7.86698 65.7717 7.88181 66.3741C7.92629 68.0346 7.89663 69.6951 7.89663 71.4437H0.956665V20.5425H0.971486ZM107.088 19.6168C82.101 14.1946 57.2327 8.78708 32.3052 3.37957C31.0299 9.16913 29.7694 14.8411 28.509 20.5866C30.2588 20.9687 31.9196 21.3213 33.5805 21.674C47.8163 24.7745 62.0521 27.875 76.288 30.9608C77.2074 31.1665 78.2009 31.4016 79.0907 31.2547C83.7915 30.5494 88.4774 29.7265 93.1634 28.933C97.0338 28.2864 100.919 27.6399 104.789 26.9786C105.071 26.9346 105.486 26.7142 105.531 26.5084C106.079 24.2455 106.569 21.9679 107.088 19.6021V19.6168ZM7.95596 63.3618C16.0823 62.0246 22.4587 54.986 22.2363 45.5523C22.0138 36.0157 15.2222 29.7412 7.95596 28.6538V63.3618ZM91.725 31.4016C91.3839 31.431 91.1467 31.4457 90.9242 31.4751C87.6322 32.0041 84.355 32.5625 81.0629 33.0768C79.8766 33.2531 78.6013 33.6205 77.4743 33.3854C62.7195 30.2555 47.9943 27.0227 33.2691 23.8194C31.5341 23.4373 29.8139 23.0847 28.0344 22.7026C27.6785 24.3484 27.3375 25.9207 26.9667 27.5517C47.8756 32.0923 68.6955 36.6034 89.5748 41.144C90.3014 37.8671 90.9984 34.6785 91.725 31.4016ZM24.0009 50.6512C24.2085 50.6659 24.3568 50.6953 24.5051 50.6953C32.2458 50.6953 39.9866 50.6953 47.7125 50.6953C49.6699 50.6953 51.4198 49.3728 52.0722 47.536C53.1399 44.4943 50.8562 41.3056 47.5345 41.3056C39.868 41.2762 32.2162 41.3056 24.5496 41.3056C24.3865 41.3056 24.2085 41.3497 24.0009 41.3791C24.7275 44.4943 24.7275 47.5654 24.0009 50.6659V50.6512ZM3.19584 22.6732V69.2983H5.65746V22.6879H3.19584V22.6732ZM53.303 42.0991C53.7924 39.8803 54.2373 37.8525 54.697 35.7659C51.5829 35.0899 48.5281 34.4287 45.414 33.738C45.0285 35.5307 44.6429 37.2794 44.2574 39.0133C45.9923 39.1162 47.6384 39.0868 49.2251 39.3366C50.8859 39.6011 52.1612 40.6297 53.303 42.0844V42.0991ZM92.3775 38.4402C93.0596 38.5872 93.6231 38.7341 94.2014 38.837C95.3877 39.028 96.1589 38.5137 96.4258 37.3675C96.5889 36.6916 96.7224 36.0157 96.8707 35.3397C97.2265 33.7086 97.5824 32.0629 97.9532 30.3143C96.663 30.52 95.4916 30.711 94.3349 30.9167C94.1866 30.9461 93.9938 31.1518 93.9642 31.3135C93.4303 33.6499 92.9113 36.001 92.3626 38.4402H92.3775ZM28.7017 9.27199C27.634 8.89973 26.9865 9.22301 26.7591 10.2418C26.7146 10.4181 26.685 10.5945 26.6553 10.7708C25.988 13.7685 25.3504 16.7808 24.6682 19.7784C24.5496 20.278 24.6682 20.5131 25.1724 20.5719C25.4987 20.616 25.8101 20.6895 26.166 20.7483C27.0261 16.8543 27.8713 13.0631 28.7017 9.28668V9.27199Z" fill="#443C36"/>
<path d="M51.4643 45.876C51.4643 48.0067 49.7441 49.7112 47.5642 49.7259C45.4585 49.7406 43.6642 47.9479 43.679 45.8466C43.6939 43.7159 45.4734 41.982 47.5939 41.9967C49.7589 42.0114 51.4643 43.7159 51.4643 45.876ZM49.2844 45.876C49.2844 44.9208 48.5578 44.1567 47.5939 44.1567C46.6745 44.1567 45.8589 44.9502 45.8737 45.876C45.8737 46.7723 46.6597 47.5511 47.5494 47.5658C48.4985 47.5805 49.2844 46.8311 49.2844 45.876Z" fill="#443C36"/>
</svg>
