<svg width="76" height="82" viewBox="0 0 76 82" fill="none" xmlns="http://www.w3.org/2000/svg">
<path d="M75.2821 32.0702C74.8889 31.274 74.0853 30.7488 73.1793 30.698L33.5858 28.7668C33.5858 28.7668 33.5174 28.7668 33.4832 28.7668C32.543 28.7668 31.7224 29.2581 31.295 30.0712L12.5411 65.5274L13.5326 12.6396L50.6985 17.6031V27.3777H53.1603V17.6031C53.1603 16.3834 52.2371 15.35 51.0234 15.1806L13.8574 10.2171C13.1736 10.1155 12.4557 10.3188 11.9257 10.7761C11.3957 11.2335 11.0709 11.8942 11.0709 12.5888L9.99387 69.2034C9.99387 69.9149 10.2845 70.6095 10.8315 71.0838C11.276 71.4734 11.8573 71.6937 12.4727 71.6937C12.5924 71.6937 12.7121 71.6937 12.8146 71.6767L52.1004 66.1711H52.1858V66.0695C52.6132 65.8831 52.9893 65.5951 53.2458 65.2224L55.4853 62.0715L55.3998 68.9663L3.34365 78.9272L5.60029 3.25463L56.0324 12.4194L55.8614 27.6996V27.7843L58.2377 27.8181H58.3232L58.4941 12.4532C58.4941 11.2674 57.6565 10.2341 56.4769 10.0308L6.06185 0.866037C5.34383 0.730514 4.62585 0.916858 4.06169 1.37425C3.49754 1.83164 3.17272 2.49231 3.15563 3.20381L0.898991 78.8764C0.881896 79.6217 1.18963 80.3332 1.77088 80.8076C2.21537 81.1803 2.77951 81.3835 3.36076 81.3835C3.51463 81.3835 3.66848 81.3835 3.83944 81.3327L55.8956 71.3718C57.041 71.1516 57.8787 70.1521 57.8958 69.0001L57.9984 58.7004V58.6157H57.9812L75.0769 34.5773C75.5897 33.8489 75.6752 32.9002 75.2821 32.104V32.0702ZM73.0596 33.1713L54.1689 59.7338L51.2114 63.8503L13.4472 69.0848L33.5345 31.2062L73.0425 33.1374V33.1713H73.0596Z" fill="#443C36"/>
<path d="M55.3827 47.1807H43.1593V49.6201H55.3827V47.1807Z" fill="#443C36"/>
</svg>
