<svg width="85" height="82" viewBox="0 0 85 82" fill="none" xmlns="http://www.w3.org/2000/svg">
<path d="M0.728149 81.3835H63.5959V0.822754H0.728149V81.3835ZM30.8686 78.9382H8.45468V8.47915H30.8686V78.9382ZM55.8863 78.9382H33.4724V8.47915H55.8863V78.9382ZM3.21289 3.23435H61.1621V78.9214H58.4561V6.0001H5.93592V78.9382H3.21289V3.23435Z" fill="#443C36"/>
<path d="M84.117 30.9956H71.2678V50.2546H84.117V30.9956ZM81.6663 47.843H73.7355V33.4578H81.6663V47.843Z" fill="#443C36"/>
<path d="M77.7883 35.3843C76.9885 36.9864 76.2907 38.403 75.5589 39.8365L75.3376 40.2581H80.2391L77.7713 35.3843H77.7883Z" fill="#443C36"/>
<path d="M80.256 41.9673H75.3376C76.0354 43.367 76.6991 44.6824 77.4139 46.0822L77.8053 46.8411C78.6733 45.104 79.4391 43.5863 80.256 41.9673Z" fill="#443C36"/>
</svg>
