<svg width="76" height="77" viewBox="0 0 76 77" fill="none" xmlns="http://www.w3.org/2000/svg">
<path d="M74.3748 24.6789C76.5417 22.4643 76.5417 19.5965 74.3748 17.382C73.841 16.8403 73.3071 16.3304 72.7261 15.7728C72.5377 15.5816 72.3336 15.3904 72.1294 15.1993L72.4592 14.8647C72.9302 14.4026 73.3542 13.9725 73.7625 13.5423C75.6938 11.5827 75.6938 9.24064 73.7939 7.29692C72.1137 5.57625 70.4336 3.87151 68.7378 2.1827C67.8271 1.27457 66.7908 0.780675 65.723 0.780675C64.6553 0.780675 63.6189 1.27457 62.7239 2.19863C62.3157 2.61287 61.9388 3.0749 61.5463 3.55287C61.4049 3.71219 61.2636 3.88744 61.1223 4.06269L60.8083 3.71219C60.5413 3.40948 60.3215 3.17049 60.1174 2.91558C58.4844 0.955928 56.8985 0 55.2654 0C53.6481 0 52.0779 0.939996 50.4449 2.88372C50.0366 3.37761 49.597 3.85558 49.1259 4.3654C48.9689 4.54066 48.7962 4.73184 48.6234 4.9071C48.5449 4.8115 48.4664 4.71591 48.3879 4.62032C48.1524 4.33354 47.9482 4.09456 47.7284 3.87151C45.6872 1.81626 42.955 1.8322 40.9137 3.87151C39.9402 4.8593 38.9667 5.84709 37.9932 6.83489L37.0196 7.82268C34.7899 10.101 34.7742 12.7935 37.0196 15.0559C38.4642 16.5216 39.9088 17.9874 41.3377 19.4372L45.0434 23.1972C45.1847 23.3406 45.326 23.484 45.4359 23.6114L23.2175 46.1554C23.1076 45.9961 22.982 45.8049 22.825 45.6615C20.3126 43.0964 17.4548 40.1808 14.6756 37.3927C12.6814 35.3853 9.90215 35.3693 7.90799 37.3609C6.4791 38.7947 5.06589 40.2286 3.71552 41.6147C1.79986 43.5903 1.79986 46.3466 3.71552 48.3381C3.95105 48.593 4.21801 48.8161 4.48495 49.071C4.56346 49.1347 4.64196 49.2144 4.72047 49.294L3.77834 50.234C3.00894 50.9988 2.27092 51.7157 1.54862 52.4645C-0.508349 54.5835 -0.524051 57.5309 1.54862 59.634C2.09819 60.1916 2.64779 60.7333 3.24447 61.275C3.4486 61.4662 3.6527 61.6733 3.85683 61.8645L3.32296 62.3902C2.8676 62.8363 2.45939 63.2665 2.03543 63.6807C0.323905 65.4492 0.323905 67.839 2.03543 69.6075C3.65274 71.2804 5.36425 73.017 7.2642 74.9129C9.05424 76.7132 11.3782 76.7132 13.1682 74.9129C13.5921 74.4827 14.0161 74.0366 14.4401 73.5746C14.5814 73.4312 14.7227 73.2719 14.864 73.1126L15.3508 73.6065C15.9317 74.196 16.4656 74.7376 16.9995 75.2793C18.1301 76.4264 19.4019 77 20.6738 77C21.9456 77 23.2332 76.4265 24.3794 75.2634C25.0389 74.5943 25.6985 73.9251 26.3736 73.2241L27.3943 72.1726C27.3943 72.1726 27.4728 72.2841 27.5199 72.3319C27.724 72.5868 27.9124 72.8417 28.1165 73.0488C30.2206 75.1837 32.9528 75.1837 35.0569 73.0488C36.3759 71.7105 37.6948 70.3722 39.0138 69.0339C41.1022 66.899 41.1021 64.1587 39.0452 62.0397C37.0667 60.0163 35.0726 57.993 33.0784 55.9855L32.8429 55.7465C32.2619 55.1571 31.6809 54.5835 31.0999 54.0259L30.4561 53.4045L52.7531 30.7809C52.8473 30.9561 52.9572 31.1473 53.1143 31.3066C55.501 33.7443 58.4529 36.7714 61.3264 39.6391C63.2735 41.5988 66.0057 41.5988 67.9684 39.671C69.4758 38.1893 70.9204 36.7076 72.2865 35.2897C74.1079 33.3778 74.1079 30.6056 72.2865 28.6938C72.0195 28.4229 71.7526 28.168 71.4543 27.9131C71.3758 27.8494 71.2972 27.7697 71.203 27.69C71.5171 27.3714 71.8311 27.0687 72.1294 26.766C72.8989 26.0012 73.6211 25.2843 74.3277 24.5674L74.3748 24.6789ZM70.8262 30.2073C71.1402 30.526 71.3443 30.988 71.5799 31.466C71.6741 31.6731 71.784 31.8961 71.8939 32.1192C71.784 32.3263 71.6741 32.5493 71.5642 32.7565C71.3287 33.2344 71.1088 33.6965 70.7948 34.031C69.8526 35.0826 68.832 36.1022 67.8428 37.09C67.4973 37.4405 67.1519 37.7751 66.8065 38.1256C65.3933 39.5436 63.9644 39.5595 62.5669 38.1256C57.2282 32.7087 51.8895 27.2917 46.5508 21.8748L39.8146 15.0399C39.3121 14.5301 38.8096 14.0203 38.3072 13.5104C37.0824 12.2518 37.0667 10.7542 38.2758 9.52742C39.7675 7.982 41.1493 6.5959 42.4683 5.27354C43.0492 4.68405 43.7087 4.39727 44.3525 4.39727C44.9963 4.39727 45.6714 4.69998 46.2524 5.28947C55.0142 14.1477 62.8966 22.1457 70.8105 30.2233L70.8262 30.2073ZM62.6297 5.13015L63.0065 4.76371C63.4305 4.34947 63.8701 3.91931 64.3098 3.48914C65.2048 2.64473 66.2883 2.6288 67.1362 3.48914C69.0047 5.3532 70.8419 7.21726 72.6005 9.04945C73.4013 9.89386 73.417 10.9613 72.6005 11.8694C72.1608 12.3633 71.7212 12.8413 71.2972 13.2874L70.9675 13.6538L62.614 5.16201L62.6297 5.13015ZM72.8203 18.7043C74.3591 20.2816 74.3591 21.8111 72.8203 23.3884C72.0823 24.1372 71.3444 24.9019 70.6221 25.6348L70.0097 26.2562L50.2094 6.16574C50.492 5.86303 50.7746 5.57625 51.0572 5.2576C51.8424 4.4132 52.6589 3.55287 53.5225 2.75626C54.6216 1.75253 56.2076 1.86406 57.3852 3.04304C58.8926 4.55659 60.3843 6.08608 61.876 7.59963L67.9841 13.7972C69.5857 15.4223 71.203 17.0633 72.8046 18.6884L72.8203 18.7043ZM50.9003 29.4426L28.8859 51.7476L25.0232 47.8123L47.0061 25.5073L50.9003 29.4426ZM13.4037 71.9177C13.2624 72.061 13.121 72.2044 12.9797 72.3478C12.5087 72.8417 12.0219 73.3356 11.5038 73.7976C10.7187 74.4827 9.66661 74.4509 8.92862 73.7339C7.04437 71.8699 5.16014 69.958 3.3544 68.0621C2.585 67.2655 2.585 66.1821 3.3544 65.3218C3.77835 64.8279 4.21799 64.3658 4.65765 63.8879L5.08159 63.4258L13.4037 71.9177ZM3.19737 58.4391C1.65857 56.8618 1.65857 55.3323 3.19737 53.755C3.85686 53.0859 4.50064 52.4008 5.16013 51.7316L6.00805 50.8554L25.7926 70.9299C25.4943 71.2485 25.2117 71.5512 24.9133 71.8858C24.1282 72.7461 23.3117 73.6383 22.4324 74.4509C21.3647 75.4227 19.8102 75.2953 18.6482 74.1322C17.1565 72.6346 15.6648 71.1051 14.1731 69.5916L8.63027 63.9675C6.82453 62.1353 5.01882 60.3031 3.21309 58.4709L3.19737 58.4391ZM24.7406 50.473L31.9321 57.7699C33.8164 59.6818 35.7006 61.5777 37.5692 63.4896C38.9667 64.9075 38.9667 66.3573 37.5692 67.7912L37.1766 68.1895C35.999 69.4004 34.8056 70.6112 33.6123 71.8061C32.3561 73.0648 30.9272 73.0648 29.7025 71.8221L28.8388 70.9458C21.0977 63.1072 13.1054 54.9977 5.27005 46.9998C4.94031 46.6652 4.70475 46.2032 4.45352 45.7093C4.3436 45.4862 4.23368 45.2632 4.10807 45.0401C4.23368 44.8171 4.3436 44.594 4.45352 44.371C4.70475 43.8771 4.94031 43.4151 5.27005 43.0486C6.27499 41.9493 7.35841 40.8659 8.39475 39.8303L9.32117 38.9063C10.6244 37.5998 12.069 37.5998 13.3723 38.9222C17.1722 42.7618 20.9564 46.6174 24.7563 50.473H24.7406Z" fill="#443C36"/>
</svg>
