<svg width="59" height="80" viewBox="0 0 59 80" fill="none" xmlns="http://www.w3.org/2000/svg">
<path d="M57.6762 29.6C54.6602 29.6 51.6612 29.6 48.6452 29.6H42.9013L43.1386 28.3001C43.1724 28.03 43.2063 27.9118 43.2402 27.7936C44.4602 24.4848 44.5618 21.0409 43.5283 17.2593C42.4269 13.1739 40.5292 10.0676 37.7505 7.78852C37.0897 7.23142 36.683 7.31583 36.3442 7.46777C35.9375 7.65347 35.5647 7.95734 35.5478 8.8352C35.5139 10.4728 35.175 11.9584 34.5142 13.3764L33.4807 15.6049L32.3963 13.1232C32.3285 12.9544 32.2607 12.8193 32.2099 12.6843C31.0408 9.51048 29.482 6.64055 27.5673 4.12514C26.6524 2.92652 25.6188 1.81231 24.3311 0.529286C23.8736 0.0565915 23.2467 0.326703 22.9925 0.461758C22.5181 0.714987 22.2301 1.25521 22.2979 1.71102C22.6028 3.58492 22.4165 5.52634 21.7218 7.82229C20.6713 11.3169 18.9091 14.4738 17.0623 17.6813C15.7068 20.0279 14.9104 22.4927 14.6732 25.0081C14.6054 25.7509 14.6224 26.5106 14.6393 27.3209C14.6393 27.7092 14.6563 28.1144 14.6563 28.5196V29.6169H9.57317C6.79441 29.6169 3.9987 29.6169 1.21994 29.6169C0.491366 29.6 0 30.0727 0 30.7986C0 31.5245 0.491366 31.9804 1.30466 31.9972C1.81297 31.9972 2.33823 31.9972 2.86348 31.9972H4.5409L4.65951 32.9595C5.7439 41.8563 10.1154 48.339 18.0281 52.7789L18.8413 53.2347L9.79344 77.359C9.624 77.8148 9.624 78.2369 9.77649 78.5745C9.91204 78.8446 10.1323 79.0472 10.4542 79.1654C11.1998 79.4355 11.8436 79.0979 12.1825 78.2369L12.4705 77.4772C12.8094 76.6162 13.1313 75.7721 13.4194 74.8943C13.7413 73.8645 14.4529 73.358 15.5712 73.358C22.6876 73.3749 29.8039 73.3749 36.9202 73.358C37.6827 73.358 38.5977 73.5268 39.1229 74.8267C40.3937 78.0005 43.7994 79.8069 47.2389 79.1148C50.5599 78.4564 52.9828 75.502 52.9828 72.0919C52.9828 68.1921 49.9499 65.0352 46.0529 64.917C44.9515 64.8833 44.2738 64.3768 43.901 63.3301C43.5283 62.2497 43.1216 61.1861 42.715 60.1226L40.1565 53.336L40.9698 52.8802C48.8147 48.4234 53.1861 41.9407 54.3383 33.0777L54.4569 32.1154H56.1513C56.6596 32.1154 57.1849 32.1154 57.6932 32.1154C58.2523 32.1154 58.5912 31.9128 58.8284 31.4908C59.0487 31.0856 59.0656 30.6467 58.8284 30.2584C58.5912 29.8532 58.1676 29.6169 57.6593 29.6169L57.6762 29.6ZM17.8247 22.6278C18.2822 21.2434 18.8244 19.9604 19.4683 18.7956L19.7902 18.2047C21.5354 15.014 23.1959 12.009 24.2125 8.66638L25.3138 4.95236L26.6015 7.09636C28.5162 10.2871 30.4478 13.7479 31.0069 17.8502C31.0747 18.3229 31.3119 18.6943 31.6508 18.88C32.0066 19.0657 32.4471 19.0657 32.9046 18.8462C34.599 18.0527 35.8189 16.6853 36.7677 14.5582L38.0555 11.4519L39.1907 13.2752C40.1226 14.7776 40.7834 16.3814 41.207 18.2047C42.1558 22.1719 41.8339 25.5483 40.2242 28.5196C39.8007 29.2961 39.1907 29.6675 38.3266 29.6675C33.6671 29.6675 29.0075 29.6675 24.365 29.6675H19.1972C19.0277 29.6675 18.8583 29.6675 18.6719 29.6338L17.6214 29.5662L17.452 28.739C17.0453 26.7301 17.1639 24.6705 17.8417 22.6278H17.8247ZM45.7818 67.3987C48.3572 67.3987 50.4582 69.4752 50.4752 72.0412C50.4752 74.6242 48.408 76.7344 45.8326 76.7513H45.7987C44.5449 76.7513 43.3758 76.2617 42.4947 75.3838C41.5967 74.4891 41.1053 73.3074 41.1053 72.0412C41.1053 69.4752 43.2233 67.3818 45.7987 67.3818L45.7818 67.3987ZM41.6983 64.3937C41.8339 64.7313 42.2236 65.778 41.1053 66.6559C40.1395 67.4156 39.4448 68.4791 38.9196 70.0154L38.6654 70.7582H14.8765L21.0949 54.2476L22.0776 54.5515C27.0251 56.0709 31.8541 56.054 36.8694 54.5515L37.8521 54.2476L39.4957 58.6538C40.2073 60.5615 40.9359 62.486 41.6645 64.3937H41.6983ZM51.6612 33.314C51.1529 42.1939 43.1386 52.2893 31.0916 53.0997C30.5325 53.1334 29.9733 53.1503 29.4311 53.1503C16.7403 53.1503 8.11601 43.1393 7.28577 33.3309L7.18411 32.1492H51.729L51.6612 33.314Z" fill="#443C36"/>
</svg>
