<svg width="77" height="81" viewBox="0 0 77 81" fill="none" xmlns="http://www.w3.org/2000/svg">
<path d="M75.5332 36.3535C73.4624 36.3535 71.3743 36.3535 69.3035 36.3535C68.8203 36.3535 68.5959 36.2678 68.5269 35.7025C68.0264 30.889 64.4543 27.0005 59.7086 26.0241C59.4843 25.9727 59.26 25.9042 58.9321 25.8014C59.0529 25.0135 59.1392 24.2597 59.3117 23.5232C59.5706 22.3926 59.6051 22.4268 60.7613 22.5296C64.5233 22.8551 69.1999 21.8102 71.1499 16.5684C72.1681 13.8105 73.7039 11.3095 75.8438 9.20255C76.4995 8.55161 76.2062 7.67799 75.2743 7.50669C74.2389 7.31826 73.169 7.14696 72.1163 7.07844C69.0273 6.85575 65.9384 6.87288 62.9875 7.9692C60.3299 8.9456 58.3971 10.6586 57.6551 13.4679C57.0684 15.7462 57.379 17.9902 57.9657 20.2171C58.052 20.5254 58.121 20.868 58.0347 21.1592C57.8449 21.8273 57.5688 22.4611 57.3445 23.0949C56.6197 22.3069 55.8604 21.5361 55.1528 20.7139C54.9458 20.474 54.7905 20.08 54.7905 19.7546C54.7905 18.624 54.9803 17.4763 54.9458 16.3457C54.8077 12.4915 52.7196 9.83636 48.9922 8.84282C44.9713 7.78077 41.0368 8.41457 37.1367 9.51089C36.2566 9.76784 36.1531 10.6415 36.8951 11.2924C39.173 13.2623 40.916 15.6091 42.262 18.2814C43.4009 20.5083 45.2819 21.8787 47.7497 22.4268C49.5444 22.8208 51.3218 22.6324 53.0993 22.2213C53.3754 22.1528 53.7896 22.1699 53.9794 22.3412C55.0493 23.2662 55.8086 24.3968 56.2055 25.7501C50.3209 26.8806 47.0076 30.3923 46.1965 36.285H31.3902C30.5964 30.5807 27.3693 27.1376 21.6401 25.9042C21.8644 24.8764 22.0715 23.9 22.2786 22.9236C22.3649 22.4611 22.6065 22.3069 23.1069 22.2555C24.5737 22.1014 26.0578 21.9815 27.4556 21.5875C31.9769 20.337 34.8243 17.5448 35.6354 12.7827C36.2566 9.18542 37.4818 5.77657 39.4319 2.64179C39.6562 2.28206 39.7943 1.64825 39.6217 1.33992C39.4319 1.03158 38.7934 0.791758 38.3965 0.826018C35.6871 1.1001 32.9606 1.32279 30.2857 1.83668C27.4039 2.40197 24.6945 3.49829 22.3994 5.41684C20.0352 7.36965 18.81 9.87062 18.879 12.954C18.9307 15.4207 19.7246 17.6819 20.7772 19.8745C20.9153 20.1486 21.0533 20.5083 20.9671 20.7652C20.7427 21.519 20.3976 22.2555 20.156 22.8894C19.2241 21.8273 18.2577 20.7824 17.3431 19.6689C17.1188 19.3949 16.9807 18.9837 16.9635 18.6411C16.9635 17.5106 17.1533 16.3629 17.0498 15.2323C16.8254 12.2688 15.3241 10.1104 12.4594 9.09977C8.54213 7.71225 4.65935 8.36318 0.811071 9.4595C0 9.68219 -0.0690273 10.6072 0.638503 11.2068C2.69207 12.9711 4.24518 15.0952 5.47042 17.4934C6.47131 19.4634 8.14523 20.6796 10.2851 21.2278C11.9417 21.6389 13.5984 21.4504 15.2378 21.1078C15.4621 21.0565 15.7727 21.0051 15.9108 21.125C17.4294 22.3926 18.4648 23.9514 18.948 25.8871C13.0807 27.0177 9.80188 30.5122 8.93904 36.3192H8.02443C5.86732 36.3192 3.71022 36.3192 1.55312 36.3192C0.241596 36.3192 0 36.559 0 37.8266C0 39.5568 0 41.304 0 43.0341C0 44.4217 0.189825 44.6272 1.62214 44.6272C3.0372 44.6272 4.45226 44.6272 5.90184 44.6272C6.10892 47.9676 6.29875 51.188 6.48857 54.4769C5.64299 54.4769 4.90094 54.4769 4.17615 54.4769C3.24429 54.4769 2.93366 54.7853 2.93366 55.676C2.93366 57.6288 2.93366 59.5817 2.93366 61.5345C2.93366 62.4423 3.26154 62.7507 4.17615 62.7678C5.12528 62.7678 6.07441 62.7678 7.05805 62.7678C7.28238 66.0396 7.48947 69.2258 7.71381 72.5319C6.97176 72.5319 6.35052 72.5319 5.72927 72.5319C4.7974 72.5319 4.46952 72.8573 4.45226 73.8166C4.45226 75.5981 4.45226 77.3968 4.45226 79.1783C4.45226 80.6001 4.6766 80.8228 6.09166 80.8228C27.6972 80.8228 49.2855 80.8228 70.8911 80.8228C71.0464 80.8228 71.219 80.8228 71.3743 80.8228C72.1163 80.8228 72.496 80.4459 72.5132 79.7264C72.5132 77.688 72.5305 75.6666 72.5132 73.6282C72.5132 72.8402 72.1336 72.549 71.3052 72.5319C70.6495 72.5319 70.011 72.5319 69.2689 72.5319C69.4933 69.2258 69.7004 66.0225 69.9247 62.7678C70.9429 62.7678 71.8575 62.7678 72.7893 62.7678C73.7385 62.7678 74.0663 62.4423 74.0663 61.5002C74.0663 59.5817 74.0663 57.646 74.0663 55.7274C74.0663 54.7853 73.7385 54.4941 72.7721 54.4769C72.0128 54.4769 71.2707 54.4769 70.4769 54.4769C70.7013 51.1537 70.9256 47.9504 71.1499 44.6272C72.703 44.6272 74.1699 44.6272 75.6367 44.6272C76.6894 44.6272 77 44.3018 77 43.2568C77 41.4411 77 39.6253 77 37.8095C77 36.6104 76.7239 36.3363 75.4987 36.3363L75.5332 36.3535ZM59.4498 14.6156C59.7432 12.3202 61.1755 10.8128 63.2808 9.93914C66.1454 8.75717 69.1309 8.79143 72.1508 9.03125C72.4614 9.04838 72.7721 9.1169 73.1862 9.18542C72.9792 9.47663 72.8238 9.68219 72.6858 9.90488C71.5296 11.9433 70.1145 13.8961 69.2689 16.0716C67.8021 19.7546 64.2127 21.0051 60.675 20.4569C61.1755 19.7546 61.5379 19.0009 62.1246 18.4698C63.3153 17.3735 64.5751 16.3286 65.8693 15.3522C66.6459 14.7698 66.9393 14.3929 66.6286 13.8105C66.3008 13.211 65.7313 13.1596 64.8512 13.6563C63.0392 14.7013 61.4861 16.0374 60.1918 17.6819C60.0365 17.8874 59.864 18.093 59.6914 18.2985C59.6051 18.2814 59.5188 18.2643 59.4498 18.23C59.4498 17.0138 59.329 15.7976 59.4843 14.5985L59.4498 14.6156ZM52.9267 17.9045C52.7024 17.6647 52.4953 17.4592 52.3055 17.2536C50.9077 15.6605 49.2165 14.4443 47.2837 13.5364C46.6625 13.2452 46.1103 13.2281 45.7479 13.9133C45.4545 14.4614 45.6961 14.9582 46.4381 15.3179C49.0612 16.6027 51.0457 18.3842 52.0121 20.337C48.6815 21.3819 45.3855 20.0629 43.8151 17.1337C43.2284 16.0374 42.5726 14.9582 41.8651 13.9475C41.1576 12.9197 40.3292 11.9776 39.4836 10.9327C39.846 10.847 40.1912 10.7442 40.5536 10.6757C43.0903 10.2303 45.6443 9.99053 48.1983 10.6072C51.667 11.4466 53.5307 14.3073 52.9267 17.9217V17.9045ZM15.0825 16.8425C13.5639 14.7355 11.7864 13.1424 9.5948 11.9947C9.35321 11.8748 9.11161 11.7378 8.87001 11.635C8.33505 11.4294 7.88637 11.6007 7.62752 12.0975C7.36867 12.6114 7.52398 13.0568 8.00717 13.3651C8.197 13.485 8.38682 13.5707 8.57665 13.6735C10.6992 14.8212 12.4249 16.3971 13.7537 18.4184C13.909 18.6583 14.0471 18.9152 14.2024 19.1722C11.959 20.0972 8.8355 19.1036 7.52398 17.0652C6.1952 14.9925 4.86643 12.9369 3.48588 10.7956C3.98633 10.71 4.62483 10.5901 5.28059 10.5044C7.3169 10.2303 9.37046 10.1447 11.3723 10.7614C14.0816 11.5836 15.5657 13.9304 15.0825 16.8596V16.8425ZM57.3445 27.7543C62.5733 27.8913 66.9047 32.0539 66.5424 36.3363H48.3019C48.4399 31.934 52.2192 27.6172 57.3445 27.7543ZM25.0052 6.01638C27.8525 4.26913 31.045 3.56681 34.3066 3.12143C35.1349 3.00152 35.9805 2.95013 36.9124 2.84735C36.8606 3.05291 36.8433 3.17282 36.7916 3.2756C35.2557 6.29046 34.1685 9.4595 33.5991 12.7827C32.9433 16.6712 30.4238 18.8124 26.7654 19.8231C25.8335 20.08 24.8671 20.2 23.7972 20.4055C24.7981 15.9689 26.541 12.1318 29.7853 9.08264C29.9751 8.89421 30.303 8.72291 30.3375 8.50022C30.4065 8.12336 30.4411 7.57521 30.234 7.35252C30.0269 7.12983 29.4747 7.12983 29.0778 7.16409C28.8534 7.18122 28.6636 7.48956 28.4565 7.66086C25.4366 10.5901 23.4003 14.0846 22.3131 18.1272C22.2441 18.1444 22.1578 18.1615 22.0888 18.1786C21.7436 17.0138 21.2949 15.8661 21.0879 14.6841C20.3803 10.847 21.6746 8.05485 25.0224 5.99925L25.0052 6.01638ZM20.1905 27.8399C24.9189 27.8056 28.9742 31.5228 29.3366 36.285H11.0789C11.3377 31.6256 15.4104 27.8742 20.1905 27.8399ZM70.5287 74.5361V78.8528H6.52308V74.5361H70.5459H70.5287ZM9.05984 62.8363H68.0437C67.8194 66.091 67.6123 69.2772 67.3879 72.4805H9.73286C9.50852 69.2601 9.30143 66.0739 9.0771 62.8363H9.05984ZM72.0991 56.5154V60.7979H4.98723V56.5154H72.1163H72.0991ZM7.86912 44.7985H69.1999C68.9928 48.0018 68.7685 51.2051 68.5614 54.4769H8.50762C8.30054 51.2565 8.0762 48.0532 7.86912 44.7985ZM75.0155 42.7258H2.01905V38.4433H75.0155V42.7258Z" fill="#443C36"/>
</svg>
