<svg width="90" height="81" viewBox="0 0 90 81" fill="none" xmlns="http://www.w3.org/2000/svg">
<path d="M68.1424 39.0005V0.261719H22.2368V38.9841H0.525879V80.1728H89.8699V38.9841H68.1589L68.1424 39.0005ZM24.704 2.74455H65.6753V39.0005H24.704V2.72811V2.74455ZM43.9479 77.7229H2.97657V41.4669H43.9479V77.7229ZM87.3863 77.7229H46.415V41.4669H87.3863V77.7229Z" fill="#443C36"/>
<path d="M13.5196 70.11H31.4476V52.1875H13.5196V70.11ZM15.9868 54.6539H28.9804V67.6436H15.9868V54.6539Z" fill="#443C36"/>
<path d="M69.4912 73.8262L82.1724 61.1489L69.4912 48.4717L56.81 61.1489L69.4912 73.8262ZM78.6855 61.1489L69.4912 70.3404L60.2969 61.1489L69.4912 51.9575L78.6855 61.1489Z" fill="#443C36"/>
<path d="M45.1814 11.7061L35.3128 28.7899H55.0501L45.1814 11.7061ZM45.1814 16.6388L50.7737 26.3235H39.5728L45.165 16.6388H45.1814Z" fill="#443C36"/>
</svg>
