<svg width="107" height="73" viewBox="0 0 107 73" fill="none" xmlns="http://www.w3.org/2000/svg">
<path d="M47.6075 65.4101C46.7002 59.7539 45.7627 53.9162 44.8705 48.1693C44.1749 43.7381 43.5248 43.1029 39.0338 42.5736C38.6709 42.5282 38.2021 42.1955 38.0812 41.8779C37.4763 40.3655 36.3725 39.5186 34.815 39.3371C34.0438 39.2464 33.2575 39.2161 32.4259 39.1859C32.0327 39.1708 31.6396 39.1556 31.2313 39.1254H31.0196L31.4581 38.7927C31.5186 38.7473 31.564 38.7019 31.6245 38.6717C33.1366 37.5525 33.6507 35.9495 32.9854 34.3917C32.3049 32.8038 30.8079 32.0476 28.9934 32.3652C28.1164 32.5164 27.2545 32.713 26.3472 32.8945C25.9238 32.9852 25.4853 33.076 25.0468 33.1667H24.9712L24.9561 33.1062C24.0034 28.9321 23.0811 24.8639 22.1587 20.7957C21.6748 18.6632 20.1022 17.5441 17.9701 17.8315C16.3824 18.0432 14.9459 18.27 13.585 18.5574C12.8743 18.7086 12.1636 18.9052 11.4076 19.1321C11.0598 19.2379 10.6969 19.3287 10.334 19.4345H10.2886L10.2584 19.4194C8.41359 17.5592 5.97911 16.6064 3.01538 16.6064C2.87929 16.6064 2.75832 16.6064 2.62223 16.6064C0.686729 16.6669 0.596008 16.7577 0.596008 18.6632V63.9734C0.596008 65.4152 1.29157 66.2117 2.68271 66.3629C2.68271 66.3629 2.78856 66.4083 2.84905 66.4536C2.87929 66.4839 2.90954 66.5141 2.9549 66.5444L2.98513 66.5746V66.6049C2.98513 66.9981 2.98513 67.3913 2.98513 67.7996C2.98513 68.7373 2.98513 69.7203 2.98513 70.6882C2.98513 71.4293 3.09097 72.125 4.0436 72.2157C4.3309 72.246 4.58798 72.1703 4.76943 72.004C5.04161 71.7469 5.19281 71.2932 5.20793 70.6882C5.20793 69.7203 5.20793 68.7524 5.20793 67.7694V66.3629H32.7132V66.4385C32.7132 66.862 32.7132 67.2703 32.7132 67.6938C32.7132 68.6919 32.7132 69.6447 32.7132 70.6126C32.6981 71.52 32.8795 72.1401 33.8019 72.2157C34.0892 72.246 34.3311 72.1703 34.4975 72.004C34.7848 71.7469 34.9209 71.2629 34.9209 70.5521C34.9209 69.6447 34.9209 68.7222 34.9209 67.8148V66.3931H34.9813C36.5136 66.2318 37.2798 65.4202 37.2798 63.9582V51.3603L37.4007 51.4965C37.6427 51.7536 37.7485 51.9955 37.8392 52.3131L39.2757 57.7273C40.3493 61.7653 41.4229 65.7882 42.4965 69.8262C42.9653 71.5956 44.3413 72.5182 45.9441 72.1703C47.5923 71.8225 48.4693 70.4009 48.1669 68.5558L47.6528 65.3799L47.6075 65.4101ZM11.8914 21.5216C12.1939 21.0981 12.829 20.9167 13.8118 20.7805C14.8098 20.6293 15.8078 20.4781 16.7907 20.3117C17.2594 20.2361 17.7433 20.1605 18.2121 20.0849C19.1193 19.9336 19.7091 20.2512 19.8905 21.0074C20.6012 24.0472 21.2816 27.0417 21.9923 30.2025C22.2494 31.3368 22.5064 32.471 22.7635 33.6204V33.696L18.3633 34.6337V34.5581L18.1667 33.3482C17.8643 31.3821 17.577 29.4766 17.2745 27.571C17.2443 27.4047 17.2141 27.2232 17.199 27.0568C17.1082 26.4367 17.0024 25.8016 16.8663 25.1815C16.7 24.4858 16.2312 24.1682 15.5356 24.3043C14.9157 24.4404 14.6133 24.8941 14.7191 25.5747C15.2181 28.9321 15.7625 32.3349 16.2766 35.6319L16.4883 36.993C16.4883 36.993 16.5185 37.0988 16.5639 37.1745C16.579 37.2047 16.6092 37.2501 16.6244 37.2954C19.6486 36.6451 22.6879 35.9948 25.7424 35.3445C26.1204 35.2689 26.4984 35.1782 26.8613 35.1025C27.6476 34.9362 28.4642 34.7547 29.2656 34.5883C29.8099 34.4825 30.2333 34.5278 30.5206 34.7244C30.7626 34.8908 30.9289 35.1479 31.0045 35.5109C31.1708 36.3275 30.7626 36.8569 29.7797 37.0535C28.8271 37.2501 27.8744 37.4769 26.9369 37.6887C24.6839 38.2029 22.3401 38.7171 20.0266 39.1103C19.452 39.201 18.8774 39.2313 18.2877 39.2313C17.8038 39.2313 17.3199 39.2161 16.8058 39.1859C16.2917 39.1708 15.7776 39.1405 15.2332 39.1405H15.1727V39.08L14.7796 37.3257C14.4469 35.768 14.0991 34.1951 13.7665 32.6223C13.6153 31.8812 13.4489 31.1402 13.2977 30.3991C12.8138 28.1306 12.3148 25.8016 11.8461 23.5028C11.6646 22.5954 11.6042 21.9451 11.9066 21.5065L11.8914 21.5216ZM36.0247 45.0992V45.1597H32.1688C28.1769 45.1597 24.1849 45.1597 20.1929 45.1597C20.1173 45.1597 20.0266 45.1597 19.9359 45.1597C19.6637 45.1597 19.3613 45.1294 19.2101 45.2504C18.8774 45.5378 18.4842 46.0066 18.4842 46.3998C18.4842 46.6872 18.9227 47.0804 19.331 47.3224C19.5125 47.4282 19.7846 47.4131 20.0417 47.398C20.1476 47.398 20.2383 47.398 20.329 47.398C24.0488 47.398 27.7535 47.398 31.4733 47.398H34.9662V64.0339H2.84905V18.875H2.92466C3.04562 18.875 3.15147 18.875 3.27243 18.875C5.19281 18.875 6.73515 19.4043 7.9902 20.4781C8.62529 21.0225 9.13941 21.8997 9.32087 22.7164C10.2886 26.9963 11.211 31.3519 12.1031 35.5562C12.3904 36.9325 12.6929 38.3238 12.9802 39.7001C13.3279 41.3637 13.4338 41.4393 15.1727 41.4393H21.6143C25.4853 41.4393 29.3412 41.4393 33.2122 41.4393C34.5126 41.4393 35.2989 41.6661 35.7374 42.1955C36.191 42.755 36.2818 43.6473 36.0247 45.0841V45.0992ZM45.672 69.5691C45.6266 69.6901 45.5661 69.8111 45.5358 69.932L45.4905 70.0682L45.3998 69.9623C45.309 69.8564 45.2032 69.7657 45.0973 69.6749C44.8705 69.4632 44.6286 69.2364 44.553 68.9641C42.6175 61.8561 40.9693 55.6252 39.5026 49.9539C39.2757 49.1069 39.0338 48.5171 38.0207 48.7288C37.8846 48.7591 37.7485 48.7288 37.5217 48.7288C37.3856 48.7137 37.2344 48.6986 37.0227 48.6835H36.9017L36.9622 48.5625C37.0832 48.381 37.189 48.2146 37.2949 48.0634C37.4914 47.7761 37.6578 47.5341 37.7636 47.2921C37.9904 46.793 38.187 46.294 38.4289 45.7041C38.5348 45.4319 38.6558 45.1446 38.7767 44.8421V44.7816H38.8523C39.0187 44.8118 39.2001 44.827 39.4118 44.8421C39.9562 44.9026 40.6215 44.9631 41.2112 45.2353C41.7253 45.4622 42.2697 46.1881 42.3755 46.793C43.6457 54.4758 44.8403 62.2039 45.8534 68.7524C45.8988 69.0246 45.7778 69.2969 45.672 69.5842V69.5691Z" fill="#443C36"/>
<path d="M56.7254 39.4575C58.5097 38.6409 60.2486 38.898 61.8514 40.2137C64.0591 42.0134 66.0702 43.6316 68.1569 45.2347C68.8979 45.8094 69.669 46.2329 70.41 46.49C72.7537 47.3066 75.1277 48.1233 77.4413 48.9097C79.6036 49.6508 81.8415 50.407 84.0341 51.1783C85.2891 51.6169 86.65 51.9042 88.026 51.0573C88.2982 50.8909 88.6762 50.906 89.0089 50.906C89.0694 50.906 89.1299 50.906 89.1903 50.906C93.5301 50.906 97.8698 50.906 102.21 50.906H106.111V48.6526H89.5835L90.2186 47.0647C91.0351 45.023 91.8063 43.0872 92.6077 41.1514C92.6984 40.9245 93.1974 40.7884 93.4545 40.8338C94.5281 40.985 95.6017 41.1665 96.645 41.3328C97.4313 41.4538 98.2176 41.5899 99.0039 41.7109C100.652 41.9529 102.27 42.1949 103.979 42.4369C104.674 42.5427 105.385 42.6335 106.096 42.7393V40.5313L93.6359 38.6106L93.6662 38.5199C93.7569 38.293 93.8325 38.0964 93.893 37.93C93.9988 37.6729 94.0745 37.4612 94.1501 37.2344C94.8759 35.2683 94.0745 33.3174 92.2599 32.5914C90.4454 31.8655 88.5099 32.7427 87.6782 34.6634C87.4514 35.1776 87.2397 35.7069 87.028 36.2513C86.9222 36.5236 86.8012 36.8109 86.6802 37.1134L86.65 37.1739H86.5895C85.6823 36.8563 84.775 36.5689 83.8828 36.2816C82.0381 35.6918 80.1328 35.0868 78.2729 34.4819C75.3092 33.514 72.9654 34.3004 71.1358 36.8563C70.3192 38.0057 69.4573 39.1551 68.6106 40.2742C68.2325 40.7884 67.8545 41.2875 67.4765 41.8017L67.4311 41.8622L67.3706 41.8168C66.176 40.8489 65.0873 39.9566 63.9684 39.0643L63.8776 38.9887L63.9835 38.9282C66.7658 37.431 68.5501 35.5405 69.1549 33.4837C69.6237 31.8806 69.3817 30.2019 68.4291 28.5081C67.5067 26.8445 65.9795 25.6649 64.1498 25.1507C63.5299 24.9843 62.8948 24.8936 62.2597 24.8936C61.05 24.8936 59.8706 25.2111 58.797 25.8161C57.0732 26.7991 55.9693 28.1602 55.5459 29.8238C55.0167 31.8806 55.5459 34.3004 57.0429 36.8412L57.0883 36.9168L56.8615 36.9924C56.7405 37.0378 56.6347 37.068 56.5288 37.1134C53.3987 38.2779 51.6749 40.6825 51.6598 43.8887C51.6296 50.1499 51.6296 56.5169 51.6447 62.6873C51.6447 65.3793 51.6447 68.0561 51.6447 70.7481C51.6447 71.7463 51.9774 72.2 52.7334 72.2756C53.0207 72.3059 53.2627 72.2302 53.4441 72.0639C53.7314 71.8068 53.8826 71.3531 53.8826 70.733C53.8826 69.2358 53.8826 67.7234 53.8826 66.2564C53.8826 65.6666 53.8826 65.0617 53.8826 64.4719V61.5681H106.111V59.345H53.9582V59.2694C53.9582 59.1635 53.928 59.0728 53.928 58.9971C53.9129 58.8308 53.8977 58.6947 53.8977 58.5586V55.9724C53.8977 52.0252 53.8977 47.9267 53.8977 43.9038C53.8977 41.8168 54.8806 40.2742 56.7254 39.4424V39.4575ZM69.8958 42.2251C70.8938 40.8791 72.0733 39.2912 73.2678 37.7334C74.2961 36.4026 75.6872 35.9791 77.3052 36.4933C79.2256 37.1134 81.1459 37.7334 83.1117 38.3838L85.8335 39.276L85.8032 39.3517L84.0038 43.7829L83.9433 43.7526L77.653 41.6202C77.4866 41.5597 77.3203 41.5143 77.1691 41.4538C76.791 41.3177 76.4735 41.3026 76.2165 41.4387C75.9594 41.5597 75.7779 41.7865 75.657 42.1344C75.4453 42.7545 75.7326 43.2687 76.4433 43.5258C77.8495 44.04 79.286 44.5239 80.6772 45.0079L81.2366 45.2045C82.1893 45.5372 83.1419 45.8548 84.1399 46.1875L85.2891 46.5807C85.3496 46.4446 85.4101 46.3085 85.4705 46.1875C85.5915 45.9153 85.7125 45.6582 85.8183 45.386C87.0129 42.4217 88.3436 39.0492 89.6591 35.7523C89.9162 35.1171 90.2942 34.497 91.2015 34.6029C91.5946 34.6482 91.8819 34.8297 92.0633 35.1171C92.2902 35.4952 92.275 36.0699 92.018 36.705C90.9595 39.3668 89.8859 42.0285 88.8123 44.6903L87.9958 46.7319C87.905 46.9437 87.8294 47.1554 87.7387 47.352C87.5875 47.7301 87.4212 48.1082 87.2851 48.4863C87.0431 49.1215 86.6349 49.4391 86.0754 49.4391C85.8939 49.4391 85.6974 49.4088 85.5008 49.3332C79.6943 47.3671 74.916 45.7338 70.4856 44.1912C70.0168 44.0248 69.7144 43.7677 69.6085 43.4199C69.5027 43.0721 69.6085 42.6637 69.9261 42.2403L69.8958 42.2251ZM58.9028 28.5081C59.8101 27.6158 61.0198 27.1318 62.3202 27.1318C62.3504 27.1318 62.3655 27.1318 62.3958 27.1318C65.0571 27.1772 67.1136 29.3096 67.0984 31.9865C67.0833 34.6331 64.921 36.7655 62.2899 36.7655C60.9895 36.7655 59.7798 36.2513 58.8574 35.3137C57.9351 34.376 57.4361 33.1661 57.4663 31.8806C57.4814 30.5951 57.9956 29.3852 58.9179 28.493L58.9028 28.5081Z" fill="#443C36"/>
<path d="M16.9873 14.0951C16.9873 14.0951 17.1234 14.0951 17.1839 14.0951C18.9379 14.0951 20.6164 13.4146 21.9319 12.1896C23.3231 10.8587 24.1245 9.07413 24.1698 7.15344C24.2152 5.32349 23.5196 3.55403 22.2192 2.20804C20.8886 0.816671 19.1043 0.0302471 17.1839 0C17.1385 0 17.0932 0 17.0478 0C13.2978 0 10.1828 3.07008 10.0619 6.91146C10.0014 8.75653 10.6818 10.5109 11.952 11.8569C13.2675 13.2482 15.0518 14.0498 16.9873 14.1103V14.0951ZM13.7665 3.56916C14.6587 2.70711 15.8533 2.23828 17.1234 2.23828C17.1688 2.23828 17.199 2.23828 17.2444 2.23828C19.9057 2.29878 21.9622 4.44632 21.9168 7.12319C21.9017 8.42381 21.3876 9.6337 20.4652 10.5109C19.573 11.3729 18.3785 11.8569 17.0932 11.8569C17.0629 11.8569 17.0176 11.8569 16.9873 11.8569C14.326 11.7964 12.2695 9.64882 12.3149 6.97195C12.33 5.67133 12.8442 4.46145 13.7665 3.56916Z" fill="#443C36"/>
</svg>
