<svg width="74" height="81" viewBox="0 0 74 81" fill="none" xmlns="http://www.w3.org/2000/svg">
<path d="M72.456 64.4494C71.406 63.2368 69.9946 62.2235 68.0152 61.2435C63.781 59.1504 59.1853 58.1205 55.2437 57.4062C54.5897 57.29 53.9528 57.1737 53.2987 57.074L50.9579 56.6753L52.3004 56.1936C57.4813 54.3497 59.7361 51.8082 59.8394 47.7384C59.9599 43.3364 57.6018 40.6122 52.2316 38.8846L50.9751 38.4859L52.9373 38.0042C53.4536 37.8713 53.9872 37.755 54.5036 37.6387C55.674 37.3729 56.8789 37.0905 58.0321 36.7417C60.1492 36.1105 61.6811 35.3131 62.8687 34.2168C63.781 33.3696 64.2801 32.3563 64.2457 31.3596C64.2285 30.4128 63.7466 29.5158 62.8687 28.7683C61.9393 27.9875 60.7516 27.2732 59.4091 26.6918C55.8634 25.1968 52.025 24.6486 48.3933 24.2167C47.5671 24.1171 46.7237 24.034 45.8631 23.951L43.8492 23.7516L44.6066 22.9875C44.727 22.8546 44.8303 22.7549 44.9336 22.6553C46.3794 21.127 46.8786 19.2832 46.4138 17.2068C46.1557 16.044 45.3811 15.0307 44.0385 14.1004C43.4533 13.7018 42.8509 13.3529 42.1968 12.9709C41.9042 12.8047 41.6116 12.6386 41.319 12.4725L40.9576 12.2566L41.2157 11.9243C41.2157 11.9243 41.3018 11.7915 41.3879 11.725C42.8681 10.5622 43.7115 8.88447 43.6943 7.15688C43.6943 5.4293 42.8165 3.76817 41.3018 2.62199C38.0143 0.113671 32.1449 0.246562 28.9778 2.90438C27.5837 4.08378 26.9296 5.52897 27.0673 7.19011C27.1189 7.83795 27.2738 8.48579 27.4288 9.10041C27.4976 9.38281 27.5665 9.6652 27.6181 9.93098L27.7041 10.3297L27.2911 10.3795C26.6198 10.4625 25.9313 10.529 25.2428 10.612C23.6765 10.7782 22.0585 10.9609 20.4578 11.2267C17.3768 11.725 14.9843 12.5888 12.9533 13.9177C11.1976 15.0639 10.1649 16.725 10.1477 18.4858C10.1133 20.23 11.0771 21.9244 12.7984 23.137C14.0376 24.0174 15.5007 24.632 17.5489 25.147C18.1169 25.2965 18.6849 25.4128 19.3046 25.5457L21.0947 25.9443L20.3545 26.4261C18.2202 27.8048 17.3252 29.7649 17.6178 32.3729C17.876 34.6321 19.2185 36.1935 21.9725 37.4228L23.1429 37.9377L20.3717 38.3364C19.3906 38.4693 18.4612 38.6022 17.5317 38.7517C14.0032 39.3331 9.87228 40.147 5.9651 41.7417C4.38158 42.3896 2.74642 43.1371 1.54156 44.4328C0.85307 45.1637 0.371119 45.961 0.14736 46.6753C-0.300158 48.1703 0.267853 49.5158 1.90301 50.8946C3.24557 52.0242 4.88073 52.9046 6.73965 53.5026C8.82233 54.167 10.9394 54.765 13.0049 55.3464C13.8827 55.5956 14.7778 55.8448 15.6384 56.0939L16.9981 56.476L15.6384 56.8082C15.6384 56.8082 15.4662 56.8581 15.3458 56.8747C12.8672 57.3398 9.99276 58.0042 7.34207 59.4162C3.83078 61.2767 2.05792 63.9677 1.90301 67.6554C1.73089 71.7584 3.31442 74.7319 6.75686 76.7585C8.32318 77.6721 10.1477 78.403 12.3336 78.9678C17.6006 80.3133 22.9192 80.6289 27.4288 80.7452C36.7406 80.9944 44.4516 80.6455 51.6808 79.6654C55.4503 79.1505 60.4074 78.3365 65.2096 76.5259C67.5505 75.6455 70.2184 74.4495 72.2322 72.3232C74.5214 69.9146 74.5903 66.991 72.4215 64.4993L72.456 64.4494ZM31.3359 4.43262C34.0038 3.05388 36.6201 3.00405 39.0814 4.28312C40.4928 5.01402 41.1469 6.19343 40.992 7.65523C40.8543 8.9343 40.1486 9.76487 38.9954 10.0306C38.2553 10.2134 37.4979 10.313 36.7061 10.4293C36.3619 10.4792 36.0004 10.529 35.639 10.5954H35.5701H35.5013C35.157 10.529 34.8128 10.4792 34.4513 10.4127C33.6079 10.2798 32.7473 10.1303 31.9039 9.89776C30.6474 9.54892 29.8901 8.68513 29.7524 7.45589C29.5975 6.09376 30.1483 5.04724 31.3359 4.43262ZM18.8743 22.7716C17.8415 22.539 16.8432 22.1403 15.8621 21.7583C15.5695 21.642 15.2941 21.5257 15.0015 21.426C14.6056 21.2765 14.2786 20.9941 14.0204 20.7616C13.2287 20.0639 12.8156 19.2666 12.85 18.4858C12.8844 17.7051 13.3491 16.9576 14.1753 16.343C15.6728 15.23 17.4801 14.4991 20.0447 14.0174C26.6714 12.7383 32.4203 12.8214 37.6012 14.2333C39.0298 14.6154 40.5445 15.2798 42.2313 16.2267C43.6083 16.9908 43.9009 18.0041 43.9181 18.7184C43.9181 19.8313 43.2124 21.0108 42.128 21.642C40.6822 22.5058 38.9954 23.0041 36.8094 23.2201C35.0366 23.4028 33.2293 23.5191 31.4736 23.6353C30.7335 23.6852 29.9762 23.735 29.236 23.7849H29.2188H28.8574C25.5526 23.6686 22.1446 23.5357 18.8571 22.7882L18.8743 22.7716ZM22.5061 34.7816C21.0086 34.1171 20.2513 33.0208 20.234 31.5424C20.234 29.9477 21.0258 28.7683 22.5061 28.2201C24.0896 27.6221 25.7936 27.0407 27.5148 26.8413C36.8955 25.745 45.9491 26.1104 54.4348 27.9377C55.7945 28.2367 57.1198 28.735 58.3935 29.2168C58.7378 29.3497 59.0648 29.4659 59.4091 29.5988C59.9771 29.7982 60.4762 30.1802 60.9065 30.5125C61.1819 30.745 61.5606 31.0938 61.5606 31.5756C61.5606 31.9244 61.3368 32.2566 60.9065 32.5723C60.2869 33.0374 59.5984 33.436 58.8755 33.7517C56.2765 34.8978 53.5569 35.4294 50.9923 35.8447C47.0335 36.4759 42.7993 36.7915 37.2914 36.8414C33.6768 36.7915 29.5803 36.7417 25.5354 35.8447C24.5371 35.6121 23.5216 35.2799 22.5061 34.8148V34.7816ZM13.3492 52.8381C10.905 52.2733 8.04779 51.5258 5.43153 50.1969C4.70861 49.8148 4.0029 49.3663 3.41769 48.8514C2.91853 48.4195 2.66035 47.971 2.67756 47.5059C2.67756 47.0574 2.95296 46.6255 3.45212 46.2268C4.31273 45.5457 5.24218 44.9809 6.17164 44.549C9.6313 42.971 13.2803 42.1736 16.3957 41.5922C24.9674 40.0141 33.8145 39.5158 43.4706 40.0806C47.2056 40.2965 49.994 40.8115 52.4898 41.7251C52.9545 41.8912 53.3159 42.0407 53.643 42.2068C56.6895 43.7019 57.6362 45.662 57.0338 49.1836C56.81 50.5457 55.9322 51.6089 54.2798 52.5225C52.2316 53.6687 49.994 54.1504 47.9113 54.4826C44.0385 55.0973 40.2174 55.2135 37.1709 55.2135C36.8955 55.2135 36.6201 55.2135 36.3447 55.2135C27.4115 55.1305 20.1135 54.3664 13.3664 52.8215L13.3492 52.8381ZM70.2184 70.4794C69.3405 71.3265 68.2734 72.1073 67.1202 72.7385C63.8326 74.5325 60.132 75.4462 56.965 76.1106C49.9768 77.5558 42.5411 78.2203 32.8162 78.2369H32.3859C27.6525 78.2369 22.1274 78.104 16.6883 77.207C14.1409 76.7917 11.1804 76.1771 8.40924 74.6987C4.88073 72.8382 3.71029 69.682 4.94957 65.3631C5.39709 63.8016 6.68802 62.8215 7.75518 62.1571C10.3026 60.5624 13.1082 59.8979 15.5351 59.466C22.8675 58.1537 30.1655 58.1205 36.9643 58.2866C45.1746 58.486 51.8185 59.2169 57.86 60.5624C60.941 61.2435 64.2113 62.1072 67.2407 63.8016C68.3939 64.4328 69.4438 65.2136 70.2528 66.0441C71.6986 67.4893 71.6814 69.0674 70.2184 70.4794Z" fill="#443C36"/>
</svg>
